<svg width="30" height="30" viewBox="0 0 30 30" fill="none" xmlns="http://www.w3.org/2000/svg">
<g clip-path="url(#clip0_46_17572)">
<path d="M28.482 14.965H27.8429V13.9215C27.8429 11.6838 27.2617 9.49301 26.1599 7.5624L26.3082 7.4141C26.6902 7.03219 26.7432 6.43295 26.4345 5.98928C23.8252 2.23898 19.5506 0 15 0C10.4494 0 6.17479 2.23898 3.56555 5.98928C3.25682 6.43307 3.30996 7.03236 3.69199 7.41434L3.84012 7.56246C2.73832 9.49301 2.15719 11.6838 2.15719 13.9215V14.9651H1.51799C0.680977 14.965 0 15.646 0 16.483V23.7633C0 24.6004 0.680977 25.2813 1.51799 25.2813H2.191C2.33016 25.898 2.88205 26.3602 3.54018 26.3602H4.88842C5.65125 26.3602 6.27182 25.7396 6.27182 24.9768V23.8781C6.27182 23.6354 6.07506 23.4387 5.83236 23.4387C5.58967 23.4387 5.39291 23.6354 5.39291 23.8781V24.9768C5.39291 25.255 5.16662 25.4813 4.88842 25.4813H3.54023C3.26203 25.4813 3.03574 25.255 3.03574 24.9768L3.03604 15.2639C3.03908 14.9886 3.26396 14.7656 3.54023 14.7656H4.88848C5.16668 14.7656 5.39297 14.9917 5.39297 15.2695V21.8273C5.39297 22.07 5.58973 22.2668 5.83242 22.2668C6.07512 22.2668 6.27187 22.07 6.27187 21.8273V15.2695C6.27187 14.5071 5.65131 13.8867 4.88848 13.8867H3.54023C3.36234 13.8867 3.19236 13.9208 3.03604 13.9822V13.9215C3.03604 11.9041 3.54293 9.92789 4.50551 8.17301C4.7025 8.28615 4.93096 8.33713 5.16299 8.31521C5.49639 8.28351 5.79586 8.10586 5.98453 7.82766C8.0192 4.8273 11.3895 3.03604 15 3.03604C18.6105 3.03604 21.9808 4.8273 24.0155 7.82766C24.2042 8.10586 24.5036 8.28357 24.8371 8.31521C24.8725 8.31861 24.9079 8.32025 24.9431 8.32025C25.1381 8.32025 25.3272 8.26816 25.4941 8.17225C26.457 9.92731 26.964 11.9038 26.964 13.9215V13.9822C26.8077 13.9208 26.6377 13.8867 26.4598 13.8867H25.1116C24.3488 13.8867 23.7282 14.5071 23.7282 15.2695V24.9768C23.7282 25.7392 24.3488 26.3596 25.1116 26.3596H26.4598C27.1179 26.3596 27.6698 25.8977 27.809 25.2813H28.4821C29.3191 25.2813 30.0001 24.6004 30.0001 23.7633V16.483C30 15.646 29.319 14.965 28.482 14.965ZM0.878906 23.7633V16.483C0.878906 16.1306 1.16561 15.8439 1.51799 15.8439H2.15684V24.4024H1.51799C1.16561 24.4024 0.878906 24.1157 0.878906 23.7633ZM24.9202 7.44029C24.8781 7.43631 24.7992 7.41721 24.743 7.33436C22.5444 4.09254 18.9022 2.15713 15 2.15713C11.0978 2.15713 7.45559 4.09254 5.25709 7.33436C5.20096 7.41721 5.12191 7.43625 5.07984 7.44023C5.03918 7.44404 4.96113 7.44047 4.89381 7.3732L4.31338 6.79277C4.2327 6.71209 4.22156 6.58523 4.28701 6.49119C6.73201 2.97697 10.7369 0.878906 15 0.878906C19.2631 0.878906 23.268 2.97697 25.713 6.49125C25.7784 6.58523 25.7674 6.71203 25.6867 6.79266L25.1061 7.37332C25.0388 7.44053 24.9606 7.44416 24.9202 7.44029ZM29.1211 23.7633C29.1211 24.1157 28.8344 24.4024 28.482 24.4024H27.8432V20.3062C27.8432 20.0636 27.6464 19.8668 27.4037 19.8668C27.161 19.8668 26.9643 20.0636 26.9643 20.3062V24.9768C26.9643 25.2546 26.738 25.4807 26.4598 25.4807H25.1115C24.8333 25.4807 24.607 25.2546 24.607 24.9768V15.2695C24.607 14.9917 24.8333 14.7656 25.1115 14.7656H26.4598C26.736 14.7656 26.9609 14.9886 26.964 15.2639L26.9643 18.2555C26.9643 18.4982 27.161 18.6949 27.4037 18.6949C27.6464 18.6949 27.8432 18.4982 27.8432 18.2555V15.8439H28.482C28.8344 15.8439 29.1211 16.1306 29.1211 16.483V23.7633Z" fill="#6F6F6F"/>
<path d="M11.4482 11.8379C11.2055 11.8379 11.0088 12.0346 11.0088 12.2773V16.4206C11.0088 16.6633 11.2055 16.86 11.4482 16.86H19.7347C19.9774 16.86 20.1742 16.6633 20.1742 16.4206V12.2773C20.1742 12.0346 19.9774 11.8379 19.7347 11.8379H11.4482ZM19.2953 15.9811H11.8877V12.7168H19.2953V15.9811Z" fill="#6F6F6F"/>
<path d="M22.7789 13.5809C22.7789 13.3382 22.5821 13.1414 22.3395 13.1414C22.0968 13.1414 21.9 13.3382 21.9 13.5809V23.439H10.5608C9.61318 23.439 8.75859 23.8433 8.15918 24.488V12.6323C8.15918 11.3082 9.2366 10.2311 10.5609 10.2311H21.9V11.5301C21.9 11.7728 22.0968 11.9696 22.3395 11.9696C22.5821 11.9696 22.7789 11.7728 22.7789 11.5301V9.79163C22.7789 9.54893 22.5821 9.35217 22.3395 9.35217H10.5609C8.75197 9.35217 7.28027 10.8236 7.28027 12.6323V26.7194V26.7195C7.28027 28.5284 8.75191 30.0001 10.5608 30.0001H22.3395C22.5821 30.0001 22.7789 29.8033 22.7789 29.5606V13.5809ZM21.9 26.7199V27.227H10.5608C10.281 27.227 10.0532 26.9993 10.0532 26.7194C10.0532 26.4395 10.2809 26.2118 10.5608 26.2118H21.9V26.7192V26.7199ZM10.5608 29.1211C9.23654 29.1211 8.15918 28.0438 8.15918 26.7195C8.15918 25.3952 9.23654 24.3178 10.5608 24.3178H21.9V25.333H10.5608C9.79635 25.333 9.17432 25.9549 9.17432 26.7195C9.17432 27.484 9.79629 28.106 10.5608 28.106H21.9V29.1211H10.5608Z" fill="#6F6F6F"/>
</g>
<defs>
<clipPath id="clip0_46_17572">
<rect width="30" height="30" fill="white"/>
</clipPath>
</defs>
</svg>
