<svg width="14" height="14" viewBox="0 0 14 14" fill="none" xmlns="http://www.w3.org/2000/svg">
<path d="M10.0936 12.2591C11.4395 10.9132 12.272 9.05382 12.272 7.00001C12.272 4.9462 11.4395 3.08683 10.0936 1.74091L9.47487 2.35962C10.6625 3.5472 11.397 5.18783 11.397 7.00001C11.397 8.8122 10.6625 10.4528 9.47487 11.6404L10.0936 12.2591Z" fill="#114FFB"/>
<path d="M8.85616 11.0217C9.88539 9.99245 10.522 8.57057 10.522 7.00001C10.522 5.42945 9.88539 4.00758 8.85616 2.97834L8.23744 3.59706C9.10833 4.46795 9.64699 5.67108 9.64699 7.00001C9.64699 8.32895 9.10833 9.53207 8.23744 10.403L8.85616 11.0217Z" fill="#114FFB"/>
<path d="M7.61872 9.78425C8.33127 9.0717 8.77199 8.08732 8.77199 7.00001C8.77199 5.9127 8.33127 4.92833 7.61872 4.21578L7 4.8345C7.5542 5.3887 7.89699 6.15433 7.89699 7.00001C7.89699 7.8457 7.5542 8.61132 7 9.16553L7.61872 9.78425Z" fill="#114FFB"/>
<path d="M5.87702 3.1057C6.0286 3.17855 6.125 3.33184 6.125 3.50002V10.5C6.125 10.6682 6.0286 10.8215 5.87702 10.8943C5.72544 10.9672 5.54552 10.9467 5.4142 10.8416L3.34653 9.18752H1.3125C1.07088 9.18752 0.875 8.99164 0.875 8.75002V5.25002C0.875 5.00839 1.07088 4.81252 1.3125 4.81252H3.34653L5.4142 3.15839C5.54552 3.05333 5.72544 3.03284 5.87702 3.1057Z" fill="#114FFB"/>
</svg>
