<svg width="223" height="56" viewBox="0 0 223 56" fill="none" xmlns="http://www.w3.org/2000/svg">
<g clip-path="url(#clip0_147_70124)">
<path d="M27.0161 38.6214C26.4086 35.0033 24.4761 32.8026 21.8973 31.4628C19.3184 30.123 16.0868 29.6764 12.9716 29.6764C11.2718 29.6764 9.61718 29.8123 8.11125 29.9935C8.09186 30.5567 8.07893 31.1133 8.06601 31.6699C8.04662 32.6861 8.03369 33.6958 8.03369 34.6796C8.03369 35.9935 8.05308 37.2686 8.09186 38.5049C8.23405 43.2168 8.6477 47.2298 9.35219 49.6376C9.64303 50.6473 9.99851 51.3722 10.354 51.7217C11.5626 52.9385 13.5016 53.5858 15.6538 53.5858C18.2714 53.5858 21.1863 52.6278 23.429 50.6473C23.8168 50.3042 24.1917 49.9288 24.5343 49.5211C24.5666 49.4822 24.5989 49.4499 24.6312 49.411C26.2212 47.4952 27.2617 44.9062 27.2682 41.5728C27.2682 40.6473 27.1842 39.6634 27.0161 38.6278V38.6214ZM22.5501 39.6181C22.5501 41.068 21.3737 42.246 19.926 42.246C18.4782 42.246 17.3019 41.068 17.3019 39.6181C17.3019 38.1683 18.4782 36.9903 19.926 36.9903C21.3737 36.9903 22.5501 38.1683 22.5501 39.6181Z" fill="white"/>
<path d="M9.97913 7.4563C10.3992 5.60517 10.871 4.03236 11.3946 2.80258C8.62832 5.11326 6.77338 17.5858 6.23047 29.6958C6.65704 29.6246 7.103 29.5599 7.56835 29.4951C7.83334 21.5534 8.67356 13.2168 9.98559 7.4563H9.97913Z" fill="#F4BB19"/>
<path d="M9.9598 52.123C9.48799 51.644 9.12605 50.8544 8.81581 49.7994C8.50558 48.7444 8.25351 47.424 8.05962 45.89C7.77524 43.6764 7.60073 41.0227 7.52317 38.123C7.49086 37.0097 7.47793 35.8576 7.47793 34.6861C7.47793 33.7152 7.49086 32.725 7.51025 31.7282C7.52317 31.178 7.5361 30.6279 7.54903 30.0712C7.07721 30.136 6.63125 30.2072 6.20468 30.2719C6.18529 30.8091 6.1659 31.3463 6.14651 31.8771C2.59821 32.3366 0 33.0809 0 33.0809L6.06249 37.1457C6.08188 45.4563 6.83161 52.4207 8.4668 54.0583C11.679 57.2751 19.4543 56.5761 23.4291 51.3787C21.1282 53.2427 18.2715 54.1554 15.6603 54.1554C13.3982 54.1554 11.3171 53.4822 9.9598 52.123Z" fill="white"/>
<path d="M17.509 23.068C16.0806 18.3042 19.4156 5.90939 12.9266 2.56958C12.668 2.44013 12.4224 2.4013 12.1768 2.42719C12.0023 2.78318 11.8278 3.18447 11.6598 3.63107C10.9036 5.64402 10.2443 8.5178 9.70788 11.8641C8.87413 17.0356 8.33122 23.3463 8.13086 29.4175C9.63032 29.2363 11.2784 29.1068 12.9718 29.1068C16.1388 29.1068 19.4544 29.5534 22.156 30.9579C24.8641 32.356 26.9453 34.7443 27.5722 38.5243C27.7532 39.5922 27.8307 40.6084 27.8307 41.5664C27.8307 45.0615 26.7126 47.8123 25.0063 49.8382L27.863 51.754C28.2573 52.0194 28.7485 52.0971 29.2074 51.9547C30.5646 51.5469 33.4989 50.3625 35.9485 47.3528C35.9162 47.3786 35.8839 47.411 35.858 47.4369C33.0077 49.8058 30.2286 50.2913 30.1962 50.2977C30.0411 50.3236 29.8989 50.2201 29.8731 50.0712C29.8472 49.9159 29.9506 49.7735 30.0993 49.7476H30.1251L30.2092 49.7217C30.2867 49.7023 30.3966 49.6764 30.5453 49.6375C30.8361 49.5599 31.2562 49.4304 31.7603 49.2298C32.7686 48.8285 34.1259 48.1424 35.4961 47.0032C36.2264 46.3948 36.9632 45.6505 37.6483 44.7573C38.8569 42.4401 39.723 39.411 39.8393 35.4693C40.2788 20.6926 18.9309 27.8447 17.5025 23.0744L17.509 23.068Z" fill="white"/>
<path d="M41.8236 32.8867C41.83 29.2751 40.4663 26.9256 38.411 25.4693C35.3281 23.2816 30.7909 22.9903 26.9065 22.7702C24.9611 22.6602 23.1772 22.5761 21.8458 22.3042C21.1801 22.1683 20.6243 21.9871 20.2236 21.7476C19.8228 21.5081 19.5837 21.2233 19.4674 20.8608C19.1507 19.8058 19.0731 18.2913 19.0731 16.5696C19.0731 15.1974 19.1183 13.6828 19.1183 12.1424C19.1183 9.74757 19.0085 7.28155 18.4074 5.1521C17.8128 3.02265 16.714 1.20388 14.7428 0.194175C14.5101 0.0647249 14.258 0 14.0059 0C13.7022 0 13.4113 0.0970874 13.1463 0.265372C12.6487 0.582524 12.2221 1.13916 11.8214 1.8835C11.6727 2.16181 11.5305 2.47249 11.3883 2.80259C10.8648 4.03236 10.3995 5.60518 9.97291 7.45631C8.66088 13.2168 7.82066 21.5599 7.55567 29.4951C7.09032 29.5599 6.64436 29.6246 6.21778 29.6958C3.48385 30.1424 1.61598 30.6731 1.60306 30.6796C1.4544 30.7249 1.36392 30.8803 1.40916 31.0291C1.4544 31.178 1.60952 31.2686 1.75817 31.2233C1.75817 31.2233 1.84219 31.1974 1.99731 31.1586C2.56607 31.0032 4.12371 30.6149 6.19193 30.2718C6.6185 30.2006 7.06446 30.1294 7.53628 30.0712C7.51689 30.6278 7.50396 31.178 7.4975 31.7282C7.47811 32.7249 7.46518 33.7152 7.46518 34.6861C7.46518 35.8641 7.47811 37.0097 7.51043 38.123C7.58798 41.0227 7.76249 43.6764 8.04687 45.89C8.24723 47.4239 8.49283 48.7443 8.80307 49.7994C9.1133 50.8544 9.47524 51.644 9.94705 52.123C11.3043 53.4757 13.3855 54.1489 15.6476 54.1553C18.2587 54.1553 21.1155 53.2427 23.4164 51.3786C23.5392 51.2751 23.6749 51.1845 23.7977 51.0744C24.2243 50.699 24.625 50.2848 25.0063 49.8382C26.7061 47.8123 27.8307 45.0615 27.8307 41.5663C27.8307 40.6084 27.7467 39.5922 27.5722 38.5243C26.9453 34.7443 24.8641 32.356 22.156 30.9579C19.4544 29.5534 16.1388 29.1068 12.9718 29.1068C11.2785 29.1068 9.63036 29.2362 8.13089 29.4175C8.33772 23.3398 8.88063 17.0356 9.70792 11.8641C10.2444 8.5178 10.9036 5.64401 11.6598 3.63107C11.8278 3.18447 12.0024 2.78317 12.1769 2.42718C12.3966 1.98058 12.6228 1.59871 12.849 1.30744C13.0494 1.04854 13.2562 0.854369 13.4501 0.731392C13.644 0.608414 13.825 0.556634 14.0059 0.556634C14.1611 0.556634 14.3162 0.595469 14.4907 0.686084C16.281 1.61165 17.2957 3.25566 17.8709 5.2945C18.4462 7.33333 18.5625 9.75404 18.5625 12.1294C18.5625 13.657 18.5173 15.165 18.5173 16.5566C18.5173 18.2977 18.5884 19.8447 18.9374 21.0097C19.0408 21.3527 19.2347 21.6505 19.4997 21.89C19.9973 22.343 20.7018 22.6149 21.5614 22.8026C23.0609 23.1327 25.0451 23.2168 27.1844 23.3333C30.3902 23.5146 33.9514 23.7929 36.6595 25.0809C38.0168 25.7217 39.1607 26.6084 39.9686 27.8576C40.7765 29.1068 41.2613 30.7314 41.2613 32.8673C41.2613 33.0097 41.2613 33.1586 41.2548 33.301C41.0932 38.6667 39.5421 42.2783 37.6548 44.7314C36.9633 45.6246 36.2329 46.3689 35.5026 46.9773C34.1324 48.1165 32.7816 48.8026 31.7668 49.2039C31.2627 49.4045 30.8426 49.534 30.5518 49.6116C30.4031 49.6505 30.2932 49.6764 30.2157 49.6958L30.1316 49.7152H30.1058C29.9507 49.7476 29.8473 49.89 29.8796 50.0453C29.9054 50.2006 30.0541 50.3042 30.2027 50.2718C30.2351 50.2718 33.0142 49.7799 35.8645 47.411C35.8968 47.3851 35.9291 47.3528 35.955 47.3269C38.773 44.945 41.6038 40.6926 41.8236 33.3139C41.8236 33.1586 41.83 33.0097 41.83 32.8608L41.8236 32.8867ZM12.9718 29.6764C16.0871 29.6764 19.3187 30.123 21.8975 31.4628C24.4763 32.8091 26.4088 35.0097 27.0164 38.6214C27.1909 39.6634 27.2684 40.6408 27.2684 41.5663C27.2684 44.8997 26.2214 47.4887 24.6315 49.4045C24.5991 49.4434 24.5668 49.4822 24.5345 49.5146C24.1855 49.9223 23.8171 50.2977 23.4293 50.6408C21.1866 52.6214 18.2717 53.5793 15.6541 53.5793C13.5018 53.5793 11.5629 52.932 10.3542 51.7152C9.99876 51.3657 9.64328 50.6408 9.35244 49.6311C8.64149 47.2233 8.22784 43.2039 8.09211 38.4984C8.05333 37.2621 8.03395 35.9871 8.03395 34.6731C8.03395 33.6828 8.04687 32.6796 8.06626 31.6634C8.07919 31.1068 8.09211 30.5502 8.1115 29.9871C9.61097 29.7994 11.272 29.6699 12.9718 29.6699V29.6764Z" fill="#383838"/>
<path d="M19.9263 42.246C21.3741 42.246 22.5504 41.068 22.5504 39.6181C22.5504 38.1683 21.3741 36.9903 19.9263 36.9903C18.4785 36.9903 17.3022 38.1683 17.3022 39.6181C17.3022 41.068 18.4785 42.246 19.9263 42.246Z" fill="#383838"/>
<path d="M66.8424 31.0226C67.8119 30.233 68.6004 29.301 69.208 28.2201C69.8155 27.1456 70.1193 26.0712 70.1193 25.0097C70.1193 24.1877 69.906 23.3398 69.4859 22.4595C69.0593 21.5793 68.4453 20.7767 67.6439 20.0453C66.8424 19.3139 65.8729 18.7249 64.7354 18.2718C63.5979 17.8188 62.3182 17.5858 60.8898 17.5858C60.1013 17.5858 59.1383 17.7152 58.0008 17.9741C56.8632 18.233 55.7645 18.5825 54.7045 19.0226C53.6446 19.4628 52.7397 19.987 51.9964 20.5955C51.2532 21.2039 50.8848 21.8382 50.8848 22.5113C50.8848 23.0291 51.0851 23.4628 51.4858 23.8123C51.8866 24.1618 52.4101 24.3366 53.0629 24.3366L53.2697 24.3625L53.4765 24.3366V43.4693L53.5218 43.3786C53.3666 43.7152 53.2955 44 53.2955 44.246C53.2955 44.699 53.4765 45.1327 53.8385 45.5469C54.2004 45.9547 54.7756 46.1942 55.5641 46.2524H55.6094C56.0295 46.2848 56.4431 46.2977 56.8309 46.2977H58.0589C59.2352 46.2977 60.4245 46.233 61.6201 46.1165C62.8158 45.9935 63.9404 45.767 65.0004 45.4369C65.8471 45.1327 66.6485 44.7055 67.4047 44.1618C68.1609 43.6181 68.8202 42.9903 69.376 42.2913C69.9318 41.5922 70.3713 40.8349 70.688 40.0129C71.0047 39.1909 71.1663 38.3754 71.1663 37.5534C71.1663 36.3107 70.8108 35.1068 70.0999 33.9547C69.3889 32.8026 68.3031 31.8317 66.8489 31.0421L66.8424 31.0226ZM57.878 22.1424C58.757 21.8382 59.6812 21.6893 60.6507 21.6893C61.2259 21.6893 61.8011 21.767 62.3828 21.9159C62.958 22.0712 63.488 22.2848 63.9728 22.576C64.4575 22.8673 64.8518 23.2362 65.1555 23.6893C65.4593 24.1424 65.6079 24.6926 65.6079 25.3269C65.6079 25.9612 65.4076 26.5243 65.0133 27.0097C64.6191 27.4951 64.1408 27.9029 63.5785 28.2395C63.0162 28.576 62.4345 28.8414 61.827 29.0356C61.2194 29.2362 60.7218 29.3463 60.3275 29.3786C59.9009 29.3463 59.4938 29.3269 59.0995 29.3074C58.7052 29.2945 58.2981 29.2815 57.8715 29.2815V22.1294L57.878 22.1424ZM65.6597 40.246C64.9939 40.8414 64.199 41.288 63.2683 41.5922C62.344 41.8964 61.381 42.0841 60.3792 42.1618C59.3774 42.2395 58.5437 42.2783 57.878 42.2783V33.6699C58.3627 33.6699 58.8345 33.644 59.2869 33.5987C59.7394 33.5534 60.1789 33.5016 60.6054 33.4369C61.4521 33.5275 62.26 33.6893 63.0162 33.9159C63.7724 34.1424 64.4833 34.4725 65.1555 34.8932C65.6726 35.2298 66.0474 35.644 66.293 36.1489C66.5386 36.6472 66.655 37.2039 66.655 37.8123C66.655 38.8479 66.3189 39.657 65.6532 40.246H65.6597Z" fill="#383838"/>
<path d="M93.0119 40.4983C92.721 40.3171 92.3785 40.2071 91.9648 40.1812C91.5577 40.1488 91.1052 40.2265 90.6205 40.4077C89.7415 40.9514 88.7785 41.4757 87.7314 41.9805C86.6844 42.4854 85.6761 42.7637 84.7067 42.822C83.5562 42.9126 82.5803 42.699 81.7982 42.1877C81.0097 41.6699 80.4022 40.9708 79.9756 40.0906C80.0338 40.0906 80.1954 40.0582 80.4539 40C80.7124 39.9417 81.3135 39.7864 82.2506 39.5469C83.1296 39.3333 84.0668 39.0938 85.0686 38.822C86.0704 38.5501 87.0399 38.2135 87.977 37.8187C88.9142 37.4239 89.7803 36.9644 90.5688 36.4271C91.3573 35.8964 91.9778 35.2686 92.4367 34.5372C92.6823 34.1747 92.8438 33.7928 92.9343 33.398C93.0248 33.0032 93.0701 32.5954 93.0701 32.1682C93.0701 31.5275 92.9473 30.8932 92.7081 30.2524C92.4625 29.6116 92.1329 29.0291 91.7063 28.4983C91.2797 27.9676 90.7821 27.5145 90.2069 27.1326C89.6316 26.7508 89.0112 26.4854 88.339 26.3365C87.641 26.1877 86.93 26.11 86.1997 26.11C84.8359 26.11 83.5174 26.3365 82.2442 26.7961C80.9709 27.2491 79.7882 27.8576 78.6959 28.6213C77.3321 29.5339 76.3368 30.7184 75.7163 32.1747C75.0959 33.631 74.7856 35.1521 74.7856 36.7313C74.7856 38.3106 75.1411 39.9158 75.8521 41.4433C76.563 42.9773 77.5584 44.2135 78.8316 45.1585C79.6201 45.7022 80.4668 46.11 81.3781 46.3624C82.2894 46.6213 83.1813 46.7508 84.0603 46.7508C85.5469 46.7508 87.027 46.4854 88.4941 45.9546C89.9612 45.4239 91.3379 44.7767 92.6112 44.0194C93.0636 43.7475 93.3997 43.4498 93.613 43.1326C93.8262 42.8155 93.9297 42.4854 93.9297 42.1553C93.9297 41.8252 93.8456 41.508 93.6776 41.2233C93.5096 40.932 93.2833 40.699 92.9925 40.5178L93.0119 40.4983ZM79.2129 36.2135C79.2711 35.1521 79.549 34.1877 80.0338 33.3203C80.5185 32.453 81.2618 31.7669 82.2636 31.2491C82.7806 31.0097 83.4269 30.7572 84.2219 30.4983C85.0104 30.2394 85.7537 30.11 86.4517 30.11C87.0851 30.11 87.6345 30.2783 88.0869 30.6084C88.5393 30.9449 88.7397 31.5534 88.6751 32.4336C88.4941 32.7961 88.1386 33.1326 87.6086 33.4368C87.0787 33.7411 86.5034 34.0064 85.8765 34.233C85.256 34.4595 84.642 34.6601 84.0345 34.822C83.427 34.9902 82.9745 35.1197 82.6708 35.2103C81.8241 35.4563 81.1713 35.644 80.7124 35.7799C80.2535 35.9158 79.9174 36.0129 79.6912 36.0776C79.465 36.1423 79.3034 36.1877 79.2129 36.2135Z" fill="#383838"/>
<path d="M113.229 28.932C112.589 27.8058 111.742 26.9709 110.695 26.4207C109.642 25.8705 108.543 25.5987 107.386 25.5987C106.319 25.5987 105.285 25.7735 104.284 26.1294C103.282 26.4854 102.338 26.9644 101.453 27.5793C101.304 27.0615 101.02 26.6731 100.6 26.4207C100.179 26.1618 99.7593 26.0324 99.3392 26.0324C98.8286 26.0324 98.3697 26.1877 97.969 26.4854C97.5618 26.7896 97.2839 27.2751 97.1353 27.9417C97.1353 29.398 97.1417 30.809 97.1547 32.1618C97.1676 33.5146 97.1805 34.8608 97.1805 36.2006V44.4078C97.271 45.1068 97.536 45.6246 97.969 45.9547C98.402 46.2848 98.8803 46.4595 99.3845 46.4595C99.9274 46.4595 100.419 46.2783 100.871 45.9158C101.323 45.5534 101.563 44.9903 101.595 44.2265C101.563 42.6796 101.55 41.1521 101.55 39.6505V35.0744C101.614 34.466 101.711 34.0065 101.847 33.6828C101.983 33.3657 102.177 33.0226 102.416 32.6602C103.12 31.6569 103.902 30.8997 104.775 30.3819C105.641 29.8641 106.533 29.6052 107.451 29.6052C108 29.6052 108.401 29.8188 108.666 30.2459C108.924 30.6731 109.099 31.178 109.189 31.7735C109.28 32.3624 109.312 32.9644 109.28 33.5728C109.247 34.1812 109.234 34.6796 109.234 35.0744V39.288C109.234 40.3689 109.241 41.2492 109.26 41.9288C109.273 42.6084 109.28 43.1586 109.28 43.5663V44.6796C109.37 45.3786 109.635 45.8964 110.075 46.2265C110.514 46.5631 111.005 46.7249 111.555 46.7249C112.072 46.7249 112.563 46.5437 113.035 46.1747C113.507 45.8123 113.752 45.2492 113.784 44.4854V36.1747C113.784 35.6246 113.817 35.0421 113.875 34.4207C113.933 33.7993 113.965 33.165 113.965 32.5243C113.965 31.8835 113.92 31.2621 113.83 30.6537C113.739 30.0453 113.539 29.4692 113.235 28.9191L113.229 28.932Z" fill="#383838"/>
<path d="M222.522 37.8058C222.205 37.0744 221.752 36.4531 221.177 35.9353C220.602 35.4175 219.917 34.9838 219.128 34.6343C218.34 34.2848 217.474 33.9741 216.537 33.7023C216.201 33.6116 215.852 33.5146 215.49 33.4045C215.128 33.301 214.785 33.1715 214.468 33.0162C214.152 32.8673 213.861 32.6731 213.602 32.4466C213.344 32.2201 213.124 31.9353 212.943 31.6052C212.853 30.7573 213.021 30.1489 213.441 29.7799C213.867 29.4175 214.397 29.2104 215.031 29.165C215.671 29.1197 216.31 29.178 216.963 29.3463C217.616 29.5146 218.12 29.6893 218.489 29.8706C218.941 30.1165 219.374 30.233 219.788 30.233C220.201 30.233 220.563 30.1424 220.88 29.9612C221.197 29.7799 221.455 29.5469 221.656 29.2557C221.849 28.9709 221.953 28.6408 221.953 28.2783C221.953 27.9741 221.843 27.657 221.636 27.3204C221.423 26.9838 221.106 26.6667 220.68 26.3625C219.587 25.754 218.353 25.3333 216.97 25.0874C215.587 24.8479 214.262 24.8932 212.988 25.2233C212.349 25.3786 211.754 25.657 211.192 26.0647C210.629 26.4725 210.145 26.9579 209.737 27.521C209.33 28.0841 209.001 28.699 208.761 29.3657C208.516 30.0324 208.399 30.6861 208.399 31.3269C208.399 31.7799 208.49 32.2783 208.671 32.8091C208.852 33.3398 209.11 33.8317 209.447 34.2913C209.808 34.7767 210.19 35.178 210.584 35.4951C210.978 35.8123 211.385 36.0777 211.812 36.2913C212.239 36.5049 212.678 36.6796 213.131 36.8155C213.583 36.9515 214.042 37.0809 214.494 37.2039C214.766 37.2945 215.063 37.3722 215.38 37.4304C215.696 37.4887 216.033 37.5858 216.382 37.7023C216.731 37.8252 217.06 38.0065 217.383 38.246C217.707 38.4854 217.997 38.822 218.269 39.2492C218.482 39.5858 218.586 39.9482 218.586 40.343C218.586 40.7379 218.501 41.1003 218.333 41.4369C218.165 41.7735 217.907 42.0712 217.558 42.3236C217.209 42.5825 216.808 42.7573 216.356 42.8479C215.386 43.0291 214.462 42.835 213.583 42.2589C212.704 41.6828 211.948 40.9709 211.308 40.1165C210.7 39.7217 210.138 39.5275 209.621 39.5275C208.833 39.5275 208.231 39.8252 207.824 40.4142C207.417 41.0032 207.424 41.7411 207.85 42.6214H207.895C208.865 43.9547 210.151 45.0032 211.76 45.7605C213.37 46.5178 215.018 46.8997 216.718 46.8997C217.474 46.8997 218.236 46.7184 218.993 46.356C219.749 45.9935 220.428 45.5081 221.016 44.8997C221.604 44.2913 222.082 43.5987 222.45 42.8285C222.812 42.0518 222.993 41.2557 222.993 40.4401C222.993 39.4045 222.832 38.5243 222.515 37.7994L222.522 37.8058Z" fill="#383838"/>
<path d="M160.85 29.1327C160.165 28.2395 159.331 27.5146 158.349 26.9709C157.366 26.4272 156.235 26.1489 154.962 26.1489C153.508 26.1489 152.131 26.4984 150.845 27.1974C149.559 27.8964 148.434 28.8155 147.478 29.9547C146.521 31.0938 145.765 32.3819 145.203 33.8252C144.64 35.2686 144.362 36.7508 144.362 38.2654C144.362 39.3592 144.55 40.4466 144.931 41.521C145.312 42.6019 145.849 43.5728 146.547 44.4337C147.245 45.301 148.098 46.0065 149.119 46.5502C150.134 47.0938 151.265 47.3722 152.506 47.3722C153.747 47.3722 154.82 47.1456 155.893 46.6926C156.972 46.2395 157.948 45.6052 158.827 44.8026C159.706 44 160.469 43.0485 161.121 41.9547C161.774 40.8608 162.265 39.6958 162.601 38.4466C162.692 37.9935 162.77 37.5469 162.828 37.1003C162.886 36.6602 162.918 36.1812 162.918 35.6634C162.918 34.479 162.744 33.3204 162.395 32.1812C162.046 31.0421 161.529 30.0259 160.85 29.1262V29.1327ZM158.097 38.0841C157.825 38.9838 157.437 39.8188 156.94 40.5955C156.442 41.3722 155.834 42.0259 155.124 42.5631C154.413 43.0938 153.598 43.3657 152.687 43.3657C151.776 43.3657 150.994 43.1068 150.438 42.589C149.875 42.0712 149.475 41.4369 149.236 40.6926C148.99 39.9482 148.874 39.1456 148.874 38.2913C148.874 37.4369 148.964 36.6602 149.145 35.9612C149.294 35.3527 149.539 34.7055 149.875 34.0194C150.212 33.3333 150.625 32.712 151.129 32.1489C151.627 31.5858 152.196 31.1133 152.836 30.7314C153.469 30.3495 154.154 30.1618 154.884 30.1618C155.46 30.1618 155.977 30.3236 156.429 30.6408C156.882 30.9579 157.269 31.3786 157.586 31.8964C157.903 32.4142 158.142 33.0032 158.291 33.657C158.439 34.3107 158.517 34.9773 158.517 35.644C158.517 36.3754 158.381 37.1909 158.11 38.0906L158.097 38.0841Z" fill="#383838"/>
<path d="M182.501 29.1327C181.816 28.2395 180.982 27.5146 180 26.9709C179.018 26.4272 177.887 26.1489 176.613 26.1489C175.159 26.1489 173.782 26.4984 172.496 27.1974C171.21 27.8964 170.085 28.8155 169.129 29.9547C168.172 31.0938 167.416 32.3819 166.854 33.8252C166.292 35.2686 166.014 36.7508 166.014 38.2654C166.014 39.3592 166.201 40.4466 166.582 41.521C166.964 42.6019 167.5 43.5728 168.198 44.4337C168.896 45.301 169.749 46.0065 170.771 46.5502C171.785 47.0938 172.916 47.3722 174.157 47.3722C175.398 47.3722 176.471 47.1456 177.544 46.6926C178.623 46.2395 179.599 45.6052 180.478 44.8026C181.357 44 182.12 43.0485 182.773 41.9547C183.426 40.8608 183.917 39.6958 184.253 38.4466C184.343 37.9935 184.421 37.5469 184.479 37.1003C184.537 36.6602 184.57 36.1812 184.57 35.6634C184.57 34.479 184.395 33.3204 184.046 32.1812C183.697 31.0421 183.18 30.0259 182.501 29.1262V29.1327ZM179.748 38.0841C179.477 38.9838 179.089 39.8188 178.591 40.5955C178.093 41.3722 177.486 42.0259 176.775 42.5631C176.064 43.0938 175.25 43.3657 174.338 43.3657C173.427 43.3657 172.645 43.1068 172.089 42.589C171.527 42.0712 171.126 41.4369 170.887 40.6926C170.641 39.9482 170.525 39.1456 170.525 38.2913C170.525 37.4369 170.615 36.6602 170.796 35.9612C170.945 35.3527 171.191 34.7055 171.527 34.0194C171.863 33.3333 172.277 32.712 172.781 32.1489C173.278 31.5858 173.847 31.1133 174.487 30.7314C175.12 30.3495 175.805 30.1618 176.536 30.1618C177.111 30.1618 177.628 30.3236 178.08 30.6408C178.533 30.9579 178.921 31.3786 179.237 31.8964C179.554 32.4142 179.793 33.0032 179.942 33.657C180.091 34.3107 180.168 34.9773 180.168 35.644C180.168 36.3754 180.032 37.1909 179.761 38.0906L179.748 38.0841Z" fill="#383838"/>
<path d="M137.085 31.0226C138.054 30.233 138.843 29.301 139.45 28.2201C140.058 27.1456 140.361 26.0712 140.361 25.0097C140.361 24.1877 140.148 23.3398 139.728 22.4595C139.301 21.5793 138.687 20.7767 137.886 20.0453C137.085 19.3139 136.115 18.7249 134.978 18.2718C133.84 17.8188 132.56 17.5858 131.132 17.5858C130.343 17.5858 129.38 17.7152 128.243 17.9741C127.105 18.233 126.007 18.5825 124.947 19.0226C123.887 19.4628 122.982 19.987 122.239 20.5955C121.495 21.2039 121.127 21.8382 121.127 22.5113C121.127 23.0291 121.327 23.4628 121.728 23.8123C122.129 24.1618 122.652 24.3366 123.305 24.3366L123.512 24.3625L123.719 24.3366V43.4693L123.764 43.3786C123.609 43.7152 123.538 44 123.538 44.246C123.538 44.699 123.719 45.1327 124.081 45.5469C124.443 45.9547 125.018 46.1942 125.806 46.2524H125.852C126.272 46.2848 126.685 46.2977 127.073 46.2977H128.301C129.477 46.2977 130.667 46.233 131.862 46.1165C133.058 45.9935 134.183 45.767 135.243 45.4369C136.089 45.1327 136.891 44.7055 137.647 44.1618C138.403 43.6181 139.062 42.9903 139.618 42.2913C140.174 41.5922 140.614 40.8349 140.93 40.0129C141.247 39.1909 141.408 38.3754 141.408 37.5534C141.408 36.3107 141.053 35.1068 140.342 33.9547C139.631 32.8026 138.545 31.8317 137.091 31.0421L137.085 31.0226ZM128.127 22.1424C129.006 21.8382 129.93 21.6893 130.899 21.6893C131.475 21.6893 132.05 21.767 132.631 21.9159C133.207 22.0712 133.737 22.2848 134.221 22.576C134.706 22.8673 135.1 23.2362 135.404 23.6893C135.708 24.1424 135.857 24.6926 135.857 25.3269C135.857 25.9612 135.656 26.5243 135.262 27.0097C134.868 27.4951 134.389 27.9029 133.827 28.2395C133.265 28.576 132.683 28.8414 132.076 29.0356C131.468 29.2362 130.97 29.3463 130.576 29.3786C130.15 29.3463 129.742 29.3269 129.348 29.3074C128.954 29.2945 128.547 29.2815 128.12 29.2815V22.1294L128.127 22.1424ZM135.902 40.246C135.236 40.8414 134.441 41.288 133.51 41.5922C132.586 41.8964 131.623 42.0841 130.621 42.1618C129.62 42.2395 128.786 42.2783 128.12 42.2783V33.6699C128.605 33.6699 129.077 33.644 129.529 33.5987C129.982 33.5534 130.421 33.5016 130.848 33.4369C131.694 33.5275 132.502 33.6893 133.258 33.9159C134.015 34.1424 134.726 34.4725 135.398 34.8932C135.915 35.2298 136.29 35.644 136.535 36.1489C136.781 36.6472 136.897 37.2039 136.897 37.8123C136.897 38.8479 136.561 39.657 135.895 40.246H135.902Z" fill="#383838"/>
<path d="M196.3 33.4369C197.393 32.6149 198.407 31.7346 199.345 30.7961C200.282 29.8576 201.284 28.7637 202.344 27.5145C202.77 26.9385 202.983 26.4077 202.983 25.9223C202.983 25.4045 202.783 24.9644 202.395 24.6019C202.001 24.2395 201.497 24.0582 200.896 24.0582C200.592 24.0582 200.282 24.11 199.965 24.22C199.648 24.3301 199.319 24.5178 198.989 24.7896C198.291 25.5469 197.664 26.2459 197.102 26.8867C196.54 27.5275 195.997 28.11 195.467 28.6408C194.937 29.1715 194.407 29.6569 193.877 30.0971C193.347 30.5372 192.765 30.9579 192.125 31.3527V18.6925C191.944 18.0841 191.653 17.6375 191.246 17.3463C190.839 17.055 190.387 16.9126 189.876 16.9126C189.365 16.9126 188.913 17.0744 188.525 17.3916C188.137 17.7087 187.866 18.1877 187.717 18.8285V44.4272C187.808 45.0938 188.079 45.5987 188.525 45.9288C188.971 46.2589 189.456 46.4272 189.966 46.4272C190.535 46.4272 191.033 46.2459 191.453 45.877C191.873 45.5145 192.099 44.9644 192.132 44.2395V35.9935C192.254 35.9353 192.345 35.8964 192.403 35.877L192.629 35.7605C193.657 36.8543 194.607 37.8899 195.473 38.8608C196.339 39.8317 197.225 40.8479 198.136 41.9094L201.413 45.5534C201.717 45.8576 202.027 46.0712 202.344 46.1942C202.66 46.3171 202.99 46.3754 203.319 46.3754C203.927 46.3754 204.418 46.1877 204.8 45.8058C205.181 45.4239 205.368 44.9773 205.368 44.4595C205.368 44.0647 205.123 43.4887 204.644 42.7314L196.32 33.4369H196.3Z" fill="#383838"/>
</g>
<defs>
<clipPath id="clip0_147_70124">
<rect width="223" height="56" fill="white"/>
</clipPath>
</defs>
</svg>
