<svg width="172" height="56" viewBox="0 0 172 56" fill="none" xmlns="http://www.w3.org/2000/svg">
<rect width="56.0007" height="56" fill="white"/>
<path d="M5.47046 4H4V5.47046H5.47046V4Z" fill="#2D2D2D"/>
<path d="M6.94165 4H5.47119V5.47046H6.94165V4Z" fill="#2D2D2D"/>
<path d="M8.41138 4H6.94092V5.47046H8.41138V4Z" fill="#2D2D2D"/>
<path d="M9.8811 4H8.41064V5.47046H9.8811V4Z" fill="#2D2D2D"/>
<path d="M11.2468 4H9.77637V5.47046H11.2468V4Z" fill="#2D2D2D"/>
<path d="M12.718 4H11.2476V5.47046H12.718V4Z" fill="#2D2D2D"/>
<path d="M14.1892 4H12.7188V5.47046H14.1892V4Z" fill="#2D2D2D"/>
<path d="M17.1287 4H15.6582V5.47046H17.1287V4Z" fill="#2D2D2D"/>
<path d="M20.0701 4H18.5996V5.47046H20.0701V4Z" fill="#2D2D2D"/>
<path d="M21.4348 4H19.9644V5.47046H21.4348V4Z" fill="#2D2D2D"/>
<path d="M31.6238 4H30.1533V5.47046H31.6238V4Z" fill="#2D2D2D"/>
<path d="M33.095 4H31.6245V5.47046H33.095V4Z" fill="#2D2D2D"/>
<path d="M34.5632 4H33.0928V5.47046H34.5632V4Z" fill="#2D2D2D"/>
<path d="M36.0344 4H34.564V5.47046H36.0344V4Z" fill="#2D2D2D"/>
<path d="M38.9768 4H37.5063V5.47046H38.9768V4Z" fill="#2D2D2D"/>
<path d="M43.282 4H41.8115V5.47046H43.282V4Z" fill="#2D2D2D"/>
<path d="M44.7527 4H43.2822V5.47046H44.7527V4Z" fill="#2D2D2D"/>
<path d="M46.2244 4H44.7539V5.47046H46.2244V4Z" fill="#2D2D2D"/>
<path d="M47.6926 4H46.2222V5.47046H47.6926V4Z" fill="#2D2D2D"/>
<path d="M49.1643 4H47.6938V5.47046H49.1643V4Z" fill="#2D2D2D"/>
<path d="M50.635 4H49.1646V5.47046H50.635V4Z" fill="#2D2D2D"/>
<path d="M52.0007 4H50.5303V5.47046H52.0007V4Z" fill="#2D2D2D"/>
<path d="M5.47046 5.47046H4V6.94092H5.47046V5.47046Z" fill="#2D2D2D"/>
<path d="M14.1892 5.47046H12.7188V6.94092H14.1892V5.47046Z" fill="#2D2D2D"/>
<path d="M17.1287 5.47046H15.6582V6.94092H17.1287V5.47046Z" fill="#2D2D2D"/>
<path d="M25.8474 5.47046H24.377V6.94092H25.8474V5.47046Z" fill="#2D2D2D"/>
<path d="M28.7869 5.47046H27.3164V6.94092H28.7869V5.47046Z" fill="#2D2D2D"/>
<path d="M30.2581 5.47046H28.7876V6.94092H30.2581V5.47046Z" fill="#2D2D2D"/>
<path d="M31.6238 5.47046H30.1533V6.94092H31.6238V5.47046Z" fill="#2D2D2D"/>
<path d="M37.5061 5.47046H36.0356V6.94092H37.5061V5.47046Z" fill="#2D2D2D"/>
<path d="M38.9768 5.47046H37.5063V6.94092H38.9768V5.47046Z" fill="#2D2D2D"/>
<path d="M43.282 5.47046H41.8115V6.94092H43.282V5.47046Z" fill="#2D2D2D"/>
<path d="M52.0007 5.47046H50.5303V6.94092H52.0007V5.47046Z" fill="#2D2D2D"/>
<path d="M5.47046 6.83569H4V8.30615H5.47046V6.83569Z" fill="#2D2D2D"/>
<path d="M8.41138 6.83569H6.94092V8.30615H8.41138V6.83569Z" fill="#2D2D2D"/>
<path d="M9.8811 6.83569H8.41064V8.30615H9.8811V6.83569Z" fill="#2D2D2D"/>
<path d="M11.2468 6.83569H9.77637V8.30615H11.2468V6.83569Z" fill="#2D2D2D"/>
<path d="M14.1892 6.83569H12.7188V8.30615H14.1892V6.83569Z" fill="#2D2D2D"/>
<path d="M22.905 6.83569H21.4346V8.30615H22.905V6.83569Z" fill="#2D2D2D"/>
<path d="M24.3762 6.83569H22.9058V8.30615H24.3762V6.83569Z" fill="#2D2D2D"/>
<path d="M25.8474 6.83569H24.377V8.30615H25.8474V6.83569Z" fill="#2D2D2D"/>
<path d="M37.5061 6.83569H36.0356V8.30615H37.5061V6.83569Z" fill="#2D2D2D"/>
<path d="M38.9768 6.83569H37.5063V8.30615H38.9768V6.83569Z" fill="#2D2D2D"/>
<path d="M40.4465 6.83569H38.9761V8.30615H40.4465V6.83569Z" fill="#2D2D2D"/>
<path d="M43.282 6.83569H41.8115V8.30615H43.282V6.83569Z" fill="#2D2D2D"/>
<path d="M46.2244 6.83569H44.7539V8.30615H46.2244V6.83569Z" fill="#2D2D2D"/>
<path d="M47.6926 6.83569H46.2222V8.30615H47.6926V6.83569Z" fill="#2D2D2D"/>
<path d="M49.1643 6.83569H47.6938V8.30615H49.1643V6.83569Z" fill="#2D2D2D"/>
<path d="M52.0007 6.83569H50.5303V8.30615H52.0007V6.83569Z" fill="#2D2D2D"/>
<path d="M5.47046 8.3064H4V9.77685H5.47046V8.3064Z" fill="#2D2D2D"/>
<path d="M8.41138 8.3064H6.94092V9.77685H8.41138V8.3064Z" fill="#2D2D2D"/>
<path d="M9.8811 8.3064H8.41064V9.77685H9.8811V8.3064Z" fill="#2D2D2D"/>
<path d="M11.2468 8.3064H9.77637V9.77685H11.2468V8.3064Z" fill="#2D2D2D"/>
<path d="M14.1892 8.3064H12.7188V9.77685H14.1892V8.3064Z" fill="#2D2D2D"/>
<path d="M17.1287 8.3064H15.6582V9.77685H17.1287V8.3064Z" fill="#2D2D2D"/>
<path d="M20.0701 8.3064H18.5996V9.77685H20.0701V8.3064Z" fill="#2D2D2D"/>
<path d="M27.3186 8.3064H25.8481V9.77685H27.3186V8.3064Z" fill="#2D2D2D"/>
<path d="M30.2581 8.3064H28.7876V9.77685H30.2581V8.3064Z" fill="#2D2D2D"/>
<path d="M31.6238 8.3064H30.1533V9.77685H31.6238V8.3064Z" fill="#2D2D2D"/>
<path d="M34.5632 8.3064H33.0928V9.77685H34.5632V8.3064Z" fill="#2D2D2D"/>
<path d="M38.9768 8.3064H37.5063V9.77685H38.9768V8.3064Z" fill="#2D2D2D"/>
<path d="M40.4465 8.3064H38.9761V9.77685H40.4465V8.3064Z" fill="#2D2D2D"/>
<path d="M43.282 8.3064H41.8115V9.77685H43.282V8.3064Z" fill="#2D2D2D"/>
<path d="M46.2244 8.3064H44.7539V9.77685H46.2244V8.3064Z" fill="#2D2D2D"/>
<path d="M47.6926 8.3064H46.2222V9.77685H47.6926V8.3064Z" fill="#2D2D2D"/>
<path d="M49.1643 8.3064H47.6938V9.77685H49.1643V8.3064Z" fill="#2D2D2D"/>
<path d="M52.0007 8.3064H50.5303V9.77685H52.0007V8.3064Z" fill="#2D2D2D"/>
<path d="M5.47046 9.77661H4V11.2471H5.47046V9.77661Z" fill="#2D2D2D"/>
<path d="M8.41138 9.77661H6.94092V11.2471H8.41138V9.77661Z" fill="#2D2D2D"/>
<path d="M9.8811 9.77661H8.41064V11.2471H9.8811V9.77661Z" fill="#2D2D2D"/>
<path d="M11.2468 9.77661H9.77637V11.2471H11.2468V9.77661Z" fill="#2D2D2D"/>
<path d="M14.1892 9.77661H12.7188V11.2471H14.1892V9.77661Z" fill="#2D2D2D"/>
<path d="M20.0701 9.77661H18.5996V11.2471H20.0701V9.77661Z" fill="#2D2D2D"/>
<path d="M24.3762 9.77661H22.9058V11.2471H24.3762V9.77661Z" fill="#2D2D2D"/>
<path d="M28.7869 9.77661H27.3164V11.2471H28.7869V9.77661Z" fill="#2D2D2D"/>
<path d="M33.095 9.77661H31.6245V11.2471H33.095V9.77661Z" fill="#2D2D2D"/>
<path d="M37.5061 9.77661H36.0356V11.2471H37.5061V9.77661Z" fill="#2D2D2D"/>
<path d="M40.4465 9.77661H38.9761V11.2471H40.4465V9.77661Z" fill="#2D2D2D"/>
<path d="M43.282 9.77661H41.8115V11.2471H43.282V9.77661Z" fill="#2D2D2D"/>
<path d="M46.2244 9.77661H44.7539V11.2471H46.2244V9.77661Z" fill="#2D2D2D"/>
<path d="M47.6926 9.77661H46.2222V11.2471H47.6926V9.77661Z" fill="#2D2D2D"/>
<path d="M49.1643 9.77661H47.6938V11.2471H49.1643V9.77661Z" fill="#2D2D2D"/>
<path d="M52.0007 9.77661H50.5303V11.2471H52.0007V9.77661Z" fill="#2D2D2D"/>
<path d="M5.47046 11.2473H4V12.7178H5.47046V11.2473Z" fill="#2D2D2D"/>
<path d="M14.1892 11.2471H12.7188V12.7175H14.1892V11.2471Z" fill="#2D2D2D"/>
<path d="M18.5999 11.2471H17.1294V12.7175H18.5999V11.2471Z" fill="#2D2D2D"/>
<path d="M20.0701 11.2471H18.5996V12.7175H20.0701V11.2471Z" fill="#2D2D2D"/>
<path d="M21.4348 11.2471H19.9644V12.7175H21.4348V11.2471Z" fill="#2D2D2D"/>
<path d="M25.8474 11.2471H24.377V12.7175H25.8474V11.2471Z" fill="#2D2D2D"/>
<path d="M27.3186 11.2471H25.8481V12.7175H27.3186V11.2471Z" fill="#2D2D2D"/>
<path d="M28.7869 11.2473H27.3164V12.7178H28.7869V11.2473Z" fill="#2D2D2D"/>
<path d="M30.2581 11.2471H28.7876V12.7175H30.2581V11.2471Z" fill="#2D2D2D"/>
<path d="M31.6238 11.2471H30.1533V12.7175H31.6238V11.2471Z" fill="#2D2D2D"/>
<path d="M33.095 11.2473H31.6245V12.7178H33.095V11.2473Z" fill="#2D2D2D"/>
<path d="M34.5632 11.2471H33.0928V12.7175H34.5632V11.2471Z" fill="#2D2D2D"/>
<path d="M36.0344 11.2473H34.564V12.7178H36.0344V11.2473Z" fill="#2D2D2D"/>
<path d="M40.4465 11.2471H38.9761V12.7175H40.4465V11.2471Z" fill="#2D2D2D"/>
<path d="M43.282 11.2471H41.8115V12.7175H43.282V11.2471Z" fill="#2D2D2D"/>
<path d="M52.0007 11.2473H50.5303V12.7178H52.0007V11.2473Z" fill="#2D2D2D"/>
<path d="M5.47046 12.7178H4V14.1882H5.47046V12.7178Z" fill="#2D2D2D"/>
<path d="M6.94165 12.7178H5.47119V14.1882H6.94165V12.7178Z" fill="#2D2D2D"/>
<path d="M8.41138 12.7178H6.94092V14.1882H8.41138V12.7178Z" fill="#2D2D2D"/>
<path d="M9.8811 12.7178H8.41064V14.1882H9.8811V12.7178Z" fill="#2D2D2D"/>
<path d="M11.2468 12.7178H9.77637V14.1882H11.2468V12.7178Z" fill="#2D2D2D"/>
<path d="M12.718 12.7178H11.2476V14.1882H12.718V12.7178Z" fill="#2D2D2D"/>
<path d="M14.1892 12.7178H12.7188V14.1882H14.1892V12.7178Z" fill="#2D2D2D"/>
<path d="M17.1287 12.7178H15.6582V14.1882H17.1287V12.7178Z" fill="#2D2D2D"/>
<path d="M20.0701 12.7178H18.5996V14.1882H20.0701V12.7178Z" fill="#2D2D2D"/>
<path d="M22.905 12.7178H21.4346V14.1882H22.905V12.7178Z" fill="#2D2D2D"/>
<path d="M25.8474 12.7178H24.377V14.1882H25.8474V12.7178Z" fill="#2D2D2D"/>
<path d="M28.7869 12.7178H27.3164V14.1882H28.7869V12.7178Z" fill="#2D2D2D"/>
<path d="M31.6238 12.7178H30.1533V14.1882H31.6238V12.7178Z" fill="#2D2D2D"/>
<path d="M34.5632 12.7178H33.0928V14.1882H34.5632V12.7178Z" fill="#2D2D2D"/>
<path d="M37.5061 12.7178H36.0356V14.1882H37.5061V12.7178Z" fill="#2D2D2D"/>
<path d="M40.4465 12.7178H38.9761V14.1882H40.4465V12.7178Z" fill="#2D2D2D"/>
<path d="M43.282 12.7178H41.8115V14.1882H43.282V12.7178Z" fill="#2D2D2D"/>
<path d="M44.7527 12.7178H43.2822V14.1882H44.7527V12.7178Z" fill="#2D2D2D"/>
<path d="M46.2244 12.7178H44.7539V14.1882H46.2244V12.7178Z" fill="#2D2D2D"/>
<path d="M47.6926 12.7178H46.2222V14.1882H47.6926V12.7178Z" fill="#2D2D2D"/>
<path d="M49.1643 12.7178H47.6938V14.1882H49.1643V12.7178Z" fill="#2D2D2D"/>
<path d="M50.635 12.7178H49.1646V14.1882H50.635V12.7178Z" fill="#2D2D2D"/>
<path d="M52.0007 12.7178H50.5303V14.1882H52.0007V12.7178Z" fill="#2D2D2D"/>
<path d="M17.1287 14.1882H15.6582V15.6587H17.1287V14.1882Z" fill="#2D2D2D"/>
<path d="M18.5999 14.1882H17.1294V15.6587H18.5999V14.1882Z" fill="#2D2D2D"/>
<path d="M27.3186 14.1882H25.8481V15.6587H27.3186V14.1882Z" fill="#2D2D2D"/>
<path d="M28.7869 14.1882H27.3164V15.6587H28.7869V14.1882Z" fill="#2D2D2D"/>
<path d="M30.2581 14.1882H28.7876V15.6587H30.2581V14.1882Z" fill="#2D2D2D"/>
<path d="M31.6238 14.1882H30.1533V15.6587H31.6238V14.1882Z" fill="#2D2D2D"/>
<path d="M37.5061 14.1882H36.0356V15.6587H37.5061V14.1882Z" fill="#2D2D2D"/>
<path d="M38.9768 14.1882H37.5063V15.6587H38.9768V14.1882Z" fill="#2D2D2D"/>
<path d="M5.47046 15.6587H4V17.1291H5.47046V15.6587Z" fill="#2D2D2D"/>
<path d="M8.41138 15.6587H6.94092V17.1291H8.41138V15.6587Z" fill="#2D2D2D"/>
<path d="M9.8811 15.6587H8.41064V17.1291H9.8811V15.6587Z" fill="#2D2D2D"/>
<path d="M12.718 15.6587H11.2476V17.1291H12.718V15.6587Z" fill="#2D2D2D"/>
<path d="M14.1892 15.6587H12.7188V17.1291H14.1892V15.6587Z" fill="#2D2D2D"/>
<path d="M15.657 15.6587H14.1865V17.1291H15.657V15.6587Z" fill="#2D2D2D"/>
<path d="M20.0701 15.6587H18.5996V17.1291H20.0701V15.6587Z" fill="#2D2D2D"/>
<path d="M22.905 15.6587H21.4346V17.1291H22.905V15.6587Z" fill="#2D2D2D"/>
<path d="M25.8474 15.6587H24.377V17.1291H25.8474V15.6587Z" fill="#2D2D2D"/>
<path d="M27.3186 15.6587H25.8481V17.1291H27.3186V15.6587Z" fill="#2D2D2D"/>
<path d="M28.7869 15.6587H27.3164V17.1291H28.7869V15.6587Z" fill="#2D2D2D"/>
<path d="M30.2581 15.6587H28.7876V17.1291H30.2581V15.6587Z" fill="#2D2D2D"/>
<path d="M31.6238 15.6587H30.1533V17.1291H31.6238V15.6587Z" fill="#2D2D2D"/>
<path d="M36.0344 15.6587H34.564V17.1291H36.0344V15.6587Z" fill="#2D2D2D"/>
<path d="M38.9768 15.6587H37.5063V17.1291H38.9768V15.6587Z" fill="#2D2D2D"/>
<path d="M43.282 15.6587H41.8115V17.1291H43.282V15.6587Z" fill="#2D2D2D"/>
<path d="M47.6926 15.6587H46.2222V17.1291H47.6926V15.6587Z" fill="#2D2D2D"/>
<path d="M50.635 15.6587H49.1646V17.1291H50.635V15.6587Z" fill="#2D2D2D"/>
<path d="M52.0007 15.6587H50.5303V17.1291H52.0007V15.6587Z" fill="#2D2D2D"/>
<path d="M5.47046 17.0239H4V18.4944H5.47046V17.0239Z" fill="#2D2D2D"/>
<path d="M8.41138 17.0239H6.94092V18.4944H8.41138V17.0239Z" fill="#2D2D2D"/>
<path d="M9.8811 17.0239H8.41064V18.4944H9.8811V17.0239Z" fill="#2D2D2D"/>
<path d="M11.2468 17.0239H9.77637V18.4944H11.2468V17.0239Z" fill="#2D2D2D"/>
<path d="M15.657 17.0239H14.1865V18.4944H15.657V17.0239Z" fill="#2D2D2D"/>
<path d="M17.1287 17.0239H15.6582V18.4944H17.1287V17.0239Z" fill="#2D2D2D"/>
<path d="M20.0701 17.0239H18.5996V18.4944H20.0701V17.0239Z" fill="#2D2D2D"/>
<path d="M21.4348 17.0239H19.9644V18.4944H21.4348V17.0239Z" fill="#2D2D2D"/>
<path d="M22.905 17.0239H21.4346V18.4944H22.905V17.0239Z" fill="#2D2D2D"/>
<path d="M24.3762 17.0239H22.9058V18.4944H24.3762V17.0239Z" fill="#2D2D2D"/>
<path d="M28.7869 17.0239H27.3164V18.4944H28.7869V17.0239Z" fill="#2D2D2D"/>
<path d="M30.2581 17.0239H28.7876V18.4944H30.2581V17.0239Z" fill="#2D2D2D"/>
<path d="M31.6238 17.0239H30.1533V18.4944H31.6238V17.0239Z" fill="#2D2D2D"/>
<path d="M33.095 17.0239H31.6245V18.4944H33.095V17.0239Z" fill="#2D2D2D"/>
<path d="M34.5632 17.0239H33.0928V18.4944H34.5632V17.0239Z" fill="#2D2D2D"/>
<path d="M38.9768 17.0239H37.5063V18.4944H38.9768V17.0239Z" fill="#2D2D2D"/>
<path d="M40.4465 17.0239H38.9761V18.4944H40.4465V17.0239Z" fill="#2D2D2D"/>
<path d="M43.282 17.0239H41.8115V18.4944H43.282V17.0239Z" fill="#2D2D2D"/>
<path d="M44.7527 17.0239H43.2822V18.4944H44.7527V17.0239Z" fill="#2D2D2D"/>
<path d="M47.6926 17.0239H46.2222V18.4944H47.6926V17.0239Z" fill="#2D2D2D"/>
<path d="M49.1643 17.0239H47.6938V18.4944H49.1643V17.0239Z" fill="#2D2D2D"/>
<path d="M50.635 17.0239H49.1646V18.4944H50.635V17.0239Z" fill="#2D2D2D"/>
<path d="M52.0007 17.0239H50.5303V18.4944H52.0007V17.0239Z" fill="#2D2D2D"/>
<path d="M6.94165 18.4946H5.47119V19.9651H6.94165V18.4946Z" fill="#2D2D2D"/>
<path d="M11.2468 18.4946H9.77637V19.9651H11.2468V18.4946Z" fill="#2D2D2D"/>
<path d="M14.1892 18.4946H12.7188V19.9651H14.1892V18.4946Z" fill="#2D2D2D"/>
<path d="M18.5999 18.4946H17.1294V19.9651H18.5999V18.4946Z" fill="#2D2D2D"/>
<path d="M21.4348 18.4946H19.9644V19.9651H21.4348V18.4946Z" fill="#2D2D2D"/>
<path d="M22.905 18.4946H21.4346V19.9651H22.905V18.4946Z" fill="#2D2D2D"/>
<path d="M24.3762 18.4946H22.9058V19.9651H24.3762V18.4946Z" fill="#2D2D2D"/>
<path d="M31.6238 18.4946H30.1533V19.9651H31.6238V18.4946Z" fill="#2D2D2D"/>
<path d="M34.5632 18.4946H33.0928V19.9651H34.5632V18.4946Z" fill="#2D2D2D"/>
<path d="M37.5061 18.4946H36.0356V19.9651H37.5061V18.4946Z" fill="#2D2D2D"/>
<path d="M38.9768 18.4946H37.5063V19.9651H38.9768V18.4946Z" fill="#2D2D2D"/>
<path d="M40.4465 18.4946H38.9761V19.9651H40.4465V18.4946Z" fill="#2D2D2D"/>
<path d="M43.282 18.4946H41.8115V19.9651H43.282V18.4946Z" fill="#2D2D2D"/>
<path d="M44.7527 18.4946H43.2822V19.9651H44.7527V18.4946Z" fill="#2D2D2D"/>
<path d="M46.2244 18.4946H44.7539V19.9651H46.2244V18.4946Z" fill="#2D2D2D"/>
<path d="M47.6926 18.4946H46.2222V19.9651H47.6926V18.4946Z" fill="#2D2D2D"/>
<path d="M50.635 18.4946H49.1646V19.9651H50.635V18.4946Z" fill="#2D2D2D"/>
<path d="M52.0007 18.4946H50.5303V19.9651H52.0007V18.4946Z" fill="#2D2D2D"/>
<path d="M5.47046 19.9648H4V21.4353H5.47046V19.9648Z" fill="#2D2D2D"/>
<path d="M6.94165 19.9648H5.47119V21.4353H6.94165V19.9648Z" fill="#2D2D2D"/>
<path d="M9.8811 19.9648H8.41064V21.4353H9.8811V19.9648Z" fill="#2D2D2D"/>
<path d="M15.657 19.9648H14.1865V21.4353H15.657V19.9648Z" fill="#2D2D2D"/>
<path d="M18.5999 19.9648H17.1294V21.4353H18.5999V19.9648Z" fill="#2D2D2D"/>
<path d="M20.0701 19.9648H18.5996V21.4353H20.0701V19.9648Z" fill="#2D2D2D"/>
<path d="M21.4348 19.9648H19.9644V21.4353H21.4348V19.9648Z" fill="#2D2D2D"/>
<path d="M27.3186 19.9648H25.8481V21.4353H27.3186V19.9648Z" fill="#2D2D2D"/>
<path d="M28.7869 19.9648H27.3164V21.4353H28.7869V19.9648Z" fill="#2D2D2D"/>
<path d="M34.5632 19.9648H33.0928V21.4353H34.5632V19.9648Z" fill="#2D2D2D"/>
<path d="M44.7527 19.9648H43.2822V21.4353H44.7527V19.9648Z" fill="#2D2D2D"/>
<path d="M47.6926 19.9648H46.2222V21.4353H47.6926V19.9648Z" fill="#2D2D2D"/>
<path d="M50.635 19.9648H49.1646V21.4353H50.635V19.9648Z" fill="#2D2D2D"/>
<path d="M11.2468 21.4355H9.77637V22.906H11.2468V21.4355Z" fill="#2D2D2D"/>
<path d="M12.718 21.4355H11.2476V22.906H12.718V21.4355Z" fill="#2D2D2D"/>
<path d="M14.1892 21.4355H12.7188V22.906H14.1892V21.4355Z" fill="#2D2D2D"/>
<path d="M17.1287 21.4355H15.6582V22.906H17.1287V21.4355Z" fill="#2D2D2D"/>
<path d="M18.5999 21.4355H17.1294V22.906H18.5999V21.4355Z" fill="#2D2D2D"/>
<path d="M25.8474 21.4355H24.377V22.906H25.8474V21.4355Z" fill="#2D2D2D"/>
<path d="M27.3186 21.4355H25.8481V22.906H27.3186V21.4355Z" fill="#2D2D2D"/>
<path d="M30.2581 21.4355H28.7876V22.906H30.2581V21.4355Z" fill="#2D2D2D"/>
<path d="M33.095 21.4355H31.6245V22.906H33.095V21.4355Z" fill="#2D2D2D"/>
<path d="M37.5061 21.4355H36.0356V22.906H37.5061V21.4355Z" fill="#2D2D2D"/>
<path d="M38.9768 21.4355H37.5063V22.906H38.9768V21.4355Z" fill="#2D2D2D"/>
<path d="M40.4465 21.4355H38.9761V22.906H40.4465V21.4355Z" fill="#2D2D2D"/>
<path d="M41.8108 21.4355H40.3403V22.906H41.8108V21.4355Z" fill="#2D2D2D"/>
<path d="M44.7527 21.4355H43.2822V22.906H44.7527V21.4355Z" fill="#2D2D2D"/>
<path d="M46.2244 21.4355H44.7539V22.906H46.2244V21.4355Z" fill="#2D2D2D"/>
<path d="M47.6926 21.4355H46.2222V22.906H47.6926V21.4355Z" fill="#2D2D2D"/>
<path d="M5.47046 22.906H4V24.3765H5.47046V22.906Z" fill="#2D2D2D"/>
<path d="M6.94165 22.906H5.47119V24.3765H6.94165V22.906Z" fill="#2D2D2D"/>
<path d="M8.41138 22.906H6.94092V24.3765H8.41138V22.906Z" fill="#2D2D2D"/>
<path d="M11.2468 22.906H9.77637V24.3765H11.2468V22.906Z" fill="#2D2D2D"/>
<path d="M17.1287 22.906H15.6582V24.3765H17.1287V22.906Z" fill="#2D2D2D"/>
<path d="M20.0701 22.906H18.5996V24.3765H20.0701V22.906Z" fill="#2D2D2D"/>
<path d="M22.905 22.906H21.4346V24.3765H22.905V22.906Z" fill="#2D2D2D"/>
<path d="M25.8474 22.906H24.377V24.3765H25.8474V22.906Z" fill="#2D2D2D"/>
<path d="M33.095 22.906H31.6245V24.3765H33.095V22.906Z" fill="#2D2D2D"/>
<path d="M36.0344 22.906H34.564V24.3765H36.0344V22.906Z" fill="#2D2D2D"/>
<path d="M37.5061 22.906H36.0356V24.3765H37.5061V22.906Z" fill="#2D2D2D"/>
<path d="M40.4465 22.906H38.9761V24.3765H40.4465V22.906Z" fill="#2D2D2D"/>
<path d="M44.7527 22.906H43.2822V24.3765H44.7527V22.906Z" fill="#2D2D2D"/>
<path d="M47.6926 22.906H46.2222V24.3765H47.6926V22.906Z" fill="#2D2D2D"/>
<path d="M50.635 22.906H49.1646V24.3765H50.635V22.906Z" fill="#2D2D2D"/>
<path d="M5.47046 24.3762H4V25.8467H5.47046V24.3762Z" fill="#2D2D2D"/>
<path d="M8.41138 24.3762H6.94092V25.8467H8.41138V24.3762Z" fill="#2D2D2D"/>
<path d="M11.2468 24.3762H9.77637V25.8467H11.2468V24.3762Z" fill="#2D2D2D"/>
<path d="M14.1892 24.3762H12.7188V25.8467H14.1892V24.3762Z" fill="#2D2D2D"/>
<path d="M18.5999 24.3762H17.1294V25.8467H18.5999V24.3762Z" fill="#2D2D2D"/>
<path d="M20.0701 24.3762H18.5996V25.8467H20.0701V24.3762Z" fill="#2D2D2D"/>
<path d="M21.4348 24.3762H19.9644V25.8467H21.4348V24.3762Z" fill="#2D2D2D"/>
<path d="M25.8474 24.3762H24.377V25.8467H25.8474V24.3762Z" fill="#2D2D2D"/>
<path d="M28.7869 24.3762H27.3164V25.8467H28.7869V24.3762Z" fill="#2D2D2D"/>
<path d="M31.6238 24.3762H30.1533V25.8467H31.6238V24.3762Z" fill="#2D2D2D"/>
<path d="M33.095 24.3762H31.6245V25.8467H33.095V24.3762Z" fill="#2D2D2D"/>
<path d="M36.0344 24.3762H34.564V25.8467H36.0344V24.3762Z" fill="#2D2D2D"/>
<path d="M40.4465 24.3762H38.9761V25.8467H40.4465V24.3762Z" fill="#2D2D2D"/>
<path d="M43.282 24.3762H41.8115V25.8467H43.282V24.3762Z" fill="#2D2D2D"/>
<path d="M46.2244 24.3762H44.7539V25.8467H46.2244V24.3762Z" fill="#2D2D2D"/>
<path d="M47.6926 24.3762H46.2222V25.8467H47.6926V24.3762Z" fill="#2D2D2D"/>
<path d="M49.1643 24.3762H47.6938V25.8467H49.1643V24.3762Z" fill="#2D2D2D"/>
<path d="M5.47046 25.8469H4V27.3174H5.47046V25.8469Z" fill="#2D2D2D"/>
<path d="M8.41138 25.8469H6.94092V27.3174H8.41138V25.8469Z" fill="#2D2D2D"/>
<path d="M11.2468 25.8469H9.77637V27.3174H11.2468V25.8469Z" fill="#2D2D2D"/>
<path d="M12.718 25.8469H11.2476V27.3174H12.718V25.8469Z" fill="#2D2D2D"/>
<path d="M18.5999 25.8469H17.1294V27.3174H18.5999V25.8469Z" fill="#2D2D2D"/>
<path d="M20.0701 25.8469H18.5996V27.3174H20.0701V25.8469Z" fill="#2D2D2D"/>
<path d="M22.905 25.8469H21.4346V27.3174H22.905V25.8469Z" fill="#2D2D2D"/>
<path d="M25.8474 25.8469H24.377V27.3174H25.8474V25.8469Z" fill="#2D2D2D"/>
<path d="M27.3186 25.8469H25.8481V27.3174H27.3186V25.8469Z" fill="#2D2D2D"/>
<path d="M28.7869 25.8469H27.3164V27.3174H28.7869V25.8469Z" fill="#2D2D2D"/>
<path d="M36.0344 25.8469H34.564V27.3174H36.0344V25.8469Z" fill="#2D2D2D"/>
<path d="M37.5061 25.8469H36.0356V27.3174H37.5061V25.8469Z" fill="#2D2D2D"/>
<path d="M38.9768 25.8469H37.5063V27.3174H38.9768V25.8469Z" fill="#2D2D2D"/>
<path d="M41.8108 25.8469H40.3403V27.3174H41.8108V25.8469Z" fill="#2D2D2D"/>
<path d="M43.282 25.8469H41.8115V27.3174H43.282V25.8469Z" fill="#2D2D2D"/>
<path d="M49.1643 25.8469H47.6938V27.3174H49.1643V25.8469Z" fill="#2D2D2D"/>
<path d="M5.47046 27.2124H4V28.6829H5.47046V27.2124Z" fill="#2D2D2D"/>
<path d="M8.41138 27.2124H6.94092V28.6829H8.41138V27.2124Z" fill="#2D2D2D"/>
<path d="M9.8811 27.2124H8.41064V28.6829H9.8811V27.2124Z" fill="#2D2D2D"/>
<path d="M11.2468 27.2124H9.77637V28.6829H11.2468V27.2124Z" fill="#2D2D2D"/>
<path d="M12.718 27.2124H11.2476V28.6829H12.718V27.2124Z" fill="#2D2D2D"/>
<path d="M14.1892 27.2124H12.7188V28.6829H14.1892V27.2124Z" fill="#2D2D2D"/>
<path d="M15.657 27.2124H14.1865V28.6829H15.657V27.2124Z" fill="#2D2D2D"/>
<path d="M18.5999 27.2124H17.1294V28.6829H18.5999V27.2124Z" fill="#2D2D2D"/>
<path d="M20.0701 27.2124H18.5996V28.6829H20.0701V27.2124Z" fill="#2D2D2D"/>
<path d="M24.3762 27.2124H22.9058V28.6829H24.3762V27.2124Z" fill="#2D2D2D"/>
<path d="M28.7869 27.2124H27.3164V28.6829H28.7869V27.2124Z" fill="#2D2D2D"/>
<path d="M33.095 27.2124H31.6245V28.6829H33.095V27.2124Z" fill="#2D2D2D"/>
<path d="M34.5632 27.2124H33.0928V28.6829H34.5632V27.2124Z" fill="#2D2D2D"/>
<path d="M36.0344 27.2124H34.564V28.6829H36.0344V27.2124Z" fill="#2D2D2D"/>
<path d="M37.5061 27.2124H36.0356V28.6829H37.5061V27.2124Z" fill="#2D2D2D"/>
<path d="M40.4465 27.2124H38.9761V28.6829H40.4465V27.2124Z" fill="#2D2D2D"/>
<path d="M41.8108 27.2124H40.3403V28.6829H41.8108V27.2124Z" fill="#2D2D2D"/>
<path d="M43.282 27.2124H41.8115V28.6829H43.282V27.2124Z" fill="#2D2D2D"/>
<path d="M46.2244 27.2124H44.7539V28.6829H46.2244V27.2124Z" fill="#2D2D2D"/>
<path d="M47.6926 27.2124H46.2222V28.6829H47.6926V27.2124Z" fill="#2D2D2D"/>
<path d="M49.1643 27.2124H47.6938V28.6829H49.1643V27.2124Z" fill="#2D2D2D"/>
<path d="M5.47046 28.6826H4V30.1531H5.47046V28.6826Z" fill="#2D2D2D"/>
<path d="M8.41138 28.6826H6.94092V30.1531H8.41138V28.6826Z" fill="#2D2D2D"/>
<path d="M11.2468 28.6826H9.77637V30.1531H11.2468V28.6826Z" fill="#2D2D2D"/>
<path d="M12.718 28.6826H11.2476V30.1531H12.718V28.6826Z" fill="#2D2D2D"/>
<path d="M17.1287 28.6826H15.6582V30.1531H17.1287V28.6826Z" fill="#2D2D2D"/>
<path d="M20.0701 28.6826H18.5996V30.1531H20.0701V28.6826Z" fill="#2D2D2D"/>
<path d="M21.4348 28.6826H19.9644V30.1531H21.4348V28.6826Z" fill="#2D2D2D"/>
<path d="M27.3186 28.6826H25.8481V30.1531H27.3186V28.6826Z" fill="#2D2D2D"/>
<path d="M30.2581 28.6826H28.7876V30.1531H30.2581V28.6826Z" fill="#2D2D2D"/>
<path d="M37.5061 28.6826H36.0356V30.1531H37.5061V28.6826Z" fill="#2D2D2D"/>
<path d="M38.9768 28.6826H37.5063V30.1531H38.9768V28.6826Z" fill="#2D2D2D"/>
<path d="M40.4465 28.6826H38.9761V30.1531H40.4465V28.6826Z" fill="#2D2D2D"/>
<path d="M43.282 28.6826H41.8115V30.1531H43.282V28.6826Z" fill="#2D2D2D"/>
<path d="M46.2244 28.6826H44.7539V30.1531H46.2244V28.6826Z" fill="#2D2D2D"/>
<path d="M47.6926 28.6826H46.2222V30.1531H47.6926V28.6826Z" fill="#2D2D2D"/>
<path d="M52.0007 28.6826H50.5303V30.1531H52.0007V28.6826Z" fill="#2D2D2D"/>
<path d="M5.47046 30.1528H4V31.6233H5.47046V30.1528Z" fill="#2D2D2D"/>
<path d="M9.8811 30.1528H8.41064V31.6233H9.8811V30.1528Z" fill="#2D2D2D"/>
<path d="M14.1892 30.1528H12.7188V31.6233H14.1892V30.1528Z" fill="#2D2D2D"/>
<path d="M15.657 30.1528H14.1865V31.6233H15.657V30.1528Z" fill="#2D2D2D"/>
<path d="M18.5999 30.1528H17.1294V31.6233H18.5999V30.1528Z" fill="#2D2D2D"/>
<path d="M20.0701 30.1528H18.5996V31.6233H20.0701V30.1528Z" fill="#2D2D2D"/>
<path d="M22.905 30.1528H21.4346V31.6233H22.905V30.1528Z" fill="#2D2D2D"/>
<path d="M24.3762 30.1528H22.9058V31.6233H24.3762V30.1528Z" fill="#2D2D2D"/>
<path d="M27.3186 30.1528H25.8481V31.6233H27.3186V30.1528Z" fill="#2D2D2D"/>
<path d="M28.7869 30.1528H27.3164V31.6233H28.7869V30.1528Z" fill="#2D2D2D"/>
<path d="M30.2581 30.1528H28.7876V31.6233H30.2581V30.1528Z" fill="#2D2D2D"/>
<path d="M34.5632 30.1528H33.0928V31.6233H34.5632V30.1528Z" fill="#2D2D2D"/>
<path d="M37.5061 30.1528H36.0356V31.6233H37.5061V30.1528Z" fill="#2D2D2D"/>
<path d="M43.282 30.1528H41.8115V31.6233H43.282V30.1528Z" fill="#2D2D2D"/>
<path d="M44.7527 30.1528H43.2822V31.6233H44.7527V30.1528Z" fill="#2D2D2D"/>
<path d="M46.2244 30.1528H44.7539V31.6233H46.2244V30.1528Z" fill="#2D2D2D"/>
<path d="M49.1643 30.1528H47.6938V31.6233H49.1643V30.1528Z" fill="#2D2D2D"/>
<path d="M50.635 30.1528H49.1646V31.6233H50.635V30.1528Z" fill="#2D2D2D"/>
<path d="M6.94165 31.6238H5.47119V33.0942H6.94165V31.6238Z" fill="#2D2D2D"/>
<path d="M8.41138 31.6238H6.94092V33.0942H8.41138V31.6238Z" fill="#2D2D2D"/>
<path d="M9.8811 31.6238H8.41064V33.0942H9.8811V31.6238Z" fill="#2D2D2D"/>
<path d="M11.2468 31.6238H9.77637V33.0942H11.2468V31.6238Z" fill="#2D2D2D"/>
<path d="M12.718 31.6238H11.2476V33.0942H12.718V31.6238Z" fill="#2D2D2D"/>
<path d="M15.657 31.6238H14.1865V33.0942H15.657V31.6238Z" fill="#2D2D2D"/>
<path d="M21.4348 31.6238H19.9644V33.0942H21.4348V31.6238Z" fill="#2D2D2D"/>
<path d="M25.8474 31.6238H24.377V33.0942H25.8474V31.6238Z" fill="#2D2D2D"/>
<path d="M27.3186 31.6238H25.8481V33.0942H27.3186V31.6238Z" fill="#2D2D2D"/>
<path d="M28.7869 31.6235H27.3164V33.094H28.7869V31.6235Z" fill="#2D2D2D"/>
<path d="M30.2581 31.6238H28.7876V33.0942H30.2581V31.6238Z" fill="#2D2D2D"/>
<path d="M38.9768 31.6238H37.5063V33.0942H38.9768V31.6238Z" fill="#2D2D2D"/>
<path d="M41.8108 31.6238H40.3403V33.0942H41.8108V31.6238Z" fill="#2D2D2D"/>
<path d="M43.282 31.6238H41.8115V33.0942H43.282V31.6238Z" fill="#2D2D2D"/>
<path d="M46.2244 31.6238H44.7539V33.0942H46.2244V31.6238Z" fill="#2D2D2D"/>
<path d="M52.0007 31.6235H50.5303V33.094H52.0007V31.6235Z" fill="#2D2D2D"/>
<path d="M5.47046 33.094H4V34.5645H5.47046V33.094Z" fill="#2D2D2D"/>
<path d="M9.8811 33.094H8.41064V34.5645H9.8811V33.094Z" fill="#2D2D2D"/>
<path d="M14.1892 33.094H12.7188V34.5645H14.1892V33.094Z" fill="#2D2D2D"/>
<path d="M15.657 33.094H14.1865V34.5645H15.657V33.094Z" fill="#2D2D2D"/>
<path d="M18.5999 33.094H17.1294V34.5645H18.5999V33.094Z" fill="#2D2D2D"/>
<path d="M21.4348 33.094H19.9644V34.5645H21.4348V33.094Z" fill="#2D2D2D"/>
<path d="M22.905 33.094H21.4346V34.5645H22.905V33.094Z" fill="#2D2D2D"/>
<path d="M25.8474 33.094H24.377V34.5645H25.8474V33.094Z" fill="#2D2D2D"/>
<path d="M27.3186 33.094H25.8481V34.5645H27.3186V33.094Z" fill="#2D2D2D"/>
<path d="M28.7869 33.094H27.3164V34.5645H28.7869V33.094Z" fill="#2D2D2D"/>
<path d="M30.2581 33.094H28.7876V34.5645H30.2581V33.094Z" fill="#2D2D2D"/>
<path d="M31.6238 33.094H30.1533V34.5645H31.6238V33.094Z" fill="#2D2D2D"/>
<path d="M33.095 33.094H31.6245V34.5645H33.095V33.094Z" fill="#2D2D2D"/>
<path d="M36.0344 33.094H34.564V34.5645H36.0344V33.094Z" fill="#2D2D2D"/>
<path d="M40.4465 33.094H38.9761V34.5645H40.4465V33.094Z" fill="#2D2D2D"/>
<path d="M44.7527 33.094H43.2822V34.5645H44.7527V33.094Z" fill="#2D2D2D"/>
<path d="M47.6926 33.094H46.2222V34.5645H47.6926V33.094Z" fill="#2D2D2D"/>
<path d="M49.1643 33.094H47.6938V34.5645H49.1643V33.094Z" fill="#2D2D2D"/>
<path d="M50.635 33.094H49.1646V34.5645H50.635V33.094Z" fill="#2D2D2D"/>
<path d="M5.47046 34.5645H4V36.0349H5.47046V34.5645Z" fill="#2D2D2D"/>
<path d="M12.718 34.5645H11.2476V36.0349H12.718V34.5645Z" fill="#2D2D2D"/>
<path d="M15.657 34.5645H14.1865V36.0349H15.657V34.5645Z" fill="#2D2D2D"/>
<path d="M20.0701 34.5645H18.5996V36.0349H20.0701V34.5645Z" fill="#2D2D2D"/>
<path d="M22.905 34.5645H21.4346V36.0349H22.905V34.5645Z" fill="#2D2D2D"/>
<path d="M25.8474 34.5645H24.377V36.0349H25.8474V34.5645Z" fill="#2D2D2D"/>
<path d="M28.7869 34.5645H27.3164V36.0349H28.7869V34.5645Z" fill="#2D2D2D"/>
<path d="M30.2581 34.5645H28.7876V36.0349H30.2581V34.5645Z" fill="#2D2D2D"/>
<path d="M33.095 34.5645H31.6245V36.0349H33.095V34.5645Z" fill="#2D2D2D"/>
<path d="M34.5632 34.5645H33.0928V36.0349H34.5632V34.5645Z" fill="#2D2D2D"/>
<path d="M38.9768 34.5645H37.5063V36.0349H38.9768V34.5645Z" fill="#2D2D2D"/>
<path d="M40.4465 34.5645H38.9761V36.0349H40.4465V34.5645Z" fill="#2D2D2D"/>
<path d="M43.282 34.5645H41.8115V36.0349H43.282V34.5645Z" fill="#2D2D2D"/>
<path d="M47.6926 34.5645H46.2222V36.0349H47.6926V34.5645Z" fill="#2D2D2D"/>
<path d="M52.0007 34.5645H50.5303V36.0349H52.0007V34.5645Z" fill="#2D2D2D"/>
<path d="M8.41138 36.0349H6.94092V37.5054H8.41138V36.0349Z" fill="#2D2D2D"/>
<path d="M9.8811 36.0349H8.41064V37.5054H9.8811V36.0349Z" fill="#2D2D2D"/>
<path d="M14.1892 36.0349H12.7188V37.5054H14.1892V36.0349Z" fill="#2D2D2D"/>
<path d="M18.5999 36.0349H17.1294V37.5054H18.5999V36.0349Z" fill="#2D2D2D"/>
<path d="M21.4348 36.0349H19.9644V37.5054H21.4348V36.0349Z" fill="#2D2D2D"/>
<path d="M24.3762 36.0349H22.9058V37.5054H24.3762V36.0349Z" fill="#2D2D2D"/>
<path d="M25.8474 36.0349H24.377V37.5054H25.8474V36.0349Z" fill="#2D2D2D"/>
<path d="M31.6238 36.0349H30.1533V37.5054H31.6238V36.0349Z" fill="#2D2D2D"/>
<path d="M34.5632 36.0349H33.0928V37.5054H34.5632V36.0349Z" fill="#2D2D2D"/>
<path d="M36.0344 36.0349H34.564V37.5054H36.0344V36.0349Z" fill="#2D2D2D"/>
<path d="M37.5061 36.0349H36.0356V37.5054H37.5061V36.0349Z" fill="#2D2D2D"/>
<path d="M38.9768 36.0349H37.5063V37.5054H38.9768V36.0349Z" fill="#2D2D2D"/>
<path d="M40.4465 36.0349H38.9761V37.5054H40.4465V36.0349Z" fill="#2D2D2D"/>
<path d="M43.282 36.0349H41.8115V37.5054H43.282V36.0349Z" fill="#2D2D2D"/>
<path d="M44.7527 36.0349H43.2822V37.5054H44.7527V36.0349Z" fill="#2D2D2D"/>
<path d="M49.1643 36.0349H47.6938V37.5054H49.1643V36.0349Z" fill="#2D2D2D"/>
<path d="M50.635 36.0349H49.1646V37.5054H50.635V36.0349Z" fill="#2D2D2D"/>
<path d="M52.0007 36.0349H50.5303V37.5054H52.0007V36.0349Z" fill="#2D2D2D"/>
<path d="M6.94165 37.4006H5.47119V38.8711H6.94165V37.4006Z" fill="#2D2D2D"/>
<path d="M9.8811 37.4006H8.41064V38.8711H9.8811V37.4006Z" fill="#2D2D2D"/>
<path d="M17.1287 37.4006H15.6582V38.8711H17.1287V37.4006Z" fill="#2D2D2D"/>
<path d="M18.5999 37.4006H17.1294V38.8711H18.5999V37.4006Z" fill="#2D2D2D"/>
<path d="M21.4348 37.4006H19.9644V38.8711H21.4348V37.4006Z" fill="#2D2D2D"/>
<path d="M25.8474 37.4006H24.377V38.8711H25.8474V37.4006Z" fill="#2D2D2D"/>
<path d="M28.7869 37.4006H27.3164V38.8711H28.7869V37.4006Z" fill="#2D2D2D"/>
<path d="M31.6238 37.4006H30.1533V38.8711H31.6238V37.4006Z" fill="#2D2D2D"/>
<path d="M34.5632 37.4006H33.0928V38.8711H34.5632V37.4006Z" fill="#2D2D2D"/>
<path d="M38.9768 37.4006H37.5063V38.8711H38.9768V37.4006Z" fill="#2D2D2D"/>
<path d="M41.8108 37.4006H40.3403V38.8711H41.8108V37.4006Z" fill="#2D2D2D"/>
<path d="M44.7527 37.4006H43.2822V38.8711H44.7527V37.4006Z" fill="#2D2D2D"/>
<path d="M46.2244 37.4006H44.7539V38.8711H46.2244V37.4006Z" fill="#2D2D2D"/>
<path d="M47.6926 37.4006H46.2222V38.8711H47.6926V37.4006Z" fill="#2D2D2D"/>
<path d="M52.0007 37.4006H50.5303V38.8711H52.0007V37.4006Z" fill="#2D2D2D"/>
<path d="M5.47046 38.8706H4V40.3411H5.47046V38.8706Z" fill="#2D2D2D"/>
<path d="M11.2468 38.8706H9.77637V40.3411H11.2468V38.8706Z" fill="#2D2D2D"/>
<path d="M14.1892 38.8706H12.7188V40.3411H14.1892V38.8706Z" fill="#2D2D2D"/>
<path d="M17.1287 38.8706H15.6582V40.3411H17.1287V38.8706Z" fill="#2D2D2D"/>
<path d="M18.5999 38.8706H17.1294V40.3411H18.5999V38.8706Z" fill="#2D2D2D"/>
<path d="M24.3762 38.8706H22.9058V40.3411H24.3762V38.8706Z" fill="#2D2D2D"/>
<path d="M25.8474 38.8706H24.377V40.3411H25.8474V38.8706Z" fill="#2D2D2D"/>
<path d="M30.2581 38.8706H28.7876V40.3411H30.2581V38.8706Z" fill="#2D2D2D"/>
<path d="M37.5061 38.8706H36.0356V40.3411H37.5061V38.8706Z" fill="#2D2D2D"/>
<path d="M40.4465 38.8706H38.9761V40.3411H40.4465V38.8706Z" fill="#2D2D2D"/>
<path d="M41.8108 38.8706H40.3403V40.3411H41.8108V38.8706Z" fill="#2D2D2D"/>
<path d="M43.282 38.8706H41.8115V40.3411H43.282V38.8706Z" fill="#2D2D2D"/>
<path d="M44.7527 38.8706H43.2822V40.3411H44.7527V38.8706Z" fill="#2D2D2D"/>
<path d="M46.2244 38.8706H44.7539V40.3411H46.2244V38.8706Z" fill="#2D2D2D"/>
<path d="M52.0007 38.8706H50.5303V40.3411H52.0007V38.8706Z" fill="#2D2D2D"/>
<path d="M17.1287 40.3413H15.6582V41.8118H17.1287V40.3413Z" fill="#2D2D2D"/>
<path d="M21.4348 40.3413H19.9644V41.8118H21.4348V40.3413Z" fill="#2D2D2D"/>
<path d="M24.3762 40.3413H22.9058V41.8118H24.3762V40.3413Z" fill="#2D2D2D"/>
<path d="M25.8474 40.3413H24.377V41.8118H25.8474V40.3413Z" fill="#2D2D2D"/>
<path d="M27.3186 40.3413H25.8481V41.8118H27.3186V40.3413Z" fill="#2D2D2D"/>
<path d="M28.7869 40.3413H27.3164V41.8118H28.7869V40.3413Z" fill="#2D2D2D"/>
<path d="M31.6238 40.3413H30.1533V41.8118H31.6238V40.3413Z" fill="#2D2D2D"/>
<path d="M33.095 40.3413H31.6245V41.8118H33.095V40.3413Z" fill="#2D2D2D"/>
<path d="M36.0344 40.3413H34.564V41.8118H36.0344V40.3413Z" fill="#2D2D2D"/>
<path d="M38.9768 40.3413H37.5063V41.8118H38.9768V40.3413Z" fill="#2D2D2D"/>
<path d="M40.4465 40.3413H38.9761V41.8118H40.4465V40.3413Z" fill="#2D2D2D"/>
<path d="M46.2244 40.3413H44.7539V41.8118H46.2244V40.3413Z" fill="#2D2D2D"/>
<path d="M47.6926 40.3413H46.2222V41.8118H47.6926V40.3413Z" fill="#2D2D2D"/>
<path d="M50.635 40.3413H49.1646V41.8118H50.635V40.3413Z" fill="#2D2D2D"/>
<path d="M5.47046 41.8115H4V43.282H5.47046V41.8115Z" fill="#2D2D2D"/>
<path d="M6.94165 41.8118H5.47119V43.2822H6.94165V41.8118Z" fill="#2D2D2D"/>
<path d="M8.41138 41.8118H6.94092V43.2822H8.41138V41.8118Z" fill="#2D2D2D"/>
<path d="M9.8811 41.8118H8.41064V43.2822H9.8811V41.8118Z" fill="#2D2D2D"/>
<path d="M11.2468 41.8118H9.77637V43.2822H11.2468V41.8118Z" fill="#2D2D2D"/>
<path d="M12.718 41.8118H11.2476V43.2822H12.718V41.8118Z" fill="#2D2D2D"/>
<path d="M14.1892 41.8118H12.7188V43.2822H14.1892V41.8118Z" fill="#2D2D2D"/>
<path d="M17.1287 41.8115H15.6582V43.282H17.1287V41.8115Z" fill="#2D2D2D"/>
<path d="M20.0701 41.8118H18.5996V43.2822H20.0701V41.8118Z" fill="#2D2D2D"/>
<path d="M21.4348 41.8118H19.9644V43.2822H21.4348V41.8118Z" fill="#2D2D2D"/>
<path d="M22.905 41.8118H21.4346V43.2822H22.905V41.8118Z" fill="#2D2D2D"/>
<path d="M25.8474 41.8118H24.377V43.2822H25.8474V41.8118Z" fill="#2D2D2D"/>
<path d="M28.7869 41.8115H27.3164V43.282H28.7869V41.8115Z" fill="#2D2D2D"/>
<path d="M33.095 41.8115H31.6245V43.282H33.095V41.8115Z" fill="#2D2D2D"/>
<path d="M36.0344 41.8115H34.564V43.282H36.0344V41.8115Z" fill="#2D2D2D"/>
<path d="M38.9768 41.8118H37.5063V43.2822H38.9768V41.8118Z" fill="#2D2D2D"/>
<path d="M40.4465 41.8118H38.9761V43.2822H40.4465V41.8118Z" fill="#2D2D2D"/>
<path d="M43.282 41.8118H41.8115V43.2822H43.282V41.8118Z" fill="#2D2D2D"/>
<path d="M46.2244 41.8118H44.7539V43.2822H46.2244V41.8118Z" fill="#2D2D2D"/>
<path d="M5.47046 43.2822H4V44.7527H5.47046V43.2822Z" fill="#2D2D2D"/>
<path d="M14.1892 43.2825H12.7188V44.7529H14.1892V43.2825Z" fill="#2D2D2D"/>
<path d="M17.1287 43.2822H15.6582V44.7527H17.1287V43.2822Z" fill="#2D2D2D"/>
<path d="M18.5999 43.2825H17.1294V44.7529H18.5999V43.2825Z" fill="#2D2D2D"/>
<path d="M20.0701 43.2825H18.5996V44.7529H20.0701V43.2825Z" fill="#2D2D2D"/>
<path d="M21.4348 43.2825H19.9644V44.7529H21.4348V43.2825Z" fill="#2D2D2D"/>
<path d="M22.905 43.2825H21.4346V44.7529H22.905V43.2825Z" fill="#2D2D2D"/>
<path d="M24.3762 43.2822H22.9058V44.7527H24.3762V43.2822Z" fill="#2D2D2D"/>
<path d="M27.3186 43.2825H25.8481V44.7529H27.3186V43.2825Z" fill="#2D2D2D"/>
<path d="M28.7869 43.2822H27.3164V44.7527H28.7869V43.2822Z" fill="#2D2D2D"/>
<path d="M31.6238 43.2825H30.1533V44.7529H31.6238V43.2825Z" fill="#2D2D2D"/>
<path d="M34.5632 43.2825H33.0928V44.7529H34.5632V43.2825Z" fill="#2D2D2D"/>
<path d="M36.0344 43.2822H34.564V44.7527H36.0344V43.2822Z" fill="#2D2D2D"/>
<path d="M38.9768 43.2825H37.5063V44.7529H38.9768V43.2825Z" fill="#2D2D2D"/>
<path d="M40.4465 43.2825H38.9761V44.7529H40.4465V43.2825Z" fill="#2D2D2D"/>
<path d="M46.2244 43.2825H44.7539V44.7529H46.2244V43.2825Z" fill="#2D2D2D"/>
<path d="M47.6926 43.2822H46.2222V44.7527H47.6926V43.2822Z" fill="#2D2D2D"/>
<path d="M49.1643 43.2825H47.6938V44.7529H49.1643V43.2825Z" fill="#2D2D2D"/>
<path d="M50.635 43.2825H49.1646V44.7529H50.635V43.2825Z" fill="#2D2D2D"/>
<path d="M5.47046 44.7527H4V46.2231H5.47046V44.7527Z" fill="#2D2D2D"/>
<path d="M8.41138 44.7524H6.94092V46.2229H8.41138V44.7524Z" fill="#2D2D2D"/>
<path d="M9.8811 44.7524H8.41064V46.2229H9.8811V44.7524Z" fill="#2D2D2D"/>
<path d="M11.2468 44.7524H9.77637V46.2229H11.2468V44.7524Z" fill="#2D2D2D"/>
<path d="M14.1892 44.7524H12.7188V46.2229H14.1892V44.7524Z" fill="#2D2D2D"/>
<path d="M18.5999 44.7524H17.1294V46.2229H18.5999V44.7524Z" fill="#2D2D2D"/>
<path d="M24.3762 44.7527H22.9058V46.2231H24.3762V44.7527Z" fill="#2D2D2D"/>
<path d="M28.7869 44.7527H27.3164V46.2231H28.7869V44.7527Z" fill="#2D2D2D"/>
<path d="M31.6238 44.7524H30.1533V46.2229H31.6238V44.7524Z" fill="#2D2D2D"/>
<path d="M33.095 44.7527H31.6245V46.2231H33.095V44.7527Z" fill="#2D2D2D"/>
<path d="M36.0344 44.7527H34.564V46.2231H36.0344V44.7527Z" fill="#2D2D2D"/>
<path d="M38.9768 44.7524H37.5063V46.2229H38.9768V44.7524Z" fill="#2D2D2D"/>
<path d="M40.4465 44.7524H38.9761V46.2229H40.4465V44.7524Z" fill="#2D2D2D"/>
<path d="M41.8108 44.7524H40.3403V46.2229H41.8108V44.7524Z" fill="#2D2D2D"/>
<path d="M43.282 44.7524H41.8115V46.2229H43.282V44.7524Z" fill="#2D2D2D"/>
<path d="M44.7527 44.7527H43.2822V46.2231H44.7527V44.7527Z" fill="#2D2D2D"/>
<path d="M46.2244 44.7524H44.7539V46.2229H46.2244V44.7524Z" fill="#2D2D2D"/>
<path d="M49.1643 44.7524H47.6938V46.2229H49.1643V44.7524Z" fill="#2D2D2D"/>
<path d="M52.0007 44.7527H50.5303V46.2231H52.0007V44.7527Z" fill="#2D2D2D"/>
<path d="M5.47046 46.2231H4V47.6936H5.47046V46.2231Z" fill="#2D2D2D"/>
<path d="M8.41138 46.2231H6.94092V47.6936H8.41138V46.2231Z" fill="#2D2D2D"/>
<path d="M9.8811 46.2231H8.41064V47.6936H9.8811V46.2231Z" fill="#2D2D2D"/>
<path d="M11.2468 46.2231H9.77637V47.6936H11.2468V46.2231Z" fill="#2D2D2D"/>
<path d="M14.1892 46.2231H12.7188V47.6936H14.1892V46.2231Z" fill="#2D2D2D"/>
<path d="M17.1287 46.2231H15.6582V47.6936H17.1287V46.2231Z" fill="#2D2D2D"/>
<path d="M18.5999 46.2231H17.1294V47.6936H18.5999V46.2231Z" fill="#2D2D2D"/>
<path d="M22.905 46.2231H21.4346V47.6936H22.905V46.2231Z" fill="#2D2D2D"/>
<path d="M25.8474 46.2231H24.377V47.6936H25.8474V46.2231Z" fill="#2D2D2D"/>
<path d="M27.3186 46.2231H25.8481V47.6936H27.3186V46.2231Z" fill="#2D2D2D"/>
<path d="M34.5632 46.2231H33.0928V47.6936H34.5632V46.2231Z" fill="#2D2D2D"/>
<path d="M37.5061 46.2231H36.0356V47.6936H37.5061V46.2231Z" fill="#2D2D2D"/>
<path d="M44.7527 46.2231H43.2822V47.6936H44.7527V46.2231Z" fill="#2D2D2D"/>
<path d="M47.6926 46.2231H46.2222V47.6936H47.6926V46.2231Z" fill="#2D2D2D"/>
<path d="M52.0007 46.2231H50.5303V47.6936H52.0007V46.2231Z" fill="#2D2D2D"/>
<path d="M5.47046 47.5884H4V49.0588H5.47046V47.5884Z" fill="#2D2D2D"/>
<path d="M8.41138 47.5884H6.94092V49.0588H8.41138V47.5884Z" fill="#2D2D2D"/>
<path d="M9.8811 47.5884H8.41064V49.0588H9.8811V47.5884Z" fill="#2D2D2D"/>
<path d="M11.2468 47.5884H9.77637V49.0588H11.2468V47.5884Z" fill="#2D2D2D"/>
<path d="M14.1892 47.5884H12.7188V49.0588H14.1892V47.5884Z" fill="#2D2D2D"/>
<path d="M17.1287 47.5884H15.6582V49.0588H17.1287V47.5884Z" fill="#2D2D2D"/>
<path d="M18.5999 47.5884H17.1294V49.0588H18.5999V47.5884Z" fill="#2D2D2D"/>
<path d="M20.0701 47.5884H18.5996V49.0588H20.0701V47.5884Z" fill="#2D2D2D"/>
<path d="M21.4348 47.5884H19.9644V49.0588H21.4348V47.5884Z" fill="#2D2D2D"/>
<path d="M24.3762 47.5884H22.9058V49.0588H24.3762V47.5884Z" fill="#2D2D2D"/>
<path d="M25.8474 47.5884H24.377V49.0588H25.8474V47.5884Z" fill="#2D2D2D"/>
<path d="M27.3186 47.5884H25.8481V49.0588H27.3186V47.5884Z" fill="#2D2D2D"/>
<path d="M30.2581 47.5884H28.7876V49.0588H30.2581V47.5884Z" fill="#2D2D2D"/>
<path d="M31.6238 47.5884H30.1533V49.0588H31.6238V47.5884Z" fill="#2D2D2D"/>
<path d="M37.5061 47.5884H36.0356V49.0588H37.5061V47.5884Z" fill="#2D2D2D"/>
<path d="M38.9768 47.5884H37.5063V49.0588H38.9768V47.5884Z" fill="#2D2D2D"/>
<path d="M43.282 47.5884H41.8115V49.0588H43.282V47.5884Z" fill="#2D2D2D"/>
<path d="M44.7527 47.5884H43.2822V49.0588H44.7527V47.5884Z" fill="#2D2D2D"/>
<path d="M49.1643 47.5884H47.6938V49.0588H49.1643V47.5884Z" fill="#2D2D2D"/>
<path d="M5.47046 49.0591H4V50.5295H5.47046V49.0591Z" fill="#2D2D2D"/>
<path d="M14.1892 49.0591H12.7188V50.5295H14.1892V49.0591Z" fill="#2D2D2D"/>
<path d="M20.0701 49.0591H18.5996V50.5295H20.0701V49.0591Z" fill="#2D2D2D"/>
<path d="M24.3762 49.0591H22.9058V50.5295H24.3762V49.0591Z" fill="#2D2D2D"/>
<path d="M25.8474 49.0591H24.377V50.5295H25.8474V49.0591Z" fill="#2D2D2D"/>
<path d="M27.3186 49.0591H25.8481V50.5295H27.3186V49.0591Z" fill="#2D2D2D"/>
<path d="M30.2581 49.0591H28.7876V50.5295H30.2581V49.0591Z" fill="#2D2D2D"/>
<path d="M31.6238 49.0591H30.1533V50.5295H31.6238V49.0591Z" fill="#2D2D2D"/>
<path d="M33.095 49.0591H31.6245V50.5295H33.095V49.0591Z" fill="#2D2D2D"/>
<path d="M37.5061 49.0591H36.0356V50.5295H37.5061V49.0591Z" fill="#2D2D2D"/>
<path d="M40.4465 49.0591H38.9761V50.5295H40.4465V49.0591Z" fill="#2D2D2D"/>
<path d="M41.8108 49.0591H40.3403V50.5295H41.8108V49.0591Z" fill="#2D2D2D"/>
<path d="M44.7527 49.0591H43.2822V50.5295H44.7527V49.0591Z" fill="#2D2D2D"/>
<path d="M46.2244 49.0591H44.7539V50.5295H46.2244V49.0591Z" fill="#2D2D2D"/>
<path d="M52.0007 49.0591H50.5303V50.5295H52.0007V49.0591Z" fill="#2D2D2D"/>
<path d="M5.47046 50.5293H4V51.9998H5.47046V50.5293Z" fill="#2D2D2D"/>
<path d="M6.94165 50.5295H5.47119V52H6.94165V50.5295Z" fill="#2D2D2D"/>
<path d="M8.41138 50.5295H6.94092V52H8.41138V50.5295Z" fill="#2D2D2D"/>
<path d="M9.8811 50.5295H8.41064V52H9.8811V50.5295Z" fill="#2D2D2D"/>
<path d="M11.2468 50.5295H9.77637V52H11.2468V50.5295Z" fill="#2D2D2D"/>
<path d="M12.718 50.5295H11.2476V52H12.718V50.5295Z" fill="#2D2D2D"/>
<path d="M14.1892 50.5295H12.7188V52H14.1892V50.5295Z" fill="#2D2D2D"/>
<path d="M17.1287 50.5293H15.6582V51.9998H17.1287V50.5293Z" fill="#2D2D2D"/>
<path d="M20.0701 50.5295H18.5996V52H20.0701V50.5295Z" fill="#2D2D2D"/>
<path d="M22.905 50.5295H21.4346V52H22.905V50.5295Z" fill="#2D2D2D"/>
<path d="M30.2581 50.5295H28.7876V52H30.2581V50.5295Z" fill="#2D2D2D"/>
<path d="M31.6238 50.5295H30.1533V52H31.6238V50.5295Z" fill="#2D2D2D"/>
<path d="M36.0344 50.5293H34.564V51.9998H36.0344V50.5293Z" fill="#2D2D2D"/>
<path d="M38.9768 50.5295H37.5063V52H38.9768V50.5295Z" fill="#2D2D2D"/>
<path d="M41.8108 50.5295H40.3403V52H41.8108V50.5295Z" fill="#2D2D2D"/>
<path d="M46.2244 50.5295H44.7539V52H46.2244V50.5295Z" fill="#2D2D2D"/>
<path d="M49.1643 50.5295H47.6938V52H49.1643V50.5295Z" fill="#2D2D2D"/>
<path d="M63.95 4.69604V12.8296H62.8886V4.69604H63.95ZM66.5643 4.69604V5.57866H60.2798V4.69604H66.5643ZM70.5417 11.7961V8.68461C70.5417 8.44626 70.4933 8.23957 70.3965 8.06454C70.3034 7.88578 70.1618 7.74798 69.9719 7.65115C69.782 7.55433 69.5474 7.50591 69.268 7.50591C69.0074 7.50591 68.7783 7.5506 68.5809 7.63998C68.3873 7.72936 68.2346 7.84667 68.1229 7.99191C68.0149 8.13716 67.9609 8.29357 67.9609 8.46116H66.9274C66.9274 8.24516 66.9833 8.03102 67.095 7.81874C67.2067 7.60646 67.3669 7.41467 67.5754 7.24336C67.7877 7.06832 68.0409 6.93053 68.3351 6.82998C68.6331 6.7257 68.9645 6.67356 69.3295 6.67356C69.7689 6.67356 70.1563 6.74805 70.4914 6.89701C70.8303 7.04598 71.0947 7.27129 71.2847 7.57295C71.4783 7.87088 71.5752 8.24516 71.5752 8.69578V11.5112C71.5752 11.7123 71.5919 11.9265 71.6254 12.1537C71.6627 12.3808 71.7167 12.5763 71.7874 12.7402V12.8296H70.7093C70.6572 12.7104 70.6162 12.5521 70.5864 12.3548C70.5566 12.1537 70.5417 11.9674 70.5417 11.7961ZM70.7205 9.16502L70.7316 9.89123H69.687C69.3928 9.89123 69.1303 9.91544 68.8994 9.96385C68.6685 10.0085 68.4748 10.0774 68.3184 10.1705C68.162 10.2636 68.0428 10.381 67.9609 10.5225C67.8789 10.6603 67.838 10.8223 67.838 11.0085C67.838 11.1984 67.8808 11.3716 67.9665 11.528C68.0521 11.6844 68.1806 11.8092 68.3519 11.9023C68.5269 11.9917 68.7411 12.0363 68.9943 12.0363C69.3109 12.0363 69.5902 11.9693 69.8323 11.8352C70.0743 11.7012 70.2661 11.5373 70.4076 11.3437C70.5529 11.15 70.6311 10.9619 70.6423 10.7794L71.0836 11.2766C71.0575 11.433 70.9867 11.6062 70.8713 11.7961C70.7558 11.9861 70.6013 12.1686 70.4076 12.3436C70.2177 12.5149 69.9905 12.6583 69.7261 12.7737C69.4654 12.8855 69.1712 12.9413 68.8435 12.9413C68.4338 12.9413 68.0745 12.8612 67.7653 12.7011C67.46 12.541 67.2216 12.3268 67.0503 12.0587C66.8827 11.7868 66.7989 11.4833 66.7989 11.1481C66.7989 10.8241 66.8622 10.5392 66.9889 10.2934C67.1155 10.0439 67.298 9.83723 67.5363 9.67337C67.7747 9.50578 68.0614 9.37916 68.3966 9.29351C68.7318 9.20785 69.106 9.16502 69.5194 9.16502H70.7205ZM69.8323 5.80211H69.0893L69.0837 4.95301C69.2736 4.94183 69.4282 4.92321 69.5474 4.89714C69.6665 4.86735 69.754 4.82452 69.8099 4.76866C69.8658 4.70907 69.8937 4.63087 69.8937 4.53404C69.8937 4.45583 69.8695 4.39066 69.8211 4.33852C69.7727 4.28266 69.7056 4.23797 69.62 4.20445C69.5343 4.16721 69.4356 4.14114 69.3239 4.12624C69.2122 4.11135 69.093 4.1039 68.9664 4.1039L69.0055 3.51176C69.2811 3.51176 69.5231 3.53596 69.7317 3.58438C69.944 3.63279 70.1209 3.70355 70.2624 3.79666C70.4076 3.88976 70.5156 4.00148 70.5864 4.13183C70.6609 4.25845 70.6981 4.39997 70.6981 4.55638C70.6981 4.83942 70.6087 5.04611 70.43 5.17645C70.2512 5.30308 70.0538 5.38128 69.8378 5.41108L69.8323 5.80211ZM74.3236 6.78529V12.8296H73.2845V6.78529H74.3236ZM73.2063 5.18204C73.2063 5.01445 73.2566 4.87294 73.3572 4.75749C73.4614 4.64204 73.6141 4.58431 73.8152 4.58431C74.0126 4.58431 74.1634 4.64204 74.2677 4.75749C74.3757 4.87294 74.4297 5.01445 74.4297 5.18204C74.4297 5.34218 74.3757 5.47997 74.2677 5.59542C74.1634 5.70715 74.0126 5.76301 73.8152 5.76301C73.6141 5.76301 73.4614 5.70715 73.3572 5.59542C73.2566 5.47997 73.2063 5.34218 73.2063 5.18204ZM84.4794 6.29929H85.2726C85.2726 6.70522 85.2186 7.04598 85.1106 7.32157C85.0063 7.59715 84.822 7.80384 84.5576 7.94164C84.2931 8.07943 83.9207 8.14833 83.4403 8.14833V7.5115C83.7755 7.5115 84.0157 7.47053 84.1609 7.3886C84.3062 7.30295 84.3956 7.17074 84.4291 6.99198C84.4626 6.81322 84.4794 6.58232 84.4794 6.29929ZM82.5186 11.433V6.78529H83.5576V12.8296H82.5689L82.5186 11.433ZM82.7141 10.1594L83.1442 10.1482C83.1442 10.5504 83.1014 10.9228 83.0158 11.2654C82.9338 11.6043 82.7998 11.8986 82.6135 12.1481C82.4273 12.3976 82.1834 12.5931 81.8818 12.7346C81.5801 12.8724 81.2133 12.9413 80.7813 12.9413C80.4871 12.9413 80.2171 12.8985 79.9713 12.8128C79.7292 12.7272 79.5206 12.595 79.3456 12.4162C79.1706 12.2374 79.0346 12.0047 78.9378 11.7179C78.8447 11.4312 78.7982 11.0867 78.7982 10.6845V6.78529H79.8316V10.6956C79.8316 10.9675 79.8614 11.1928 79.921 11.3716C79.9843 11.5466 80.0681 11.6863 80.1724 11.7906C80.2804 11.8911 80.3995 11.9619 80.5299 12.0028C80.664 12.0438 80.8017 12.0643 80.9433 12.0643C81.3827 12.0643 81.7309 11.9805 81.9879 11.8129C82.2449 11.6416 82.4292 11.4125 82.5409 11.1258C82.6564 10.8353 82.7141 10.5132 82.7141 10.1594ZM80.7031 6.0088L81.7868 4.36645H83.0325L81.5354 6.0088H80.7031ZM86.9373 8.07571V12.8296H85.9038V6.78529H86.8814L86.9373 8.07571ZM86.6915 9.5784L86.2614 9.56165C86.2651 9.14826 86.3265 8.76654 86.4457 8.41647C86.5649 8.06267 86.7325 7.75543 86.9485 7.49474C87.1645 7.23405 87.4214 7.03294 87.7194 6.89143C88.021 6.74619 88.3543 6.67356 88.7193 6.67356C89.0172 6.67356 89.2854 6.71453 89.5237 6.79646C89.7621 6.87467 89.965 7.00129 90.1326 7.17632C90.3039 7.35136 90.4343 7.57853 90.5237 7.85784C90.613 8.13343 90.6577 8.47047 90.6577 8.86895V12.8296H89.6187V8.85778C89.6187 8.54123 89.5721 8.28798 89.479 8.09805C89.3859 7.9044 89.25 7.76474 89.0712 7.67909C88.8925 7.58971 88.6727 7.54502 88.4121 7.54502C88.1551 7.54502 87.9205 7.59902 87.7082 7.70702C87.4996 7.81502 87.319 7.96398 87.1663 8.15392C87.0174 8.34385 86.9 8.56171 86.8144 8.8075C86.7325 9.04957 86.6915 9.30654 86.6915 9.5784ZM96.1434 6.78529H97.0819V12.7011C97.0819 13.2337 96.9739 13.688 96.7579 14.0641C96.5419 14.4403 96.2402 14.7252 95.8529 14.9188C95.4693 15.1162 95.0262 15.2149 94.5234 15.2149C94.3148 15.2149 94.069 15.1814 93.786 15.1144C93.5067 15.051 93.2311 14.9412 92.9592 14.7848C92.6911 14.6321 92.4658 14.4254 92.2833 14.1647L92.8252 13.5502C93.0784 13.8556 93.3428 14.0679 93.6184 14.187C93.8977 14.3062 94.1733 14.3658 94.4452 14.3658C94.7729 14.3658 95.0559 14.3044 95.2943 14.1815C95.5326 14.0586 95.717 13.8761 95.8473 13.634C95.9814 13.3957 96.0484 13.1015 96.0484 12.7514V8.11481L96.1434 6.78529ZM91.9817 9.87447V9.75716C91.9817 9.29537 92.0357 8.8764 92.1437 8.50026C92.2554 8.1204 92.4137 7.79453 92.6185 7.52267C92.827 7.25081 93.0784 7.04226 93.3726 6.89701C93.6668 6.74805 93.9983 6.67356 94.367 6.67356C94.7468 6.67356 95.0783 6.7406 95.3613 6.87467C95.6481 7.00501 95.8902 7.19681 96.0875 7.45005C96.2886 7.69957 96.4469 8.00122 96.5624 8.35502C96.6778 8.70881 96.7579 9.10916 96.8026 9.55606V10.07C96.7616 10.5132 96.6815 10.9117 96.5624 11.2654C96.4469 11.6192 96.2886 11.9209 96.0875 12.1704C95.8902 12.4199 95.6481 12.6117 95.3613 12.7458C95.0746 12.8761 94.7394 12.9413 94.3558 12.9413C93.9946 12.9413 93.6668 12.865 93.3726 12.7123C93.0821 12.5596 92.8326 12.3454 92.6241 12.0699C92.4155 11.7943 92.2554 11.4703 92.1437 11.0979C92.0357 10.7217 91.9817 10.3139 91.9817 9.87447ZM93.0151 9.75716V9.87447C93.0151 10.1761 93.0449 10.4592 93.1045 10.7236C93.1678 10.988 93.2628 11.2208 93.3894 11.4219C93.5197 11.623 93.6855 11.7812 93.8866 11.8967C94.0877 12.0084 94.3279 12.0643 94.6072 12.0643C94.9498 12.0643 95.2328 11.9917 95.4563 11.8464C95.6797 11.7012 95.8566 11.5094 95.987 11.271C96.1211 11.0327 96.2253 10.7739 96.2998 10.4945V9.14826C96.2588 8.94344 96.1955 8.74606 96.1099 8.55612C96.0279 8.36247 95.9199 8.19116 95.7859 8.04219C95.6555 7.8895 95.4935 7.76847 95.2999 7.67909C95.1062 7.58971 94.879 7.54502 94.6184 7.54502C94.3353 7.54502 94.0914 7.6046 93.8866 7.72378C93.6855 7.83922 93.5197 7.99936 93.3894 8.20419C93.2628 8.4053 93.1678 8.63992 93.1045 8.90806C93.0449 9.17247 93.0151 9.45551 93.0151 9.75716ZM105.299 11.6565V4.24914H106.338V12.8296H105.389L105.299 11.6565ZM101.232 9.87447V9.75716C101.232 9.29537 101.288 8.8764 101.4 8.50026C101.515 8.1204 101.677 7.79453 101.886 7.52267C102.098 7.25081 102.35 7.04226 102.64 6.89701C102.934 6.74805 103.262 6.67356 103.623 6.67356C104.003 6.67356 104.335 6.7406 104.618 6.87467C104.904 7.00501 105.147 7.19681 105.344 7.45005C105.545 7.69957 105.703 8.00122 105.819 8.35502C105.934 8.70881 106.014 9.10916 106.059 9.55606V10.07C106.018 10.5132 105.938 10.9117 105.819 11.2654C105.703 11.6192 105.545 11.9209 105.344 12.1704C105.147 12.4199 104.904 12.6117 104.618 12.7458C104.331 12.8761 103.996 12.9413 103.612 12.9413C103.258 12.9413 102.934 12.865 102.64 12.7123C102.35 12.5596 102.098 12.3454 101.886 12.0699C101.677 11.7943 101.515 11.4703 101.4 11.0979C101.288 10.7217 101.232 10.3139 101.232 9.87447ZM102.271 9.75716V9.87447C102.271 10.1761 102.301 10.4592 102.361 10.7236C102.424 10.988 102.521 11.2208 102.651 11.4219C102.782 11.623 102.947 11.7812 103.149 11.8967C103.35 12.0084 103.59 12.0643 103.869 12.0643C104.212 12.0643 104.493 11.9917 104.713 11.8464C104.936 11.7012 105.115 11.5094 105.249 11.271C105.383 11.0327 105.487 10.7739 105.562 10.4945V9.14826C105.517 8.94344 105.452 8.74606 105.366 8.55612C105.284 8.36247 105.176 8.19116 105.042 8.04219C104.912 7.8895 104.75 7.76847 104.556 7.67909C104.366 7.58971 104.141 7.54502 103.88 7.54502C103.597 7.54502 103.353 7.6046 103.149 7.72378C102.947 7.83922 102.782 7.99936 102.651 8.20419C102.521 8.4053 102.424 8.63992 102.361 8.90806C102.301 9.17247 102.271 9.45551 102.271 9.75716ZM111.645 11.433V6.78529H112.684V12.8296H111.695L111.645 11.433ZM111.841 10.1594L112.271 10.1482C112.271 10.5504 112.228 10.9228 112.142 11.2654C112.06 11.6043 111.926 11.8986 111.74 12.1481C111.554 12.3976 111.31 12.5931 111.008 12.7346C110.707 12.8724 110.34 12.9413 109.908 12.9413C109.614 12.9413 109.344 12.8985 109.098 12.8128C108.856 12.7272 108.647 12.595 108.472 12.4162C108.297 12.2374 108.161 12.0047 108.064 11.7179C107.971 11.4312 107.925 11.0867 107.925 10.6845V6.78529H108.958V10.6956C108.958 10.9675 108.988 11.1928 109.048 11.3716C109.111 11.5466 109.195 11.6863 109.299 11.7906C109.407 11.8911 109.526 11.9619 109.656 12.0028C109.791 12.0438 109.928 12.0643 110.07 12.0643C110.509 12.0643 110.858 11.9805 111.114 11.8129C111.371 11.6416 111.556 11.4125 111.668 11.1258C111.783 10.8353 111.841 10.5132 111.841 10.1594ZM109.36 14.2038C109.36 14.0362 109.411 13.8947 109.511 13.7792C109.616 13.6638 109.768 13.6061 109.969 13.6061C110.167 13.6061 110.318 13.6638 110.422 13.7792C110.53 13.8947 110.584 14.0362 110.584 14.2038C110.584 14.3639 110.53 14.4999 110.422 14.6116C110.318 14.727 110.167 14.7848 109.969 14.7848C109.768 14.7848 109.616 14.727 109.511 14.6116C109.411 14.4999 109.36 14.3639 109.36 14.2038ZM115.293 8.07571V12.8296H114.26V6.78529H115.237L115.293 8.07571ZM115.047 9.5784L114.617 9.56165C114.621 9.14826 114.682 8.76654 114.801 8.41647C114.921 8.06267 115.088 7.75543 115.304 7.49474C115.52 7.23405 115.777 7.03294 116.075 6.89143C116.377 6.74619 116.71 6.67356 117.075 6.67356C117.373 6.67356 117.641 6.71453 117.879 6.79646C118.118 6.87467 118.321 7.00129 118.488 7.17632C118.66 7.35136 118.79 7.57853 118.879 7.85784C118.969 8.13343 119.013 8.47047 119.013 8.86895V12.8296H117.974V8.85778C117.974 8.54123 117.928 8.28798 117.835 8.09805C117.742 7.9044 117.606 7.76474 117.427 7.67909C117.248 7.58971 117.028 7.54502 116.768 7.54502C116.511 7.54502 116.276 7.59902 116.064 7.70702C115.855 7.81502 115.675 7.96398 115.522 8.15392C115.373 8.34385 115.256 8.56171 115.17 8.8075C115.088 9.04957 115.047 9.30654 115.047 9.5784ZM124.499 6.78529H125.438V12.7011C125.438 13.2337 125.33 13.688 125.114 14.0641C124.898 14.4403 124.596 14.7252 124.209 14.9188C123.825 15.1162 123.382 15.2149 122.879 15.2149C122.671 15.2149 122.425 15.1814 122.142 15.1144C121.862 15.051 121.587 14.9412 121.315 14.7848C121.047 14.6321 120.822 14.4254 120.639 14.1647L121.181 13.5502C121.434 13.8556 121.699 14.0679 121.974 14.187C122.253 14.3062 122.529 14.3658 122.801 14.3658C123.129 14.3658 123.412 14.3044 123.65 14.1815C123.888 14.0586 124.073 13.8761 124.203 13.634C124.337 13.3957 124.404 13.1015 124.404 12.7514V8.11481L124.499 6.78529ZM120.337 9.87447V9.75716C120.337 9.29537 120.391 8.8764 120.499 8.50026C120.611 8.1204 120.769 7.79453 120.974 7.52267C121.183 7.25081 121.434 7.04226 121.728 6.89701C122.023 6.74805 122.354 6.67356 122.723 6.67356C123.103 6.67356 123.434 6.7406 123.717 6.87467C124.004 7.00501 124.246 7.19681 124.443 7.45005C124.644 7.69957 124.803 8.00122 124.918 8.35502C125.034 8.70881 125.114 9.10916 125.158 9.55606V10.07C125.117 10.5132 125.037 10.9117 124.918 11.2654C124.803 11.6192 124.644 11.9209 124.443 12.1704C124.246 12.4199 124.004 12.6117 123.717 12.7458C123.43 12.8761 123.095 12.9413 122.712 12.9413C122.35 12.9413 122.023 12.865 121.728 12.7123C121.438 12.5596 121.188 12.3454 120.98 12.0699C120.771 11.7943 120.611 11.4703 120.499 11.0979C120.391 10.7217 120.337 10.3139 120.337 9.87447ZM121.371 9.75716V9.87447C121.371 10.1761 121.401 10.4592 121.46 10.7236C121.524 10.988 121.618 11.2208 121.745 11.4219C121.875 11.623 122.041 11.7812 122.242 11.8967C122.443 12.0084 122.684 12.0643 122.963 12.0643C123.306 12.0643 123.589 11.9917 123.812 11.8464C124.035 11.7012 124.212 11.5094 124.343 11.271C124.477 11.0327 124.581 10.7739 124.656 10.4945V9.14826C124.615 8.94344 124.551 8.74606 124.466 8.55612C124.384 8.36247 124.276 8.19116 124.142 8.04219C124.011 7.8895 123.849 7.76847 123.656 7.67909C123.462 7.58971 123.235 7.54502 122.974 7.54502C122.691 7.54502 122.447 7.6046 122.242 7.72378C122.041 7.83922 121.875 7.99936 121.745 8.20419C121.618 8.4053 121.524 8.63992 121.46 8.90806C121.401 9.17247 121.371 9.45551 121.371 9.75716ZM133.013 5.41666L130.32 12.8296H129.219L132.32 4.69604H133.029L133.013 5.41666ZM135.269 12.8296L132.571 5.41666L132.554 4.69604H133.264L136.375 12.8296H135.269ZM135.13 9.81861V10.7012H130.56V9.81861H135.13ZM138.342 8.07571V12.8296H137.308V6.78529H138.286L138.342 8.07571ZM138.096 9.5784L137.666 9.56165C137.67 9.14826 137.731 8.76654 137.85 8.41647C137.969 8.06267 138.137 7.75543 138.353 7.49474C138.569 7.23405 138.826 7.03294 139.124 6.89143C139.426 6.74619 139.759 6.67356 140.124 6.67356C140.422 6.67356 140.69 6.71453 140.928 6.79646C141.167 6.87467 141.37 7.00129 141.537 7.17632C141.708 7.35136 141.839 7.57853 141.928 7.85784C142.018 8.13343 142.062 8.47047 142.062 8.86895V12.8296H141.023V8.85778C141.023 8.54123 140.977 8.28798 140.884 8.09805C140.79 7.9044 140.654 7.76474 140.476 7.67909C140.297 7.58971 140.077 7.54502 139.817 7.54502C139.56 7.54502 139.325 7.59902 139.113 7.70702C138.904 7.81502 138.724 7.96398 138.571 8.15392C138.422 8.34385 138.305 8.56171 138.219 8.8075C138.137 9.04957 138.096 9.30654 138.096 9.5784ZM147.442 11.6565V4.24914H148.481V12.8296H147.531L147.442 11.6565ZM143.375 9.87447V9.75716C143.375 9.29537 143.431 8.8764 143.543 8.50026C143.658 8.1204 143.82 7.79453 144.029 7.52267C144.241 7.25081 144.492 7.04226 144.783 6.89701C145.077 6.74805 145.405 6.67356 145.766 6.67356C146.146 6.67356 146.477 6.7406 146.76 6.87467C147.047 7.00501 147.289 7.19681 147.486 7.45005C147.688 7.69957 147.846 8.00122 147.961 8.35502C148.077 8.70881 148.157 9.10916 148.201 9.55606V10.07C148.161 10.5132 148.08 10.9117 147.961 11.2654C147.846 11.6192 147.688 11.9209 147.486 12.1704C147.289 12.4199 147.047 12.6117 146.76 12.7458C146.473 12.8761 146.138 12.9413 145.755 12.9413C145.401 12.9413 145.077 12.865 144.783 12.7123C144.492 12.5596 144.241 12.3454 144.029 12.0699C143.82 11.7943 143.658 11.4703 143.543 11.0979C143.431 10.7217 143.375 10.3139 143.375 9.87447ZM144.414 9.75716V9.87447C144.414 10.1761 144.444 10.4592 144.503 10.7236C144.567 10.988 144.664 11.2208 144.794 11.4219C144.924 11.623 145.09 11.7812 145.291 11.8967C145.492 12.0084 145.732 12.0643 146.012 12.0643C146.354 12.0643 146.635 11.9917 146.855 11.8464C147.079 11.7012 147.257 11.5094 147.391 11.271C147.526 11.0327 147.63 10.7739 147.704 10.4945V9.14826C147.66 8.94344 147.594 8.74606 147.509 8.55612C147.427 8.36247 147.319 8.19116 147.185 8.04219C147.054 7.8895 146.892 7.76847 146.699 7.67909C146.509 7.58971 146.284 7.54502 146.023 7.54502C145.74 7.54502 145.496 7.6046 145.291 7.72378C145.09 7.83922 144.924 7.99936 144.794 8.20419C144.664 8.4053 144.567 8.63992 144.503 8.90806C144.444 9.17247 144.414 9.45551 144.414 9.75716ZM151.123 7.73495V12.8296H150.09V6.78529H151.095L151.123 7.73495ZM153.011 6.75177L153.006 7.7126C152.92 7.69398 152.838 7.68281 152.76 7.67909C152.685 7.67164 152.6 7.66791 152.503 7.66791C152.265 7.66791 152.054 7.70515 151.872 7.77964C151.689 7.85412 151.535 7.9584 151.408 8.09247C151.281 8.22654 151.181 8.38667 151.106 8.57288C151.036 8.75537 150.989 8.95647 150.967 9.1762L150.676 9.34378C150.676 8.97882 150.712 8.63619 150.782 8.31592C150.857 7.99564 150.97 7.7126 151.123 7.46681C151.276 7.21729 151.469 7.02363 151.704 6.88584C151.942 6.74432 152.225 6.67356 152.553 6.67356C152.628 6.67356 152.713 6.68287 152.81 6.7015C152.907 6.71639 152.974 6.73315 153.011 6.75177ZM153.581 9.87447V9.74599C153.581 9.31026 153.644 8.90619 153.771 8.53378C153.898 8.15764 154.08 7.83178 154.318 7.55619C154.557 7.27688 154.845 7.06088 155.184 6.90819C155.523 6.75177 155.903 6.67356 156.324 6.67356C156.748 6.67356 157.13 6.75177 157.469 6.90819C157.812 7.06088 158.102 7.27688 158.34 7.55619C158.583 7.83178 158.767 8.15764 158.894 8.53378C159.02 8.90619 159.083 9.31026 159.083 9.74599V9.87447C159.083 10.3102 159.02 10.7143 158.894 11.0867C158.767 11.4591 158.583 11.785 158.34 12.0643C158.102 12.3399 157.814 12.5559 157.475 12.7123C157.139 12.865 156.76 12.9413 156.335 12.9413C155.91 12.9413 155.529 12.865 155.19 12.7123C154.851 12.5559 154.56 12.3399 154.318 12.0643C154.08 11.785 153.898 11.4591 153.771 11.0867C153.644 10.7143 153.581 10.3102 153.581 9.87447ZM154.614 9.74599V9.87447C154.614 10.1761 154.65 10.461 154.721 10.7292C154.791 10.9936 154.898 11.2282 155.039 11.433C155.184 11.6379 155.365 11.7999 155.581 11.919C155.797 12.0345 156.048 12.0922 156.335 12.0922C156.618 12.0922 156.866 12.0345 157.078 11.919C157.294 11.7999 157.473 11.6379 157.614 11.433C157.756 11.2282 157.862 10.9936 157.933 10.7292C158.007 10.461 158.044 10.1761 158.044 9.87447V9.74599C158.044 9.44806 158.007 9.16688 157.933 8.90247C157.862 8.63433 157.754 8.39785 157.609 8.19302C157.467 7.98447 157.288 7.8206 157.072 7.70143C156.86 7.58226 156.611 7.52267 156.324 7.52267C156.041 7.52267 155.791 7.58226 155.575 7.70143C155.363 7.8206 155.184 7.98447 155.039 8.19302C154.898 8.39785 154.791 8.63433 154.721 8.90247C154.65 9.16688 154.614 9.44806 154.614 9.74599ZM161.502 6.78529V12.8296H160.463V6.78529H161.502ZM160.385 5.18204C160.385 5.01445 160.435 4.87294 160.536 4.75749C160.64 4.64204 160.793 4.58431 160.994 4.58431C161.191 4.58431 161.342 4.64204 161.446 4.75749C161.554 4.87294 161.608 5.01445 161.608 5.18204C161.608 5.34218 161.554 5.47997 161.446 5.59542C161.342 5.70715 161.191 5.76301 160.994 5.76301C160.793 5.76301 160.64 5.70715 160.536 5.59542C160.435 5.47997 160.385 5.34218 160.385 5.18204ZM166.971 11.6565V4.24914H168.01V12.8296H167.061L166.971 11.6565ZM162.904 9.87447V9.75716C162.904 9.29537 162.96 8.8764 163.072 8.50026C163.187 8.1204 163.349 7.79453 163.558 7.52267C163.77 7.25081 164.022 7.04226 164.312 6.89701C164.606 6.74805 164.934 6.67356 165.295 6.67356C165.675 6.67356 166.007 6.7406 166.29 6.87467C166.576 7.00501 166.819 7.19681 167.016 7.45005C167.217 7.69957 167.375 8.00122 167.491 8.35502C167.606 8.70881 167.686 9.10916 167.731 9.55606V10.07C167.69 10.5132 167.61 10.9117 167.491 11.2654C167.375 11.6192 167.217 11.9209 167.016 12.1704C166.819 12.4199 166.576 12.6117 166.29 12.7458C166.003 12.8761 165.668 12.9413 165.284 12.9413C164.93 12.9413 164.606 12.865 164.312 12.7123C164.022 12.5596 163.77 12.3454 163.558 12.0699C163.349 11.7943 163.187 11.4703 163.072 11.0979C162.96 10.7217 162.904 10.3139 162.904 9.87447ZM163.943 9.75716V9.87447C163.943 10.1761 163.973 10.4592 164.033 10.7236C164.096 10.988 164.193 11.2208 164.323 11.4219C164.454 11.623 164.619 11.7812 164.821 11.8967C165.022 12.0084 165.262 12.0643 165.541 12.0643C165.884 12.0643 166.165 11.9917 166.385 11.8464C166.608 11.7012 166.787 11.5094 166.921 11.271C167.055 11.0327 167.159 10.7739 167.234 10.4945V9.14826C167.189 8.94344 167.124 8.74606 167.038 8.55612C166.956 8.36247 166.848 8.19116 166.714 8.04219C166.584 7.8895 166.422 7.76847 166.228 7.67909C166.038 7.58971 165.813 7.54502 165.552 7.54502C165.269 7.54502 165.025 7.6046 164.821 7.72378C164.619 7.83922 164.454 7.99936 164.323 8.20419C164.193 8.4053 164.096 8.63992 164.033 8.90806C163.973 9.17247 163.943 9.45551 163.943 9.75716ZM169.574 12.2821C169.574 12.1071 169.628 11.96 169.736 11.8408C169.848 11.7179 170.008 11.6565 170.217 11.6565C170.425 11.6565 170.584 11.7179 170.692 11.8408C170.803 11.96 170.859 12.1071 170.859 12.2821C170.859 12.4535 170.803 12.5987 170.692 12.7179C170.584 12.837 170.425 12.8966 170.217 12.8966C170.008 12.8966 169.848 12.837 169.736 12.7179C169.628 12.5987 169.574 12.4535 169.574 12.2821ZM169.58 7.3495C169.58 7.17446 169.634 7.02736 169.742 6.90819C169.854 6.78529 170.014 6.72384 170.222 6.72384C170.431 6.72384 170.589 6.78529 170.697 6.90819C170.809 7.02736 170.865 7.17446 170.865 7.3495C170.865 7.52081 170.809 7.66605 170.697 7.78522C170.589 7.9044 170.431 7.96398 170.222 7.96398C170.014 7.96398 169.854 7.9044 169.742 7.78522C169.634 7.66605 169.58 7.52081 169.58 7.3495Z" fill="black"/>
<path d="M166.279 52.9935H65.7224C63.425 52.9935 61.6577 51.2262 61.6577 48.9288V24.8943C61.6577 22.5968 63.6017 20.8296 65.7224 20.8296H166.279C168.576 20.8296 170.343 22.5968 170.343 24.8943V49.1055C170.343 51.2262 168.576 52.9935 166.279 52.9935Z" fill="black"/>
<path d="M166.279 21.5365C168.223 21.5365 169.637 23.127 169.637 24.8943V49.1055C169.637 51.0495 168.046 52.4633 166.279 52.4633H65.7224C63.7784 52.4633 62.3646 50.8728 62.3646 49.1055V24.8943C62.3646 22.9503 63.9551 21.5365 65.7224 21.5365H166.279ZM166.279 20.8296H65.7224C63.6017 20.8296 61.6577 22.5968 61.6577 24.8943V49.1055C61.6577 51.403 63.425 53.1702 65.7224 53.1702H166.279C168.576 53.1702 170.343 51.403 170.343 49.1055V24.8943C170.343 22.5968 168.576 20.8296 166.279 20.8296Z" fill="#A6A5A5"/>
<path d="M116.617 38.3255C114.673 38.3255 113.259 39.7393 113.259 41.6832C113.259 43.6272 114.849 45.041 116.617 45.041C118.56 45.041 119.974 43.6272 119.974 41.6832C119.974 39.7393 118.384 38.3255 116.617 38.3255ZM116.617 43.8039C115.556 43.8039 114.673 42.9203 114.673 41.6832C114.673 40.4462 115.556 39.5626 116.617 39.5626C117.677 39.5626 118.56 40.4462 118.56 41.6832C118.56 42.9203 117.5 43.8039 116.617 43.8039ZM109.017 38.3255C107.073 38.3255 105.66 39.7393 105.66 41.6832C105.66 43.6272 107.25 45.041 109.017 45.041C110.961 45.041 112.375 43.6272 112.375 41.6832C112.552 39.7393 110.961 38.3255 109.017 38.3255ZM109.017 43.8039C107.957 43.8039 107.073 42.9203 107.073 41.6832C107.073 40.4462 107.957 39.5626 109.017 39.5626C110.078 39.5626 110.961 40.4462 110.961 41.6832C110.961 42.9203 110.078 43.8039 109.017 43.8039ZM100.181 39.3858V40.7996H103.716C103.539 41.6832 103.362 42.2134 103.009 42.5669C102.302 43.097 101.595 43.8039 100.181 43.8039C98.0604 43.8039 96.2932 42.0367 96.2932 39.916C96.2932 37.7953 97.8837 36.0281 100.181 36.0281C101.418 36.0281 102.125 36.5582 102.832 37.0884L103.892 36.0281C103.009 35.1444 101.948 34.6143 100.181 34.6143C97.1768 34.6143 94.7026 36.9117 94.7026 39.916C94.7026 42.9203 97.1768 45.2177 100.181 45.2177C101.772 45.2177 103.009 44.6876 103.892 43.8039C104.776 42.9203 105.129 41.5065 105.129 40.4462C105.129 40.0927 105.129 39.7393 105.129 39.5626H100.181V39.3858ZM136.586 40.4462C136.233 39.7393 135.349 38.3255 133.582 38.3255C131.815 38.3255 130.401 39.7393 130.401 41.6832C130.401 43.6272 131.815 45.041 133.759 45.041C135.349 45.041 136.233 44.1574 136.586 43.4505L135.349 42.7436C134.996 43.2738 134.466 43.6272 133.582 43.6272C132.875 43.6272 132.345 43.2738 131.992 42.5669L136.586 40.6229V40.4462ZM131.992 41.6832C131.992 40.4462 133.052 39.7393 133.759 39.7393C134.289 39.7393 134.819 40.0927 134.996 40.4462L131.992 41.6832ZM128.28 45.041H129.871V34.9677H128.28V45.041ZM125.806 39.0324C125.453 38.6789 124.746 38.3255 124.039 38.3255C122.272 38.3255 120.681 39.916 120.681 41.6832C120.681 43.6272 122.272 45.041 124.039 45.041C124.923 45.041 125.453 44.6876 125.806 44.3341V44.8643C125.806 46.1014 125.099 46.8083 124.039 46.8083C123.155 46.8083 122.625 46.1014 122.272 45.5712L121.035 46.1014C121.388 46.985 122.448 48.0453 124.039 48.0453C125.806 48.0453 127.22 46.985 127.22 44.5108V38.5022H125.806V39.0324ZM124.039 43.8039C122.979 43.8039 122.095 42.9203 122.095 41.6832C122.095 40.4462 122.979 39.5626 124.039 39.5626C125.099 39.5626 125.806 40.4462 125.806 41.6832C125.806 42.9203 125.099 43.8039 124.039 43.8039ZM143.655 34.9677H140.121V45.041H141.535V41.1531H143.655C145.246 41.1531 147.013 39.916 147.013 37.972C147.013 36.0281 145.246 34.9677 143.655 34.9677ZM143.655 39.7393H141.535V36.2048H143.655C144.716 36.2048 145.423 37.0884 145.423 37.972C145.423 38.8556 144.716 39.7393 143.655 39.7393ZM153.022 38.3255C151.961 38.3255 150.724 38.8557 150.371 39.916L151.785 40.4462C152.138 39.916 152.668 39.7393 153.199 39.7393C153.905 39.7393 154.789 40.2694 154.789 40.9763V41.1531C154.436 40.9763 153.905 40.7996 153.199 40.7996C151.785 40.7996 150.371 41.5065 150.371 43.097C150.371 44.5108 151.608 45.3945 152.845 45.3945C153.905 45.3945 154.436 44.8643 154.789 44.3341V45.041H156.203V41.1531C156.026 39.3858 154.612 38.3255 153.022 38.3255ZM152.845 43.8039C152.315 43.8039 151.608 43.6272 151.608 42.9203C151.608 42.2134 152.492 41.86 153.199 41.86C153.905 41.86 154.082 42.0367 154.612 42.2134C154.436 43.097 153.552 43.8039 152.845 43.8039ZM161.328 38.5022L159.561 42.9203L157.793 38.5022H156.203L158.854 44.5108L157.263 47.8686H158.854L162.918 38.3255H161.328V38.5022ZM147.72 45.041H149.134V34.9677H147.72V45.041Z" fill="white"/>
<path d="M70.1401 26.8381C69.9633 27.0149 69.7866 27.545 69.7866 27.8985V45.7477C69.7866 46.2779 69.9633 46.6313 70.1401 46.808L80.0367 36.9114V36.7347L70.1401 26.8381Z" fill="#5BC8F3"/>
<path d="M83.3954 40.2695L80.0376 36.9117V36.735L83.3954 33.3772L87.2833 35.6746C88.3437 36.3815 88.3437 37.4419 87.2833 37.972L83.3954 40.2695Z" fill="url(#paint0_linear_94_10974)"/>
<path d="M83.5717 40.2694L80.2139 36.9116L70.1406 46.9849C70.4941 47.3384 71.201 47.3384 71.7312 46.9849L83.5717 40.2694Z" fill="url(#paint1_linear_94_10974)"/>
<path d="M83.5708 33.5536L71.9069 26.8381C71.2 26.4846 70.6699 26.4846 70.3164 26.8381L80.3897 36.9114L83.5708 33.5536Z" fill="url(#paint2_linear_94_10974)"/>
<path d="M96.8244 31.0797H96.2942V27.015H95.0571V26.4849H98.2382V27.015H97.0011V31.0797H96.8244Z" fill="white" stroke="white" stroke-width="0.163437" stroke-miterlimit="10"/>
<path d="M99.1228 29.6659L98.5927 31.0797H98.0625L99.4763 26.6616H100.183L101.597 31.0797H101.067L100.713 29.6659H99.1228ZM100.537 29.3125L100.183 28.0754C100.006 27.7219 100.006 27.5452 100.006 27.3685C100.006 27.5452 99.8297 27.8987 99.8297 28.0754L99.4763 29.3125H100.537ZM99.653 26.4849C99.8297 26.1314 100.006 26.1314 100.006 25.778C100.006 25.6013 99.8297 25.6013 99.8297 25.6013C99.653 25.6013 99.653 25.778 99.4763 25.778L99.2996 25.6013C99.4763 25.4245 99.653 25.2478 100.006 25.2478C100.36 25.2478 100.537 25.4245 100.537 25.778C100.537 26.1314 100.183 26.1314 100.006 26.4849H99.653Z" fill="white" stroke="white" stroke-width="0.163437" stroke-miterlimit="10"/>
<path d="M102.302 31.0797V26.4849H102.832V31.0797H102.302Z" fill="white" stroke="white" stroke-width="0.163437" stroke-miterlimit="10"/>
<path d="M105.309 31.0797V26.4849H106.015L108.313 30.0194V29.1357V26.4849H108.843V31.0797H108.313L105.839 27.3685V28.2521V31.0797H105.309Z" fill="white" stroke="white" stroke-width="0.163437" stroke-miterlimit="10"/>
<path d="M113.613 28.7824C113.613 30.1962 112.729 31.0798 111.669 31.0798C110.609 31.0798 109.725 30.1962 109.725 28.9591C109.725 27.5453 110.609 26.6617 111.669 26.6617C112.906 26.6617 113.613 27.5453 113.613 28.7824ZM110.255 28.9591C110.255 29.8427 110.785 30.7264 111.669 30.7264C112.553 30.7264 113.083 29.8427 113.083 28.9591C113.083 28.0755 112.553 27.1919 111.669 27.1919C110.785 27.0151 110.255 27.8988 110.255 28.9591ZM111.846 25.7781L112.553 26.485H112.023L111.669 25.9548L111.139 26.485H110.609L111.316 25.7781H111.846ZM111.316 31.9634C111.316 31.7867 111.492 31.61 111.669 31.61C111.846 31.61 112.023 31.7867 112.023 31.9634C112.023 32.1402 111.846 32.3169 111.669 32.3169C111.492 32.1402 111.316 31.9634 111.316 31.9634Z" fill="white" stroke="white" stroke-width="0.163437" stroke-miterlimit="10"/>
<path d="M114.499 31.0797V26.4849H115.029V31.0797H114.499Z" fill="white" stroke="white" stroke-width="0.163437" stroke-miterlimit="10"/>
<path d="M117.325 31.0797V26.4849H118.739C119.446 26.4849 119.976 26.6616 120.506 27.1918C120.86 27.5452 121.213 28.2521 121.213 28.7823C121.213 29.4892 121.036 30.0194 120.506 30.3728C120.153 30.7263 119.446 31.0797 118.739 31.0797H117.325ZM118.032 30.5495H118.916C119.446 30.5495 119.799 30.3728 120.153 30.0194C120.506 29.6659 120.683 29.3125 120.683 28.7823C120.683 28.2521 120.506 27.8987 120.153 27.5452C119.799 27.1918 119.446 27.015 118.916 27.015H118.032V30.5495Z" fill="white" stroke="white" stroke-width="0.163437" stroke-miterlimit="10"/>
<path d="M123.509 31.0797C122.979 31.0797 122.625 30.903 122.272 30.5495C121.918 30.1961 121.742 29.8426 121.742 29.3125V26.4849H122.272V29.4892C122.272 29.8426 122.449 30.1961 122.625 30.3728C122.802 30.5495 123.155 30.7263 123.509 30.7263C123.862 30.7263 124.216 30.5495 124.393 30.3728C124.569 30.1961 124.746 29.8426 124.746 29.4892V26.4849H125.276V29.3125C125.276 29.8426 125.099 30.3728 124.746 30.5495C124.569 30.903 124.039 31.0797 123.509 31.0797Z" fill="white" stroke="white" stroke-width="0.163437" stroke-miterlimit="10"/>
<path d="M126.337 31.0797V26.4849H127.044L129.341 30.0194V29.1357V26.4849H129.871V31.0797H129.341L127.044 27.3685V28.2521V31.0797H126.337Z" fill="white" stroke="white" stroke-width="0.163437" stroke-miterlimit="10"/>
<path d="M135.349 28.959C135.349 29.6659 135.172 30.196 134.819 30.5495C134.466 31.0797 133.759 31.2564 133.052 31.2564C132.345 31.2564 131.815 31.0797 131.285 30.5495C130.754 30.0193 130.578 29.4892 130.578 28.7823C130.578 28.0754 130.754 27.5452 131.285 27.015C131.815 26.4848 132.345 26.3081 133.052 26.3081C133.405 26.3081 133.759 26.3081 133.935 26.4848C134.289 26.6616 134.466 26.8383 134.642 27.015L134.289 27.3685C133.935 27.015 133.582 26.8383 133.052 26.8383C132.522 26.8383 132.168 27.015 131.815 27.3685C131.461 27.7219 131.285 28.0754 131.285 28.7823C131.285 29.3124 131.461 29.8426 131.815 30.196C132.168 30.5495 132.522 30.7262 133.052 30.7262C133.582 30.7262 133.935 30.5495 134.289 30.196C134.466 30.0193 134.642 29.6659 134.642 29.3124H133.052V28.6055H135.349C135.349 28.7823 135.349 28.7823 135.349 28.959Z" fill="white" stroke="white" stroke-width="0.163437" stroke-miterlimit="10"/>
<path d="M139.063 31.0797H138.532V27.015H137.295V26.4849H140.476V27.015H139.239V31.0797H139.063Z" fill="white" stroke="white" stroke-width="0.163437" stroke-miterlimit="10"/>
<path d="M141.006 31.0797V26.4849H142.597C142.95 26.4849 143.304 26.6616 143.657 26.8383C144.011 27.015 144.011 27.3685 144.011 27.8987C144.011 28.2521 143.834 28.4288 143.657 28.7823C143.48 28.959 143.127 29.1357 142.95 29.3125L144.187 31.2564H143.48L142.243 29.3125H141.537V31.2564H141.006V31.0797ZM141.537 28.6056H142.42C142.597 28.6056 142.774 28.6056 142.95 28.4288C143.127 28.2521 143.127 28.0754 143.127 27.8987C143.127 27.7219 143.127 27.5452 142.95 27.3685C142.774 27.1918 142.597 27.1918 142.42 27.1918H141.36V28.6056H141.537Z" fill="white" stroke="white" stroke-width="0.163437" stroke-miterlimit="10"/>
<path d="M147.543 27.0151H145.423V28.4288H147.367V28.959H145.423V30.3728H147.543V30.903H144.893V26.4849H147.543V27.0151ZM145.246 25.9547L145.953 25.2478H146.483L147.19 25.9547H146.483L146.13 25.6013L145.776 25.9547H145.246Z" fill="white" stroke="white" stroke-width="0.163437" stroke-miterlimit="10"/>
<path d="M148.427 31.0797V26.4849H149.134L151.431 30.0194V29.1357V26.4849H151.961V31.0797H151.431L149.134 27.3685V28.2521V31.0797H148.427Z" fill="white" stroke="white" stroke-width="0.163437" stroke-miterlimit="10"/>
<defs>
<linearGradient id="paint0_linear_94_10974" x1="86.7537" y1="36.9181" x2="67.3058" y2="36.9181" gradientUnits="userSpaceOnUse">
<stop stop-color="#FFDF00"/>
<stop offset="0.4087" stop-color="#FBBC0E"/>
<stop offset="0.7754" stop-color="#F9A418"/>
<stop offset="1" stop-color="#F89B1C"/>
</linearGradient>
<linearGradient id="paint1_linear_94_10974" x1="81.7062" y1="38.7625" x2="63.4145" y2="57.054" gradientUnits="userSpaceOnUse">
<stop stop-color="#EE4447"/>
<stop offset="1" stop-color="#C5166C"/>
</linearGradient>
<linearGradient id="paint2_linear_94_10974" x1="63.3321" y1="16.6996" x2="78.2669" y2="31.6344" gradientUnits="userSpaceOnUse">
<stop stop-color="#269E6F"/>
<stop offset="0.05089" stop-color="#2BA06F"/>
<stop offset="0.4663" stop-color="#53B26B"/>
<stop offset="0.7971" stop-color="#6BBD69"/>
<stop offset="1" stop-color="#74C168"/>
</linearGradient>
</defs>
</svg>
