<svg width="14" height="14" viewBox="0 0 14 14" fill="none" xmlns="http://www.w3.org/2000/svg">
<g clip-path="url(#clip0_106_3159)">
<path d="M8.75 2.625C9.23325 2.625 9.625 3.01675 9.625 3.5V10.5C9.625 10.9832 9.23325 11.375 8.75 11.375H5.25C4.76675 11.375 4.375 10.9832 4.375 10.5V3.5C4.375 3.01675 4.76675 2.625 5.25 2.625H8.75ZM5.25 1.75C4.2835 1.75 3.5 2.5335 3.5 3.5V10.5C3.5 11.4665 4.2835 12.25 5.25 12.25H8.75C9.7165 12.25 10.5 11.4665 10.5 10.5V3.5C10.5 2.5335 9.7165 1.75 8.75 1.75H5.25Z" fill="#114FFB"/>
<path d="M7 10.5C7.48325 10.5 7.875 10.1082 7.875 9.625C7.875 9.14175 7.48325 8.75 7 8.75C6.51675 8.75 6.125 9.14175 6.125 9.625C6.125 10.1082 6.51675 10.5 7 10.5Z" fill="#114FFB"/>
<path d="M1.39887 3.55071C1.61249 3.66363 1.69412 3.92834 1.5812 4.14196C1.13043 4.99473 0.875 5.96689 0.875 7C0.875 8.03311 1.13043 9.00527 1.5812 9.85804C1.69412 10.0717 1.61249 10.3364 1.39887 10.4493C1.18526 10.5622 0.920547 10.4806 0.807629 10.267C0.291855 9.29122 0 8.17905 0 7C0 5.82095 0.291855 4.70878 0.807629 3.73304C0.920547 3.51943 1.18526 3.4378 1.39887 3.55071ZM12.6011 3.55071C12.8147 3.4378 13.0795 3.51943 13.1924 3.73304C13.7081 4.70878 14 5.82095 14 7C14 8.17905 13.7081 9.29122 13.1924 10.267C13.0795 10.4806 12.8147 10.5622 12.6011 10.4493C12.3875 10.3364 12.3059 10.0717 12.4188 9.85804C12.8696 9.00527 13.125 8.03311 13.125 7C13.125 5.96689 12.8696 4.99473 12.4188 4.14196C12.3059 3.92834 12.3875 3.66363 12.6011 3.55071ZM2.67472 4.84247C2.89979 4.93037 3.01099 5.18408 2.9231 5.40915C2.73077 5.90163 2.625 6.43794 2.625 7C2.625 7.56206 2.73077 8.09837 2.9231 8.59085C3.01099 8.81592 2.89979 9.06963 2.67472 9.15753C2.44965 9.24542 2.19594 9.13422 2.10805 8.90915C1.87674 8.31686 1.75 7.67271 1.75 7C1.75 6.32729 1.87674 5.68314 2.10805 5.09085C2.19594 4.86578 2.44965 4.75458 2.67472 4.84247ZM11.3253 4.84247C11.5503 4.75458 11.8041 4.86578 11.892 5.09085C12.1233 5.68313 12.25 6.32729 12.25 7C12.25 7.67271 12.1233 8.31687 11.892 8.90915C11.8041 9.13422 11.5503 9.24542 11.3253 9.15753C11.1002 9.06963 10.989 8.81592 11.0769 8.59085C11.2692 8.09837 11.375 7.56206 11.375 7C11.375 6.43794 11.2692 5.90163 11.0769 5.40915C10.989 5.18408 11.1002 4.93037 11.3253 4.84247Z" fill="#114FFB"/>
</g>
<defs>
<clipPath id="clip0_106_3159">
<rect width="14" height="14" fill="white"/>
</clipPath>
</defs>
</svg>
