<svg width="30" height="30" viewBox="0 0 30 30" fill="none" xmlns="http://www.w3.org/2000/svg">
<g clip-path="url(#clip0_46_17580)">
<path d="M27.45 29.1H20.64V26.43C20.64 26.25 20.52 26.13 20.34 26.13C20.16 26.13 20.04 26.25 20.04 26.43V29.1H13.2V23.73H20.07V25.14C20.07 25.32 20.19 25.44 20.37 25.44C20.55 25.44 20.67 25.32 20.67 25.14V23.43C20.67 23.25 20.55 23.13 20.37 23.13H20.1V22.35H28.95C29.13 22.35 29.25 22.23 29.25 22.05V15.84C29.25 15.66 29.13 15.54 28.95 15.54C28.77 15.54 28.65 15.66 28.65 15.84V18H20.37V16.71C20.37 16.68 20.37 16.62 20.34 16.59C20.04 15.96 19.53 15.66 18.84 15.75C18.78 15.57 18.66 15.42 18.51 15.3C18.39 15.21 18.21 15.15 18.03 15.12C19.32 14.19 20.16 12.66 20.16 10.92C20.16 8.06999 17.82 5.72999 14.97 5.72999C12.12 5.72999 9.81 8.09999 9.81 10.95C9.81 13.44 11.58 15.51 13.92 16.02V17.67L13.11 16.68C12.93 16.5 12.72 16.41 12.45 16.38C12.18 16.38 11.97 16.47 11.79 16.65C11.49 16.95 11.43 17.4 11.64 17.76L11.76 18H1.35V4.13999H28.65V14.28C28.65 14.46 28.77 14.58 28.95 14.58C29.13 14.58 29.25 14.46 29.25 14.28C29.25 11.22 29.25 5.03999 29.25 1.97999C29.25 1.04999 28.5 0.299988 27.57 0.299988H2.43C1.5 0.299988 0.75 1.04999 0.75 1.97999V22.08C0.75 22.26 0.87 22.38 1.05 22.38H13.23V23.16H12.9C12.72 23.16 12.6 23.28 12.6 23.46V29.1H2.34C2.16 29.1 2.04 29.22 2.04 29.4C2.04 29.58 2.16 29.7 2.34 29.7H27.42C27.6 29.7 27.72 29.58 27.72 29.4C27.72 29.22 27.6 29.1 27.45 29.1ZM28.65 18.6V21.78H19.56L19.95 20.64H24.45C24.63 20.64 24.75 20.52 24.75 20.34C24.75 20.16 24.63 20.04 24.45 20.04H20.16L20.31 19.62C20.34 19.5 20.37 19.41 20.37 19.29V18.6H28.65ZM10.41 10.95C10.41 8.42999 12.48 6.35999 15 6.35999C17.52 6.35999 19.59 8.42999 19.59 10.95C19.59 12.69 18.6 14.22 17.16 15C17.1 14.94 17.01 14.91 16.92 14.88C16.65 14.76 16.32 14.76 15.99 14.88L16.02 12.15C16.02 12.09 16.02 12.03 15.99 11.94L17.25 11.22C17.34 11.16 17.4 11.07 17.4 10.95C17.4 10.83 17.34 10.74 17.25 10.68L13.68 8.63999C13.59 8.57999 13.47 8.57999 13.38 8.63999C13.29 8.69999 13.23 8.78999 13.23 8.90999V13.02C13.23 13.14 13.29 13.23 13.38 13.29C13.47 13.35 13.59 13.35 13.68 13.29L13.89 13.17V15.42C11.91 14.94 10.41 13.11 10.41 10.95ZM14.25 11.37C14.04 11.58 13.95 11.82 13.95 12.12V12.45L13.89 12.48V9.41999L16.56 10.95L15.75 11.4C15.75 11.4 15.75 11.4 15.72 11.37C15.51 11.16 15.27 11.04 14.97 11.04C14.73 11.07 14.46 11.16 14.25 11.37ZM12.24 17.07C12.3 17.01 12.39 16.95 12.48 16.98C12.57 16.98 12.66 17.01 12.69 17.07L14.01 18.72C14.1 18.81 14.22 18.87 14.34 18.81C14.46 18.75 14.55 18.66 14.55 18.54L14.58 12.12C14.58 11.88 14.79 11.67 15.03 11.67C15.27 11.67 15.48 11.88 15.48 12.12L15.42 15.3C15.42 15.42 15.48 15.51 15.57 15.57C15.66 15.63 15.78 15.63 15.87 15.57C16.17 15.39 16.5 15.33 16.74 15.42C16.8 15.45 16.92 15.51 16.95 15.63C17.01 15.78 17.16 15.87 17.31 15.84C17.88 15.69 18.12 15.75 18.21 15.81C18.24 15.84 18.33 15.9 18.36 16.14C18.39 16.32 18.57 16.44 18.75 16.41C19.29 16.26 19.62 16.38 19.83 16.8L19.8 19.32C19.8 19.35 19.8 19.41 19.77 19.44L18.9 22.02H14.61L12.18 17.49C12.12 17.34 12.12 17.19 12.24 17.07ZM1.35 1.97999C1.35 1.37999 1.83 0.899988 2.43 0.899988H27.6C28.2 0.899988 28.68 1.37999 28.68 1.97999V3.53999H1.38V1.97999H1.35ZM1.35 18.6H12.12L12.9 20.04H8.37C8.25 19.59 7.83 19.23 7.32 19.23C6.81 19.23 6.39 19.56 6.27 20.04H5.58C5.4 20.04 5.28 20.16 5.28 20.34C5.28 20.52 5.4 20.64 5.58 20.64H6.27C6.39 21.09 6.81 21.45 7.32 21.45C7.83 21.45 8.25 21.12 8.37 20.64H13.2L13.8 21.78H1.35V18.6ZM7.8 20.34C7.8 20.61 7.59 20.85 7.29 20.85C7.02 20.85 6.78 20.64 6.78 20.34C6.78 20.07 6.99 19.83 7.29 19.83C7.59 19.83 7.8 20.07 7.8 20.34ZM13.83 22.59H19.5V23.13H13.83V22.59Z" fill="#6F6F6F" stroke="#6F6F6F" stroke-width="0.2"/>
<path d="M1.0798 29.1H0.599805C0.419805 29.1 0.299805 29.22 0.299805 29.4C0.299805 29.58 0.419805 29.7 0.599805 29.7H1.0798C1.2598 29.7 1.3798 29.58 1.3798 29.4C1.3798 29.22 1.2598 29.1 1.0798 29.1Z" fill="#6F6F6F" stroke="#6F6F6F" stroke-width="0.2"/>
<path d="M29.3998 29.1H28.6198C28.4398 29.1 28.3198 29.22 28.3198 29.4C28.3198 29.58 28.4398 29.7 28.6198 29.7H29.3998C29.5798 29.7 29.6998 29.58 29.6998 29.4C29.6998 29.22 29.5498 29.1 29.3998 29.1Z" fill="#6F6F6F" stroke="#6F6F6F" stroke-width="0.2"/>
<path d="M2.99971 19.62C2.81971 19.62 2.69971 19.74 2.69971 19.92V20.76C2.69971 20.94 2.81971 21.06 2.99971 21.06C3.17971 21.06 3.29971 20.94 3.29971 20.76V19.92C3.29971 19.74 3.14971 19.62 2.99971 19.62Z" fill="#6F6F6F" stroke="#6F6F6F" stroke-width="0.2"/>
<path d="M3.77998 19.62C3.59998 19.62 3.47998 19.74 3.47998 19.92V20.76C3.47998 20.94 3.59998 21.06 3.77998 21.06C3.95998 21.06 4.07998 20.94 4.07998 20.76V19.92C4.07998 19.74 3.92998 19.62 3.77998 19.62Z" fill="#6F6F6F" stroke="#6F6F6F" stroke-width="0.2"/>
</g>
<defs>
<clipPath id="clip0_46_17580">
<rect width="30" height="30" fill="white"/>
</clipPath>
</defs>
</svg>
