<svg width="30" height="30" viewBox="0 0 30 30" fill="none" xmlns="http://www.w3.org/2000/svg">
<g clip-path="url(#clip0_46_17546)">
<path d="M17.0537 13.2265C17.1439 13.3968 17.3143 13.497 17.5046 13.497C17.5848 13.497 17.6549 13.477 17.7351 13.4469C17.7652 13.4369 20.7111 11.9339 22.164 11.483C22.4245 11.4028 22.5748 11.1222 22.4846 10.8517C22.4044 10.5912 22.1239 10.4409 21.8533 10.521C20.3203 11.002 17.4044 12.485 17.2742 12.5551C17.0237 12.6754 16.9335 12.986 17.0537 13.2265Z" fill="#6F6F6F"/>
<path d="M17.5046 7.49504C17.5848 7.49504 17.6549 7.475 17.7351 7.44494C17.7652 7.43492 20.7111 5.93191 22.164 5.48101C22.4245 5.40085 22.5748 5.12029 22.4846 4.84975C22.4044 4.58923 22.1239 4.43893 21.8533 4.51909C20.3203 5.00005 17.4044 6.48302 17.2742 6.55316C17.0237 6.6734 16.9335 6.98402 17.0537 7.2245C17.1439 7.39484 17.3143 7.49504 17.5046 7.49504Z" fill="#6F6F6F"/>
<path d="M29.499 7.50502C29.2184 7.50502 28.998 7.72546 28.998 8.00603V27.505C28.998 28.3367 28.3267 29.008 27.495 29.008H15.501V27.8557C16.2325 27.6052 18.1263 27.004 20 27.004C24.3587 27.004 27.3146 27.9659 27.3447 27.976C27.495 28.0261 27.6653 27.996 27.7956 27.9058C27.9259 27.8156 28.006 27.6653 28.006 27.505V5.50102C28.006 5.27056 27.8457 5.06013 27.6152 5.01003C27.6152 5.01003 27.2244 4.91985 26.5531 4.79961C26.2826 4.74951 26.022 4.92987 25.9719 5.20042C25.9218 5.47096 26.1022 5.73148 26.3727 5.78158C26.6333 5.83168 26.8437 5.87176 27.004 5.90182V26.8337C25.8717 26.5331 23.3567 26.002 20 26.002C17.8257 26.002 15.6814 26.7134 15.02 26.9639C14.4289 26.7034 12.6553 26.002 10.501 26.002C7.05411 26.002 4.21844 26.5732 2.99599 26.8537V5.8918C3.998 5.6413 6.94389 5.00001 10.501 5.00001C12.3246 5.00001 13.8878 5.57116 14.499 5.82166V25.501C14.499 25.6814 14.5992 25.8517 14.7495 25.9319C14.9098 26.0221 15.1002 26.0221 15.2505 25.9319C15.3006 25.9018 20.2505 22.9459 24.6493 21.473C24.8497 21.4028 24.99 21.2124 24.99 21.002V0.501016C24.99 0.340696 24.9098 0.180375 24.7695 0.0901945C24.6393 1.4137e-05 24.4589 -0.0200259 24.3086 0.0300743C20.3106 1.53308 16.2625 4.04811 16.2224 4.07817C15.992 4.22847 15.9218 4.52907 16.0621 4.76955C16.2124 5.00001 16.513 5.07015 16.7535 4.92987C16.7936 4.90983 20.3106 2.71545 23.988 1.23248V20.6413C20.5711 21.8237 17.014 23.7675 15.491 24.6293V5.50102C15.491 5.31064 15.3808 5.14029 15.2104 5.05011C15.1202 5.01003 13.0762 3.99801 10.491 3.99801C5.97194 3.99801 2.49499 4.97997 2.35471 5.02005C2.14429 5.08017 1.99399 5.28058 1.99399 5.50102V27.505C1.99399 27.6653 2.06413 27.8056 2.19439 27.9058C2.28457 27.976 2.38477 28.006 2.49499 28.006C2.54509 28.006 2.58517 28.006 2.63527 27.986C2.66533 27.986 6.13226 27.004 10.501 27.004C12.3246 27.004 13.8878 27.5752 14.499 27.8257V28.998H2.50501C1.67335 28.998 1.002 28.3267 1.002 27.495V7.99601C1.002 7.71545 0.781563 7.495 0.501002 7.495C0.220441 7.495 0 7.71545 0 7.99601V27.505C0 28.8878 1.12224 30.01 2.50501 30.01H27.505C28.8878 30.01 30.01 28.8878 30.01 27.505V7.99601C30.01 7.71545 29.7896 7.495 29.509 7.495L29.499 7.50502Z" fill="#6F6F6F"/>
<path d="M17.0537 10.2305C17.1439 10.4008 17.3143 10.501 17.5046 10.501C17.5848 10.501 17.6549 10.481 17.7351 10.4509C17.7652 10.4409 20.7111 8.9379 22.164 8.48699C22.4245 8.40683 22.5748 8.12627 22.4846 7.85573C22.4044 7.59521 22.1239 7.44491 21.8533 7.52507C20.3203 8.00603 17.4044 9.489 17.2742 9.55914C17.0237 9.67938 16.9335 9.99 17.0537 10.2305Z" fill="#6F6F6F"/>
<path d="M17.0537 16.2224C17.1439 16.3928 17.3143 16.493 17.5046 16.493C17.5848 16.493 17.6549 16.4729 17.7351 16.4429C17.7652 16.4328 20.7111 14.9298 22.164 14.4789C22.4245 14.3988 22.5748 14.1182 22.4846 13.8477C22.4044 13.5872 22.1239 13.4369 21.8533 13.517C20.3203 13.998 17.4044 15.4809 17.2742 15.5511C17.0237 15.6713 16.9335 15.9819 17.0537 16.2224Z" fill="#6F6F6F"/>
<path d="M12.1143 8.27659C9.02811 7.55515 5.5211 8.47699 5.3708 8.51707C5.10025 8.58721 4.94995 8.85775 5.02009 9.12829C5.08022 9.34873 5.28062 9.49903 5.50106 9.49903C5.54114 9.49903 5.59124 9.49903 5.63132 9.47899C5.66138 9.47899 9.03813 8.57719 11.8838 9.24853C12.1544 9.30865 12.4249 9.14833 12.485 8.87779C12.5451 8.60725 12.3848 8.33671 12.1143 8.27659Z" fill="#6F6F6F"/>
<path d="M12.1143 11.2826C9.02811 10.5611 5.5211 11.483 5.3708 11.5231C5.10025 11.5932 4.94995 11.8637 5.02009 12.1343C5.08022 12.3547 5.28062 12.505 5.50106 12.505C5.54114 12.505 5.59124 12.505 5.63132 12.485C5.66138 12.485 9.03813 11.5832 11.8838 12.2545C12.1544 12.3146 12.4249 12.1543 12.485 11.8838C12.5451 11.6132 12.3848 11.3427 12.1143 11.2826Z" fill="#6F6F6F"/>
<path d="M17.0537 19.2285C17.1439 19.3989 17.3143 19.4991 17.5046 19.4991C17.5848 19.4991 17.6549 19.479 17.7351 19.449C17.7652 19.4389 20.7111 17.9359 22.164 17.485C22.4245 17.4049 22.5748 17.1243 22.4846 16.8538C22.4044 16.5933 22.1239 16.443 21.8533 16.5231C20.3203 17.0041 17.4044 18.487 17.2742 18.5572C17.0237 18.6774 16.9335 18.988 17.0537 19.2285Z" fill="#6F6F6F"/>
<path d="M12.1143 14.2786C9.02811 13.5572 5.5211 14.479 5.3708 14.5191C5.10025 14.5892 4.94995 14.8598 5.02009 15.1303C5.08022 15.3507 5.28062 15.501 5.50106 15.501C5.54114 15.501 5.59124 15.501 5.63132 15.481C5.66138 15.481 9.03813 14.5792 11.8838 15.2505C12.1544 15.3107 12.4249 15.1503 12.485 14.8798C12.5451 14.6093 12.3848 14.3387 12.1143 14.2786Z" fill="#6F6F6F"/>
<path d="M12.1143 20.2806C9.02811 19.5591 5.5211 20.481 5.3708 20.521C5.10025 20.5912 4.94995 20.8617 5.02009 21.1323C5.08022 21.3527 5.28062 21.503 5.50106 21.503C5.54114 21.503 5.59124 21.503 5.63132 21.483C5.66138 21.483 9.03813 20.5812 11.8838 21.2525C12.1544 21.3126 12.4249 21.1523 12.485 20.8818C12.5451 20.6112 12.3848 20.3407 12.1143 20.2806Z" fill="#6F6F6F"/>
<path d="M12.1143 17.2746C9.02811 16.5531 5.5211 17.475 5.3708 17.5151C5.10025 17.5852 4.94995 17.8557 5.02009 18.1263C5.08022 18.3467 5.28062 18.497 5.50106 18.497C5.54114 18.497 5.59124 18.497 5.63132 18.477C5.66138 18.477 9.03813 17.5752 11.8838 18.2465C12.1544 18.3066 12.4249 18.1463 12.485 17.8758C12.5451 17.6052 12.3848 17.3347 12.1143 17.2746Z" fill="#6F6F6F"/>
</g>
<defs>
<clipPath id="clip0_46_17546">
<rect width="30" height="30" fill="white"/>
</clipPath>
</defs>
</svg>
