<svg width="250" height="250" viewBox="0 0 250 250" fill="none" xmlns="http://www.w3.org/2000/svg">
<rect width="250" height="250" rx="48.8281" fill="url(#paint0_radial_9125_159204)"/>
<rect x="48.1531" y="45.8984" width="153.694" height="158.351" rx="76.8469" fill="white"/>
<path d="M109.049 166.925C108.632 167.76 108.423 168.387 108.214 169.014C108.005 169.64 107.796 170.058 107.378 170.476C107.169 170.894 106.751 171.103 106.334 171.312C105.916 171.521 105.289 171.521 104.453 171.521H92.5458C89.4122 171.521 87.741 170.058 87.741 166.925V76.886C87.741 76.2593 87.9499 75.6325 88.1588 75.0058C88.3677 74.3791 88.7855 73.9613 89.2033 73.5435C89.6211 73.1257 90.0389 72.9168 90.6657 72.7079C91.0835 72.4989 91.7102 72.29 92.128 72.29H105.707C107.169 72.29 108.423 72.7079 109.258 73.5435C110.303 74.588 110.721 75.6325 110.721 76.886V101.955C111.765 100.701 113.019 99.6568 114.272 98.6123C115.526 97.5677 116.988 96.7321 118.45 96.1054C119.913 95.4787 121.584 94.8519 123.464 94.4341C125.344 94.0163 127.224 93.8074 129.522 93.8074C134.954 93.8074 139.968 94.8519 144.564 96.941C149.159 99.0301 153.129 101.746 156.471 105.297C159.814 108.849 162.321 113.027 164.201 117.832C166.081 122.636 166.917 127.859 166.917 133.5C166.917 139.14 166.081 144.154 164.201 148.959C162.321 153.764 159.814 157.942 156.471 161.493C153.129 165.044 149.159 167.76 144.564 169.849C139.968 171.938 134.954 172.983 129.522 172.983C127.433 172.983 125.553 172.774 123.673 172.147C121.793 171.521 120.121 170.894 118.45 170.058C116.779 169.223 115.317 168.178 113.854 167.134C112.392 166.089 111.138 165.044 110.094 164L109.049 166.925ZM145.399 133.291C145.399 130.784 144.981 128.277 144.146 125.979C143.31 123.681 142.057 121.592 140.594 119.921C139.132 118.249 137.252 116.787 135.163 115.743C133.074 114.698 130.567 114.28 128.06 114.28C125.553 114.28 122.837 114.698 120.539 115.743C118.241 116.787 116.152 118.249 114.481 119.921C112.81 121.592 111.556 123.681 110.512 125.979C109.467 128.277 109.049 130.784 109.049 133.291V134.126C109.258 136.633 109.676 138.931 110.721 141.229C111.765 143.527 113.019 145.407 114.69 147.079C116.361 148.75 118.241 150.003 120.539 150.839C122.837 151.674 125.135 152.301 127.851 152.301C130.567 152.301 132.865 151.883 134.954 150.839C137.043 149.794 138.923 148.541 140.385 146.87C141.848 145.198 143.101 143.109 143.937 140.811C144.981 138.513 145.399 136.007 145.399 133.291Z" fill="#FF4C13"/>
<defs>
<radialGradient id="paint0_radial_9125_159204" cx="0" cy="0" r="1" gradientUnits="userSpaceOnUse" gradientTransform="translate(125 26.6113) rotate(90) scale(252.686)">
<stop offset="0.270833" stop-color="#FF6711"/>
<stop offset="0.494792" stop-color="#FF4C13"/>
<stop offset="0.822917" stop-color="#E70000"/>
</radialGradient>
</defs>
</svg>
