<svg width="30" height="30" viewBox="0 0 30 30" fill="none" xmlns="http://www.w3.org/2000/svg">
<g clip-path="url(#clip0_146_54759)">
<path d="M17.0537 13.2264C17.1439 13.3967 17.3143 13.4969 17.5046 13.4969C17.5848 13.4969 17.6549 13.4769 17.7351 13.4468C17.7652 13.4368 20.7111 11.9338 22.164 11.4829C22.4245 11.4027 22.5748 11.1222 22.4846 10.8516C22.4044 10.5911 22.1239 10.4408 21.8533 10.521C20.3203 11.0019 17.4044 12.4849 17.2742 12.555C17.0237 12.6753 16.9335 12.9859 17.0537 13.2264Z" fill="#352B2B"/>
<path d="M17.5046 7.49498C17.5848 7.49498 17.6549 7.47494 17.7351 7.44488C17.7652 7.43486 20.7111 5.93185 22.164 5.48095C22.4245 5.40079 22.5748 5.12023 22.4846 4.84969C22.4044 4.58917 22.1239 4.43887 21.8533 4.51903C20.3203 4.99999 17.4044 6.48296 17.2742 6.5531C17.0237 6.67334 16.9335 6.98396 17.0537 7.22444C17.1439 7.39478 17.3143 7.49498 17.5046 7.49498Z" fill="#352B2B"/>
<path d="M29.499 7.50496C29.2184 7.50496 28.998 7.7254 28.998 8.00597V27.505C28.998 28.3366 28.3267 29.008 27.495 29.008H15.501V27.8557C16.2325 27.6052 18.1263 27.004 20 27.004C24.3587 27.004 27.3146 27.9659 27.3447 27.9759C27.495 28.026 27.6653 27.9959 27.7956 27.9058C27.9259 27.8156 28.006 27.6653 28.006 27.505V5.50096C28.006 5.27049 27.8457 5.06007 27.6152 5.00997C27.6152 5.00997 27.2244 4.91979 26.5531 4.79955C26.2826 4.74945 26.022 4.92981 25.9719 5.20035C25.9218 5.4709 26.1022 5.73142 26.3727 5.78152C26.6333 5.83162 26.8437 5.8717 27.004 5.90176V26.8336C25.8717 26.533 23.3567 26.002 20 26.002C17.8257 26.002 15.6814 26.7134 15.02 26.9639C14.4289 26.7034 12.6553 26.002 10.501 26.002C7.05411 26.002 4.21844 26.5731 2.99599 26.8537V5.89174C3.998 5.64124 6.94389 4.99995 10.501 4.99995C12.3246 4.99995 13.8878 5.5711 14.499 5.8216V25.501C14.499 25.6813 14.5992 25.8517 14.7495 25.9318C14.9098 26.022 15.1002 26.022 15.2505 25.9318C15.3006 25.9018 20.2505 22.9458 24.6493 21.4729C24.8497 21.4028 24.99 21.2124 24.99 21.002V0.500955C24.99 0.340634 24.9098 0.180314 24.7695 0.0901335C24.6393 -4.68981e-05 24.4589 -0.020087 24.3086 0.0300132C20.3106 1.53302 16.2625 4.04805 16.2224 4.07811C15.992 4.22841 15.9218 4.52901 16.0621 4.76949C16.2124 4.99995 16.513 5.07009 16.7535 4.92981C16.7936 4.90977 20.3106 2.71538 23.988 1.23242V20.6412C20.5711 21.8236 17.014 23.7675 15.491 24.6292V5.50096C15.491 5.31057 15.3808 5.14023 15.2104 5.05005C15.1202 5.00997 13.0762 3.99795 10.491 3.99795C5.97194 3.99795 2.49499 4.97991 2.35471 5.01999C2.14429 5.08011 1.99399 5.28051 1.99399 5.50096V27.505C1.99399 27.6653 2.06413 27.8056 2.19439 27.9058C2.28457 27.9759 2.38477 28.006 2.49499 28.006C2.54509 28.006 2.58517 28.006 2.63527 27.9859C2.66533 27.9859 6.13226 27.004 10.501 27.004C12.3246 27.004 13.8878 27.5751 14.499 27.8256V28.998H2.50501C1.67335 28.998 1.002 28.3266 1.002 27.4949V7.99594C1.002 7.71538 0.781563 7.49494 0.501002 7.49494C0.220441 7.49494 0 7.71538 0 7.99594V27.505C0 28.8877 1.12224 30.01 2.50501 30.01H27.505C28.8878 30.01 30.01 28.8877 30.01 27.505V7.99594C30.01 7.71538 29.7896 7.49494 29.509 7.49494L29.499 7.50496Z" fill="#352B2B"/>
<path d="M17.0537 10.2304C17.1439 10.4008 17.3143 10.501 17.5046 10.501C17.5848 10.501 17.6549 10.4809 17.7351 10.4509C17.7652 10.4408 20.7111 8.93783 22.164 8.48693C22.4245 8.40677 22.5748 8.12621 22.4846 7.85567C22.4044 7.59515 22.1239 7.44485 21.8533 7.52501C20.3203 8.00597 17.4044 9.48894 17.2742 9.55908C17.0237 9.67932 16.9335 9.98994 17.0537 10.2304Z" fill="#352B2B"/>
<path d="M17.0537 16.2224C17.1439 16.3927 17.3143 16.4929 17.5046 16.4929C17.5848 16.4929 17.6549 16.4729 17.7351 16.4428C17.7652 16.4328 20.7111 14.9298 22.164 14.4789C22.4245 14.3987 22.5748 14.1182 22.4846 13.8476C22.4044 13.5871 22.1239 13.4368 21.8533 13.517C20.3203 13.9979 17.4044 15.4809 17.2742 15.551C17.0237 15.6713 16.9335 15.9819 17.0537 16.2224Z" fill="#352B2B"/>
<path d="M12.1143 8.27653C9.02811 7.55509 5.5211 8.47693 5.3708 8.51701C5.10025 8.58715 4.94995 8.85769 5.02009 9.12823C5.08022 9.34867 5.28062 9.49897 5.50106 9.49897C5.54114 9.49897 5.59124 9.49897 5.63132 9.47893C5.66138 9.47893 9.03813 8.57713 11.8838 9.24847C12.1544 9.30859 12.4249 9.14827 12.485 8.87773C12.5451 8.60719 12.3848 8.33665 12.1143 8.27653Z" fill="#352B2B"/>
<path d="M12.1143 11.2825C9.02811 10.5611 5.5211 11.4829 5.3708 11.523C5.10025 11.5931 4.94995 11.8637 5.02009 12.1342C5.08022 12.3547 5.28062 12.505 5.50106 12.505C5.54114 12.505 5.59124 12.505 5.63132 12.4849C5.66138 12.4849 9.03813 11.5831 11.8838 12.2545C12.1544 12.3146 12.4249 12.1543 12.485 11.8837C12.5451 11.6132 12.3848 11.3426 12.1143 11.2825Z" fill="#352B2B"/>
<path d="M17.0537 19.2285C17.1439 19.3988 17.3143 19.499 17.5046 19.499C17.5848 19.499 17.6549 19.479 17.7351 19.4489C17.7652 19.4389 20.7111 17.9359 22.164 17.485C22.4245 17.4048 22.5748 17.1243 22.4846 16.8537C22.4044 16.5932 22.1239 16.4429 21.8533 16.5231C20.3203 17.004 17.4044 18.487 17.2742 18.5571C17.0237 18.6774 16.9335 18.988 17.0537 19.2285Z" fill="#352B2B"/>
<path d="M12.1143 14.2785C9.02811 13.557 5.5211 14.4789 5.3708 14.519C5.10025 14.5891 4.94995 14.8596 5.02009 15.1302C5.08022 15.3506 5.28062 15.5009 5.50106 15.5009C5.54114 15.5009 5.59124 15.5009 5.63132 15.4809C5.66138 15.4809 9.03813 14.5791 11.8838 15.2504C12.1544 15.3105 12.4249 15.1502 12.485 14.8797C12.5451 14.6091 12.3848 14.3386 12.1143 14.2785Z" fill="#352B2B"/>
<path d="M12.1143 20.2806C9.02811 19.5591 5.5211 20.481 5.3708 20.521C5.10025 20.5912 4.94995 20.8617 5.02009 21.1323C5.08022 21.3527 5.28062 21.503 5.50106 21.503C5.54114 21.503 5.59124 21.503 5.63132 21.483C5.66138 21.483 9.03813 20.5812 11.8838 21.2525C12.1544 21.3126 12.4249 21.1523 12.485 20.8818C12.5451 20.6112 12.3848 20.3407 12.1143 20.2806Z" fill="#352B2B"/>
<path d="M12.1143 17.2745C9.02811 16.553 5.5211 17.4749 5.3708 17.5149C5.10025 17.5851 4.94995 17.8556 5.02009 18.1262C5.08022 18.3466 5.28062 18.4969 5.50106 18.4969C5.54114 18.4969 5.59124 18.4969 5.63132 18.4769C5.66138 18.4769 9.03813 17.5751 11.8838 18.2464C12.1544 18.3065 12.4249 18.1462 12.485 17.8757C12.5451 17.6051 12.3848 17.3346 12.1143 17.2745Z" fill="#352B2B"/>
</g>
<defs>
<clipPath id="clip0_146_54759">
<rect width="30" height="30" fill="white"/>
</clipPath>
</defs>
</svg>
