<svg width="161" height="56" viewBox="0 0 161 56" fill="none" xmlns="http://www.w3.org/2000/svg">
<rect width="55.9997" height="55.9999" fill="white"/>
<path d="M5.26872 4H4V5.26872H5.26872V4Z" fill="#2D2D2D"/>
<path d="M6.5363 4H5.26758V5.26872H6.5363V4Z" fill="#2D2D2D"/>
<path d="M7.91276 4H6.64404V5.26872H7.91276V4Z" fill="#2D2D2D"/>
<path d="M9.17937 4H7.91064V5.26872H9.17937V4Z" fill="#2D2D2D"/>
<path d="M10.4499 4H9.18115V5.26872H10.4499V4Z" fill="#2D2D2D"/>
<path d="M11.7175 4H10.4487V5.26872H11.7175V4Z" fill="#2D2D2D"/>
<path d="M13.0939 4H11.8252V5.26872H13.0939V4Z" fill="#2D2D2D"/>
<path d="M15.631 4H14.3623V5.26872H15.631V4Z" fill="#2D2D2D"/>
<path d="M20.8092 4H19.5405V5.26872H20.8092V4Z" fill="#2D2D2D"/>
<path d="M22.1852 4H20.9165V5.26872H22.1852V4Z" fill="#2D2D2D"/>
<path d="M23.4528 4H22.1841V5.26872H23.4528V4Z" fill="#2D2D2D"/>
<path d="M26.0968 4H24.8281V5.26872H26.0968V4Z" fill="#2D2D2D"/>
<path d="M28.6344 4H27.3657V5.26872H28.6344V4Z" fill="#2D2D2D"/>
<path d="M29.903 4H28.6343V5.26872H29.903V4Z" fill="#2D2D2D"/>
<path d="M35.1896 4H33.9209V5.26872H35.1896V4Z" fill="#2D2D2D"/>
<path d="M36.4567 4H35.188V5.26872H36.4567V4Z" fill="#2D2D2D"/>
<path d="M37.7258 4H36.457V5.26872H37.7258V4Z" fill="#2D2D2D"/>
<path d="M38.9953 4H37.7266V5.26872H38.9953V4Z" fill="#2D2D2D"/>
<path d="M40.3693 4H39.1006V5.26872H40.3693V4Z" fill="#2D2D2D"/>
<path d="M44.2819 4H43.0132V5.26872H44.2819V4Z" fill="#2D2D2D"/>
<path d="M45.5495 4H44.2808V5.26872H45.5495V4Z" fill="#2D2D2D"/>
<path d="M46.8195 4H45.5508V5.26872H46.8195V4Z" fill="#2D2D2D"/>
<path d="M48.0871 4H46.8184V5.26872H48.0871V4Z" fill="#2D2D2D"/>
<path d="M49.464 4H48.1953V5.26872H49.464V4Z" fill="#2D2D2D"/>
<path d="M50.7306 4H49.4619V5.26872H50.7306V4Z" fill="#2D2D2D"/>
<path d="M51.9997 4H50.731V5.26872H51.9997V4Z" fill="#2D2D2D"/>
<path d="M5.26872 5.26855H4V6.53728H5.26872V5.26855Z" fill="#2D2D2D"/>
<path d="M13.0939 5.26855H11.8252V6.53728H13.0939V5.26855Z" fill="#2D2D2D"/>
<path d="M15.631 5.26855H14.3623V6.53728H15.631V5.26855Z" fill="#2D2D2D"/>
<path d="M24.7243 5.26855H23.4556V6.53728H24.7243V5.26855Z" fill="#2D2D2D"/>
<path d="M26.0968 5.26855H24.8281V6.53728H26.0968V5.26855Z" fill="#2D2D2D"/>
<path d="M31.2775 5.26855H30.0088V6.53728H31.2775V5.26855Z" fill="#2D2D2D"/>
<path d="M32.547 5.26855H31.2783V6.53728H32.547V5.26855Z" fill="#2D2D2D"/>
<path d="M33.8156 5.26855H32.5469V6.53728H33.8156V5.26855Z" fill="#2D2D2D"/>
<path d="M35.1896 5.26855H33.9209V6.53728H35.1896V5.26855Z" fill="#2D2D2D"/>
<path d="M36.4567 5.26855H35.188V6.53728H36.4567V5.26855Z" fill="#2D2D2D"/>
<path d="M37.7258 5.26855H36.457V6.53728H37.7258V5.26855Z" fill="#2D2D2D"/>
<path d="M38.9953 5.26855H37.7266V6.53728H38.9953V5.26855Z" fill="#2D2D2D"/>
<path d="M41.6388 5.26855H40.3701V6.53728H41.6388V5.26855Z" fill="#2D2D2D"/>
<path d="M44.2819 5.26855H43.0132V6.53728H44.2819V5.26855Z" fill="#2D2D2D"/>
<path d="M51.9997 5.26855H50.731V6.53728H51.9997V5.26855Z" fill="#2D2D2D"/>
<path d="M5.26872 6.64331H4V7.91203H5.26872V6.64331Z" fill="#2D2D2D"/>
<path d="M7.91276 6.64331H6.64404V7.91203H7.91276V6.64331Z" fill="#2D2D2D"/>
<path d="M9.17937 6.64331H7.91064V7.91203H9.17937V6.64331Z" fill="#2D2D2D"/>
<path d="M10.4499 6.64331H9.18115V7.91203H10.4499V6.64331Z" fill="#2D2D2D"/>
<path d="M13.0939 6.64331H11.8252V7.91203H13.0939V6.64331Z" fill="#2D2D2D"/>
<path d="M15.631 6.64331H14.3623V7.91203H15.631V6.64331Z" fill="#2D2D2D"/>
<path d="M17.0046 6.64331H15.7358V7.91203H17.0046V6.64331Z" fill="#2D2D2D"/>
<path d="M18.2726 6.64331H17.0039V7.91203H18.2726V6.64331Z" fill="#2D2D2D"/>
<path d="M24.7243 6.64331H23.4556V7.91203H24.7243V6.64331Z" fill="#2D2D2D"/>
<path d="M26.0968 6.64331H24.8281V7.91203H26.0968V6.64331Z" fill="#2D2D2D"/>
<path d="M31.2775 6.64331H30.0088V7.91203H31.2775V6.64331Z" fill="#2D2D2D"/>
<path d="M32.547 6.64331H31.2783V7.91203H32.547V6.64331Z" fill="#2D2D2D"/>
<path d="M33.8156 6.64331H32.5469V7.91203H33.8156V6.64331Z" fill="#2D2D2D"/>
<path d="M35.1896 6.64331H33.9209V7.91203H35.1896V6.64331Z" fill="#2D2D2D"/>
<path d="M36.4567 6.64331H35.188V7.91203H36.4567V6.64331Z" fill="#2D2D2D"/>
<path d="M37.7258 6.64331H36.457V7.91203H37.7258V6.64331Z" fill="#2D2D2D"/>
<path d="M41.6388 6.64331H40.3701V7.91203H41.6388V6.64331Z" fill="#2D2D2D"/>
<path d="M44.2819 6.64331H43.0132V7.91203H44.2819V6.64331Z" fill="#2D2D2D"/>
<path d="M46.8195 6.64331H45.5508V7.91203H46.8195V6.64331Z" fill="#2D2D2D"/>
<path d="M48.0871 6.64331H46.8184V7.91203H48.0871V6.64331Z" fill="#2D2D2D"/>
<path d="M49.464 6.64331H48.1953V7.91203H49.464V6.64331Z" fill="#2D2D2D"/>
<path d="M51.9997 6.64331H50.731V7.91203H51.9997V6.64331Z" fill="#2D2D2D"/>
<path d="M5.26872 7.91187H4V9.18059H5.26872V7.91187Z" fill="#2D2D2D"/>
<path d="M7.91276 7.91187H6.64404V9.18059H7.91276V7.91187Z" fill="#2D2D2D"/>
<path d="M9.17937 7.91187H7.91064V9.18059H9.17937V7.91187Z" fill="#2D2D2D"/>
<path d="M10.4499 7.91187H9.18115V9.18059H10.4499V7.91187Z" fill="#2D2D2D"/>
<path d="M13.0939 7.91187H11.8252V9.18059H13.0939V7.91187Z" fill="#2D2D2D"/>
<path d="M17.0046 7.91187H15.7358V9.18059H17.0046V7.91187Z" fill="#2D2D2D"/>
<path d="M27.3649 7.91187H26.0962V9.18059H27.3649V7.91187Z" fill="#2D2D2D"/>
<path d="M29.903 7.91187H28.6343V9.18059H29.903V7.91187Z" fill="#2D2D2D"/>
<path d="M31.2775 7.91187H30.0088V9.18059H31.2775V7.91187Z" fill="#2D2D2D"/>
<path d="M32.547 7.91187H31.2783V9.18059H32.547V7.91187Z" fill="#2D2D2D"/>
<path d="M33.8156 7.91187H32.5469V9.18059H33.8156V7.91187Z" fill="#2D2D2D"/>
<path d="M36.4567 7.91187H35.188V9.18059H36.4567V7.91187Z" fill="#2D2D2D"/>
<path d="M37.7258 7.91187H36.457V9.18059H37.7258V7.91187Z" fill="#2D2D2D"/>
<path d="M40.3693 7.91187H39.1006V9.18059H40.3693V7.91187Z" fill="#2D2D2D"/>
<path d="M44.2819 7.91187H43.0132V9.18059H44.2819V7.91187Z" fill="#2D2D2D"/>
<path d="M46.8195 7.91187H45.5508V9.18059H46.8195V7.91187Z" fill="#2D2D2D"/>
<path d="M48.0871 7.91187H46.8184V9.18059H48.0871V7.91187Z" fill="#2D2D2D"/>
<path d="M49.464 7.91187H48.1953V9.18059H49.464V7.91187Z" fill="#2D2D2D"/>
<path d="M51.9997 7.91187H50.731V9.18059H51.9997V7.91187Z" fill="#2D2D2D"/>
<path d="M5.26872 9.18042H4V10.4491H5.26872V9.18042Z" fill="#2D2D2D"/>
<path d="M7.91276 9.18042H6.64404V10.4491H7.91276V9.18042Z" fill="#2D2D2D"/>
<path d="M9.17937 9.18066H7.91064V10.4494H9.17937V9.18066Z" fill="#2D2D2D"/>
<path d="M10.4499 9.18042H9.18115V10.4491H10.4499V9.18042Z" fill="#2D2D2D"/>
<path d="M13.0939 9.18042H11.8252V10.4491H13.0939V9.18042Z" fill="#2D2D2D"/>
<path d="M15.631 9.18066H14.3623V10.4494H15.631V9.18066Z" fill="#2D2D2D"/>
<path d="M17.0046 9.18066H15.7358V10.4494H17.0046V9.18066Z" fill="#2D2D2D"/>
<path d="M18.2726 9.18042H17.0039V10.4491H18.2726V9.18042Z" fill="#2D2D2D"/>
<path d="M19.5426 9.18042H18.2739V10.4491H19.5426V9.18042Z" fill="#2D2D2D"/>
<path d="M20.8092 9.18066H19.5405V10.4494H20.8092V9.18066Z" fill="#2D2D2D"/>
<path d="M22.1852 9.18042H20.9165V10.4491H22.1852V9.18042Z" fill="#2D2D2D"/>
<path d="M24.7243 9.18042H23.4556V10.4491H24.7243V9.18042Z" fill="#2D2D2D"/>
<path d="M27.3649 9.18066H26.0962V10.4494H27.3649V9.18066Z" fill="#2D2D2D"/>
<path d="M29.903 9.18042H28.6343V10.4491H29.903V9.18042Z" fill="#2D2D2D"/>
<path d="M31.2775 9.18066H30.0088V10.4494H31.2775V9.18066Z" fill="#2D2D2D"/>
<path d="M37.7258 9.18066H36.457V10.4494H37.7258V9.18066Z" fill="#2D2D2D"/>
<path d="M38.9953 9.18066H37.7266V10.4494H38.9953V9.18066Z" fill="#2D2D2D"/>
<path d="M41.6388 9.18066H40.3701V10.4494H41.6388V9.18066Z" fill="#2D2D2D"/>
<path d="M44.2819 9.18066H43.0132V10.4494H44.2819V9.18066Z" fill="#2D2D2D"/>
<path d="M46.8195 9.18042H45.5508V10.4491H46.8195V9.18042Z" fill="#2D2D2D"/>
<path d="M48.0871 9.18066H46.8184V10.4494H48.0871V9.18066Z" fill="#2D2D2D"/>
<path d="M49.464 9.18066H48.1953V10.4494H49.464V9.18066Z" fill="#2D2D2D"/>
<path d="M51.9997 9.18066H50.731V10.4494H51.9997V9.18066Z" fill="#2D2D2D"/>
<path d="M5.26872 10.4495H4V11.7182H5.26872V10.4495Z" fill="#2D2D2D"/>
<path d="M13.0939 10.4495H11.8252V11.7182H13.0939V10.4495Z" fill="#2D2D2D"/>
<path d="M19.5426 10.4495H18.2739V11.7182H19.5426V10.4495Z" fill="#2D2D2D"/>
<path d="M20.8092 10.4495H19.5405V11.7182H20.8092V10.4495Z" fill="#2D2D2D"/>
<path d="M22.1852 10.4495H20.9165V11.7182H22.1852V10.4495Z" fill="#2D2D2D"/>
<path d="M26.0968 10.4495H24.8281V11.7182H26.0968V10.4495Z" fill="#2D2D2D"/>
<path d="M27.3649 10.4495H26.0962V11.7182H27.3649V10.4495Z" fill="#2D2D2D"/>
<path d="M28.6344 10.4495H27.3657V11.7182H28.6344V10.4495Z" fill="#2D2D2D"/>
<path d="M32.547 10.4495H31.2783V11.7182H32.547V10.4495Z" fill="#2D2D2D"/>
<path d="M35.1896 10.4495H33.9209V11.7182H35.1896V10.4495Z" fill="#2D2D2D"/>
<path d="M36.4567 10.4495H35.188V11.7182H36.4567V10.4495Z" fill="#2D2D2D"/>
<path d="M37.7258 10.4495H36.457V11.7182H37.7258V10.4495Z" fill="#2D2D2D"/>
<path d="M41.6388 10.4495H40.3701V11.7182H41.6388V10.4495Z" fill="#2D2D2D"/>
<path d="M44.2819 10.4495H43.0132V11.7182H44.2819V10.4495Z" fill="#2D2D2D"/>
<path d="M51.9997 10.4495H50.731V11.7182H51.9997V10.4495Z" fill="#2D2D2D"/>
<path d="M5.26872 11.8235H4V13.0922H5.26872V11.8235Z" fill="#2D2D2D"/>
<path d="M6.5363 11.8237H5.26758V13.0925H6.5363V11.8237Z" fill="#2D2D2D"/>
<path d="M7.91276 11.8235H6.64404V13.0922H7.91276V11.8235Z" fill="#2D2D2D"/>
<path d="M9.17937 11.8237H7.91064V13.0925H9.17937V11.8237Z" fill="#2D2D2D"/>
<path d="M10.4499 11.8235H9.18115V13.0922H10.4499V11.8235Z" fill="#2D2D2D"/>
<path d="M11.7175 11.8235H10.4487V13.0922H11.7175V11.8235Z" fill="#2D2D2D"/>
<path d="M13.0939 11.8235H11.8252V13.0922H13.0939V11.8235Z" fill="#2D2D2D"/>
<path d="M15.631 11.8237H14.3623V13.0925H15.631V11.8237Z" fill="#2D2D2D"/>
<path d="M18.2726 11.8235H17.0039V13.0922H18.2726V11.8235Z" fill="#2D2D2D"/>
<path d="M20.8092 11.8237H19.5405V13.0925H20.8092V11.8237Z" fill="#2D2D2D"/>
<path d="M23.4528 11.8237H22.1841V13.0925H23.4528V11.8237Z" fill="#2D2D2D"/>
<path d="M26.0968 11.8235H24.8281V13.0922H26.0968V11.8235Z" fill="#2D2D2D"/>
<path d="M28.6344 11.8237H27.3657V13.0925H28.6344V11.8237Z" fill="#2D2D2D"/>
<path d="M31.2775 11.8237H30.0088V13.0925H31.2775V11.8237Z" fill="#2D2D2D"/>
<path d="M33.8156 11.8235H32.5469V13.0922H33.8156V11.8235Z" fill="#2D2D2D"/>
<path d="M36.4567 11.8237H35.188V13.0925H36.4567V11.8237Z" fill="#2D2D2D"/>
<path d="M38.9953 11.8237H37.7266V13.0925H38.9953V11.8237Z" fill="#2D2D2D"/>
<path d="M41.6388 11.8237H40.3701V13.0925H41.6388V11.8237Z" fill="#2D2D2D"/>
<path d="M44.2819 11.8237H43.0132V13.0925H44.2819V11.8237Z" fill="#2D2D2D"/>
<path d="M45.5495 11.8235H44.2808V13.0922H45.5495V11.8235Z" fill="#2D2D2D"/>
<path d="M46.8195 11.8235H45.5508V13.0922H46.8195V11.8235Z" fill="#2D2D2D"/>
<path d="M48.0871 11.8237H46.8184V13.0925H48.0871V11.8237Z" fill="#2D2D2D"/>
<path d="M49.464 11.8237H48.1953V13.0925H49.464V11.8237Z" fill="#2D2D2D"/>
<path d="M50.7306 11.8235H49.4619V13.0922H50.7306V11.8235Z" fill="#2D2D2D"/>
<path d="M51.9997 11.8237H50.731V13.0925H51.9997V11.8237Z" fill="#2D2D2D"/>
<path d="M19.5426 13.0928H18.2739V14.3615H19.5426V13.0928Z" fill="#2D2D2D"/>
<path d="M23.4528 13.0928H22.1841V14.3615H23.4528V13.0928Z" fill="#2D2D2D"/>
<path d="M24.7243 13.0928H23.4556V14.3615H24.7243V13.0928Z" fill="#2D2D2D"/>
<path d="M26.0968 13.0928H24.8281V14.3615H26.0968V13.0928Z" fill="#2D2D2D"/>
<path d="M31.2775 13.0928H30.0088V14.3615H31.2775V13.0928Z" fill="#2D2D2D"/>
<path d="M32.547 13.0928H31.2783V14.3615H32.547V13.0928Z" fill="#2D2D2D"/>
<path d="M33.8156 13.0928H32.5469V14.3615H33.8156V13.0928Z" fill="#2D2D2D"/>
<path d="M35.1896 13.0928H33.9209V14.3615H35.1896V13.0928Z" fill="#2D2D2D"/>
<path d="M37.7258 13.0928H36.457V14.3615H37.7258V13.0928Z" fill="#2D2D2D"/>
<path d="M5.26872 14.3613H4V15.63H5.26872V14.3613Z" fill="#2D2D2D"/>
<path d="M9.17937 14.3611H7.91064V15.6298H9.17937V14.3611Z" fill="#2D2D2D"/>
<path d="M10.4499 14.3613H9.18115V15.63H10.4499V14.3613Z" fill="#2D2D2D"/>
<path d="M11.7175 14.3613H10.4487V15.63H11.7175V14.3613Z" fill="#2D2D2D"/>
<path d="M13.0939 14.3613H11.8252V15.63H13.0939V14.3613Z" fill="#2D2D2D"/>
<path d="M14.36 14.3613H13.0913V15.63H14.36V14.3613Z" fill="#2D2D2D"/>
<path d="M15.631 14.3611H14.3623V15.6298H15.631V14.3611Z" fill="#2D2D2D"/>
<path d="M17.0046 14.3611H15.7358V15.6298H17.0046V14.3611Z" fill="#2D2D2D"/>
<path d="M20.8092 14.3611H19.5405V15.6298H20.8092V14.3611Z" fill="#2D2D2D"/>
<path d="M22.1852 14.3613H20.9165V15.63H22.1852V14.3613Z" fill="#2D2D2D"/>
<path d="M24.7243 14.3613H23.4556V15.63H24.7243V14.3613Z" fill="#2D2D2D"/>
<path d="M26.0968 14.3613H24.8281V15.63H26.0968V14.3613Z" fill="#2D2D2D"/>
<path d="M28.6344 14.3611H27.3657V15.6298H28.6344V14.3611Z" fill="#2D2D2D"/>
<path d="M29.903 14.3613H28.6343V15.63H29.903V14.3613Z" fill="#2D2D2D"/>
<path d="M31.2775 14.3611H30.0088V15.6298H31.2775V14.3611Z" fill="#2D2D2D"/>
<path d="M33.8156 14.3613H32.5469V15.63H33.8156V14.3613Z" fill="#2D2D2D"/>
<path d="M36.4567 14.3611H35.188V15.6298H36.4567V14.3611Z" fill="#2D2D2D"/>
<path d="M40.3693 14.3611H39.1006V15.6298H40.3693V14.3611Z" fill="#2D2D2D"/>
<path d="M42.9079 14.3611H41.6392V15.6298H42.9079V14.3611Z" fill="#2D2D2D"/>
<path d="M46.8195 14.3613H45.5508V15.63H46.8195V14.3613Z" fill="#2D2D2D"/>
<path d="M49.464 14.3611H48.1953V15.6298H49.464V14.3611Z" fill="#2D2D2D"/>
<path d="M50.7306 14.3613H49.4619V15.63H50.7306V14.3613Z" fill="#2D2D2D"/>
<path d="M51.9997 14.3611H50.731V15.6298H51.9997V14.3611Z" fill="#2D2D2D"/>
<path d="M5.26872 15.7356H4V17.0043H5.26872V15.7356Z" fill="#2D2D2D"/>
<path d="M6.5363 15.7356H5.26758V17.0043H6.5363V15.7356Z" fill="#2D2D2D"/>
<path d="M7.91276 15.7356H6.64404V17.0043H7.91276V15.7356Z" fill="#2D2D2D"/>
<path d="M11.7175 15.7356H10.4487V17.0043H11.7175V15.7356Z" fill="#2D2D2D"/>
<path d="M15.631 15.7356H14.3623V17.0043H15.631V15.7356Z" fill="#2D2D2D"/>
<path d="M17.0046 15.7356H15.7358V17.0043H17.0046V15.7356Z" fill="#2D2D2D"/>
<path d="M19.5426 15.7356H18.2739V17.0043H19.5426V15.7356Z" fill="#2D2D2D"/>
<path d="M20.8092 15.7356H19.5405V17.0043H20.8092V15.7356Z" fill="#2D2D2D"/>
<path d="M22.1852 15.7356H20.9165V17.0043H22.1852V15.7356Z" fill="#2D2D2D"/>
<path d="M27.3649 15.7356H26.0962V17.0043H27.3649V15.7356Z" fill="#2D2D2D"/>
<path d="M31.2775 15.7356H30.0088V17.0043H31.2775V15.7356Z" fill="#2D2D2D"/>
<path d="M32.547 15.7356H31.2783V17.0043H32.547V15.7356Z" fill="#2D2D2D"/>
<path d="M36.4567 15.7356H35.188V17.0043H36.4567V15.7356Z" fill="#2D2D2D"/>
<path d="M37.7258 15.7356H36.457V17.0043H37.7258V15.7356Z" fill="#2D2D2D"/>
<path d="M38.9953 15.7356H37.7266V17.0043H38.9953V15.7356Z" fill="#2D2D2D"/>
<path d="M40.3693 15.7356H39.1006V17.0043H40.3693V15.7356Z" fill="#2D2D2D"/>
<path d="M42.9079 15.7356H41.6392V17.0043H42.9079V15.7356Z" fill="#2D2D2D"/>
<path d="M44.2819 15.7356H43.0132V17.0043H44.2819V15.7356Z" fill="#2D2D2D"/>
<path d="M45.5495 15.7356H44.2808V17.0043H45.5495V15.7356Z" fill="#2D2D2D"/>
<path d="M50.7306 15.7356H49.4619V17.0043H50.7306V15.7356Z" fill="#2D2D2D"/>
<path d="M6.5363 17.0042H5.26758V18.2729H6.5363V17.0042Z" fill="#2D2D2D"/>
<path d="M7.91276 17.0042H6.64404V18.2729H7.91276V17.0042Z" fill="#2D2D2D"/>
<path d="M9.17937 17.0042H7.91064V18.2729H9.17937V17.0042Z" fill="#2D2D2D"/>
<path d="M10.4499 17.0042H9.18115V18.2729H10.4499V17.0042Z" fill="#2D2D2D"/>
<path d="M13.0939 17.0042H11.8252V18.2729H13.0939V17.0042Z" fill="#2D2D2D"/>
<path d="M14.36 17.0042H13.0913V18.2729H14.36V17.0042Z" fill="#2D2D2D"/>
<path d="M17.0046 17.0042H15.7358V18.2729H17.0046V17.0042Z" fill="#2D2D2D"/>
<path d="M20.8092 17.0042H19.5405V18.2729H20.8092V17.0042Z" fill="#2D2D2D"/>
<path d="M27.3649 17.0042H26.0962V18.2729H27.3649V17.0042Z" fill="#2D2D2D"/>
<path d="M28.6344 17.0042H27.3657V18.2729H28.6344V17.0042Z" fill="#2D2D2D"/>
<path d="M33.8156 17.0042H32.5469V18.2729H33.8156V17.0042Z" fill="#2D2D2D"/>
<path d="M35.1896 17.0042H33.9209V18.2729H35.1896V17.0042Z" fill="#2D2D2D"/>
<path d="M36.4567 17.0042H35.188V18.2729H36.4567V17.0042Z" fill="#2D2D2D"/>
<path d="M40.3693 17.0042H39.1006V18.2729H40.3693V17.0042Z" fill="#2D2D2D"/>
<path d="M41.6388 17.0042H40.3701V18.2729H41.6388V17.0042Z" fill="#2D2D2D"/>
<path d="M42.9079 17.0042H41.6392V18.2729H42.9079V17.0042Z" fill="#2D2D2D"/>
<path d="M44.2819 17.0042H43.0132V18.2729H44.2819V17.0042Z" fill="#2D2D2D"/>
<path d="M51.9997 17.0042H50.731V18.2729H51.9997V17.0042Z" fill="#2D2D2D"/>
<path d="M6.5363 18.2732H5.26758V19.5419H6.5363V18.2732Z" fill="#2D2D2D"/>
<path d="M9.17937 18.2732H7.91064V19.5419H9.17937V18.2732Z" fill="#2D2D2D"/>
<path d="M10.4499 18.2732H9.18115V19.5419H10.4499V18.2732Z" fill="#2D2D2D"/>
<path d="M11.7175 18.2732H10.4487V19.5419H11.7175V18.2732Z" fill="#2D2D2D"/>
<path d="M15.631 18.2732H14.3623V19.5419H15.631V18.2732Z" fill="#2D2D2D"/>
<path d="M18.2726 18.2732H17.0039V19.5419H18.2726V18.2732Z" fill="#2D2D2D"/>
<path d="M20.8092 18.2732H19.5405V19.5419H20.8092V18.2732Z" fill="#2D2D2D"/>
<path d="M24.7243 18.2732H23.4556V19.5419H24.7243V18.2732Z" fill="#2D2D2D"/>
<path d="M27.3649 18.2732H26.0962V19.5419H27.3649V18.2732Z" fill="#2D2D2D"/>
<path d="M28.6344 18.2732H27.3657V19.5419H28.6344V18.2732Z" fill="#2D2D2D"/>
<path d="M36.4567 18.2732H35.188V19.5419H36.4567V18.2732Z" fill="#2D2D2D"/>
<path d="M41.6388 18.2732H40.3701V19.5419H41.6388V18.2732Z" fill="#2D2D2D"/>
<path d="M44.2819 18.2732H43.0132V19.5419H44.2819V18.2732Z" fill="#2D2D2D"/>
<path d="M46.8195 18.2732H45.5508V19.5419H46.8195V18.2732Z" fill="#2D2D2D"/>
<path d="M49.464 18.2732H48.1953V19.5419H49.464V18.2732Z" fill="#2D2D2D"/>
<path d="M50.7306 18.2732H49.4619V19.5419H50.7306V18.2732Z" fill="#2D2D2D"/>
<path d="M51.9997 18.2732H50.731V19.5419H51.9997V18.2732Z" fill="#2D2D2D"/>
<path d="M5.26872 19.5417H4V20.8105H5.26872V19.5417Z" fill="#2D2D2D"/>
<path d="M11.7175 19.5417H10.4487V20.8105H11.7175V19.5417Z" fill="#2D2D2D"/>
<path d="M13.0939 19.5417H11.8252V20.8105H13.0939V19.5417Z" fill="#2D2D2D"/>
<path d="M14.36 19.5417H13.0913V20.8105H14.36V19.5417Z" fill="#2D2D2D"/>
<path d="M15.631 19.5417H14.3623V20.8105H15.631V19.5417Z" fill="#2D2D2D"/>
<path d="M17.0046 19.5417H15.7358V20.8105H17.0046V19.5417Z" fill="#2D2D2D"/>
<path d="M18.2726 19.5417H17.0039V20.8105H18.2726V19.5417Z" fill="#2D2D2D"/>
<path d="M19.5426 19.5417H18.2739V20.8105H19.5426V19.5417Z" fill="#2D2D2D"/>
<path d="M20.8092 19.5417H19.5405V20.8105H20.8092V19.5417Z" fill="#2D2D2D"/>
<path d="M23.4528 19.5417H22.1841V20.8105H23.4528V19.5417Z" fill="#2D2D2D"/>
<path d="M26.0968 19.5417H24.8281V20.8105H26.0968V19.5417Z" fill="#2D2D2D"/>
<path d="M28.6344 19.5417H27.3657V20.8105H28.6344V19.5417Z" fill="#2D2D2D"/>
<path d="M29.903 19.5417H28.6343V20.8105H29.903V19.5417Z" fill="#2D2D2D"/>
<path d="M31.2775 19.5417H30.0088V20.8105H31.2775V19.5417Z" fill="#2D2D2D"/>
<path d="M44.2819 19.5417H43.0132V20.8105H44.2819V19.5417Z" fill="#2D2D2D"/>
<path d="M45.5495 19.5417H44.2808V20.8105H45.5495V19.5417Z" fill="#2D2D2D"/>
<path d="M48.0871 19.5417H46.8184V20.8105H48.0871V19.5417Z" fill="#2D2D2D"/>
<path d="M49.464 19.5417H48.1953V20.8105H49.464V19.5417Z" fill="#2D2D2D"/>
<path d="M51.9997 19.5417H50.731V20.8105H51.9997V19.5417Z" fill="#2D2D2D"/>
<path d="M6.5363 20.9165H5.26758V22.1852H6.5363V20.9165Z" fill="#2D2D2D"/>
<path d="M7.91276 20.9165H6.64404V22.1852H7.91276V20.9165Z" fill="#2D2D2D"/>
<path d="M9.17937 20.9165H7.91064V22.1852H9.17937V20.9165Z" fill="#2D2D2D"/>
<path d="M10.4499 20.9165H9.18115V22.1852H10.4499V20.9165Z" fill="#2D2D2D"/>
<path d="M15.631 20.9165H14.3623V22.1852H15.631V20.9165Z" fill="#2D2D2D"/>
<path d="M18.2726 20.9165H17.0039V22.1852H18.2726V20.9165Z" fill="#2D2D2D"/>
<path d="M22.1852 20.9165H20.9165V22.1852H22.1852V20.9165Z" fill="#2D2D2D"/>
<path d="M23.4528 20.9165H22.1841V22.1852H23.4528V20.9165Z" fill="#2D2D2D"/>
<path d="M27.3649 20.9165H26.0962V22.1852H27.3649V20.9165Z" fill="#2D2D2D"/>
<path d="M28.6344 20.9165H27.3657V22.1852H28.6344V20.9165Z" fill="#2D2D2D"/>
<path d="M35.1896 20.9165H33.9209V22.1852H35.1896V20.9165Z" fill="#2D2D2D"/>
<path d="M37.7258 20.9165H36.457V22.1852H37.7258V20.9165Z" fill="#2D2D2D"/>
<path d="M38.9953 20.9165H37.7266V22.1852H38.9953V20.9165Z" fill="#2D2D2D"/>
<path d="M40.3693 20.9165H39.1006V22.1852H40.3693V20.9165Z" fill="#2D2D2D"/>
<path d="M41.6388 20.9165H40.3701V22.1852H41.6388V20.9165Z" fill="#2D2D2D"/>
<path d="M42.9079 20.9165H41.6392V22.1852H42.9079V20.9165Z" fill="#2D2D2D"/>
<path d="M46.8195 20.9165H45.5508V22.1852H46.8195V20.9165Z" fill="#2D2D2D"/>
<path d="M48.0871 20.9165H46.8184V22.1852H48.0871V20.9165Z" fill="#2D2D2D"/>
<path d="M50.7306 20.9165H49.4619V22.1852H50.7306V20.9165Z" fill="#2D2D2D"/>
<path d="M51.9997 20.9165H50.731V22.1852H51.9997V20.9165Z" fill="#2D2D2D"/>
<path d="M5.26872 22.1851H4V23.4538H5.26872V22.1851Z" fill="#2D2D2D"/>
<path d="M6.5363 22.1851H5.26758V23.4538H6.5363V22.1851Z" fill="#2D2D2D"/>
<path d="M9.17937 22.1851H7.91064V23.4538H9.17937V22.1851Z" fill="#2D2D2D"/>
<path d="M13.0939 22.1851H11.8252V23.4538H13.0939V22.1851Z" fill="#2D2D2D"/>
<path d="M14.36 22.1851H13.0913V23.4538H14.36V22.1851Z" fill="#2D2D2D"/>
<path d="M15.631 22.1851H14.3623V23.4538H15.631V22.1851Z" fill="#2D2D2D"/>
<path d="M17.0046 22.1851H15.7358V23.4538H17.0046V22.1851Z" fill="#2D2D2D"/>
<path d="M19.5426 22.1851H18.2739V23.4538H19.5426V22.1851Z" fill="#2D2D2D"/>
<path d="M24.7243 22.1851H23.4556V23.4538H24.7243V22.1851Z" fill="#2D2D2D"/>
<path d="M27.3649 22.1851H26.0962V23.4538H27.3649V22.1851Z" fill="#2D2D2D"/>
<path d="M29.903 22.1851H28.6343V23.4538H29.903V22.1851Z" fill="#2D2D2D"/>
<path d="M37.7258 22.1851H36.457V23.4538H37.7258V22.1851Z" fill="#2D2D2D"/>
<path d="M40.3693 22.1851H39.1006V23.4538H40.3693V22.1851Z" fill="#2D2D2D"/>
<path d="M42.9079 22.1851H41.6392V23.4538H42.9079V22.1851Z" fill="#2D2D2D"/>
<path d="M44.2819 22.1851H43.0132V23.4538H44.2819V22.1851Z" fill="#2D2D2D"/>
<path d="M46.8195 22.1851H45.5508V23.4538H46.8195V22.1851Z" fill="#2D2D2D"/>
<path d="M48.0871 22.1851H46.8184V23.4538H48.0871V22.1851Z" fill="#2D2D2D"/>
<path d="M49.464 22.1851H48.1953V23.4538H49.464V22.1851Z" fill="#2D2D2D"/>
<path d="M50.7306 22.1851H49.4619V23.4538H50.7306V22.1851Z" fill="#2D2D2D"/>
<path d="M51.9997 22.1851H50.731V23.4538H51.9997V22.1851Z" fill="#2D2D2D"/>
<path d="M9.17937 23.4536H7.91064V24.7223H9.17937V23.4536Z" fill="#2D2D2D"/>
<path d="M11.7175 23.4536H10.4487V24.7223H11.7175V23.4536Z" fill="#2D2D2D"/>
<path d="M14.36 23.4536H13.0913V24.7223H14.36V23.4536Z" fill="#2D2D2D"/>
<path d="M15.631 23.4536H14.3623V24.7223H15.631V23.4536Z" fill="#2D2D2D"/>
<path d="M17.0046 23.4536H15.7358V24.7223H17.0046V23.4536Z" fill="#2D2D2D"/>
<path d="M19.5426 23.4536H18.2739V24.7223H19.5426V23.4536Z" fill="#2D2D2D"/>
<path d="M20.8092 23.4536H19.5405V24.7223H20.8092V23.4536Z" fill="#2D2D2D"/>
<path d="M26.0968 23.4536H24.8281V24.7223H26.0968V23.4536Z" fill="#2D2D2D"/>
<path d="M27.3649 23.4536H26.0962V24.7223H27.3649V23.4536Z" fill="#2D2D2D"/>
<path d="M28.6344 23.4536H27.3657V24.7223H28.6344V23.4536Z" fill="#2D2D2D"/>
<path d="M31.2775 23.4536H30.0088V24.7223H31.2775V23.4536Z" fill="#2D2D2D"/>
<path d="M33.8156 23.4536H32.5469V24.7223H33.8156V23.4536Z" fill="#2D2D2D"/>
<path d="M35.1896 23.4536H33.9209V24.7223H35.1896V23.4536Z" fill="#2D2D2D"/>
<path d="M37.7258 23.4536H36.457V24.7223H37.7258V23.4536Z" fill="#2D2D2D"/>
<path d="M38.9953 23.4536H37.7266V24.7223H38.9953V23.4536Z" fill="#2D2D2D"/>
<path d="M41.6388 23.4536H40.3701V24.7223H41.6388V23.4536Z" fill="#2D2D2D"/>
<path d="M42.9079 23.4536H41.6392V24.7223H42.9079V23.4536Z" fill="#2D2D2D"/>
<path d="M45.5495 23.4536H44.2808V24.7223H45.5495V23.4536Z" fill="#2D2D2D"/>
<path d="M48.0871 23.4536H46.8184V24.7223H48.0871V23.4536Z" fill="#2D2D2D"/>
<path d="M49.464 23.4536H48.1953V24.7223H49.464V23.4536Z" fill="#2D2D2D"/>
<path d="M50.7306 23.4536H49.4619V24.7223H50.7306V23.4536Z" fill="#2D2D2D"/>
<path d="M5.26872 24.8281H4V26.0968H5.26872V24.8281Z" fill="#2D2D2D"/>
<path d="M6.5363 24.8281H5.26758V26.0968H6.5363V24.8281Z" fill="#2D2D2D"/>
<path d="M7.91276 24.8281H6.64404V26.0968H7.91276V24.8281Z" fill="#2D2D2D"/>
<path d="M10.4499 24.8281H9.18115V26.0968H10.4499V24.8281Z" fill="#2D2D2D"/>
<path d="M13.0939 24.8281H11.8252V26.0968H13.0939V24.8281Z" fill="#2D2D2D"/>
<path d="M15.631 24.8281H14.3623V26.0968H15.631V24.8281Z" fill="#2D2D2D"/>
<path d="M18.2726 24.8281H17.0039V26.0968H18.2726V24.8281Z" fill="#2D2D2D"/>
<path d="M20.8092 24.8281H19.5405V26.0968H20.8092V24.8281Z" fill="#2D2D2D"/>
<path d="M22.1852 24.8281H20.9165V26.0968H22.1852V24.8281Z" fill="#2D2D2D"/>
<path d="M24.7243 24.8281H23.4556V26.0968H24.7243V24.8281Z" fill="#2D2D2D"/>
<path d="M26.0968 24.8281H24.8281V26.0968H26.0968V24.8281Z" fill="#2D2D2D"/>
<path d="M27.3649 24.8281H26.0962V26.0968H27.3649V24.8281Z" fill="#2D2D2D"/>
<path d="M29.903 24.8281H28.6343V26.0968H29.903V24.8281Z" fill="#2D2D2D"/>
<path d="M31.2775 24.8281H30.0088V26.0968H31.2775V24.8281Z" fill="#2D2D2D"/>
<path d="M32.547 24.8281H31.2783V26.0968H32.547V24.8281Z" fill="#2D2D2D"/>
<path d="M36.4567 24.8281H35.188V26.0968H36.4567V24.8281Z" fill="#2D2D2D"/>
<path d="M38.9953 24.8281H37.7266V26.0968H38.9953V24.8281Z" fill="#2D2D2D"/>
<path d="M40.3693 24.8281H39.1006V26.0968H40.3693V24.8281Z" fill="#2D2D2D"/>
<path d="M41.6388 24.8281H40.3701V26.0968H41.6388V24.8281Z" fill="#2D2D2D"/>
<path d="M42.9079 24.8281H41.6392V26.0968H42.9079V24.8281Z" fill="#2D2D2D"/>
<path d="M44.2819 24.8281H43.0132V26.0968H44.2819V24.8281Z" fill="#2D2D2D"/>
<path d="M45.5495 24.8281H44.2808V26.0968H45.5495V24.8281Z" fill="#2D2D2D"/>
<path d="M49.464 24.8281H48.1953V26.0968H49.464V24.8281Z" fill="#2D2D2D"/>
<path d="M50.7306 24.8281H49.4619V26.0968H50.7306V24.8281Z" fill="#2D2D2D"/>
<path d="M5.26872 26.0969H4V27.3656H5.26872V26.0969Z" fill="#2D2D2D"/>
<path d="M6.5363 26.0969H5.26758V27.3656H6.5363V26.0969Z" fill="#2D2D2D"/>
<path d="M10.4499 26.0969H9.18115V27.3656H10.4499V26.0969Z" fill="#2D2D2D"/>
<path d="M15.631 26.0969H14.3623V27.3656H15.631V26.0969Z" fill="#2D2D2D"/>
<path d="M17.0046 26.0969H15.7358V27.3656H17.0046V26.0969Z" fill="#2D2D2D"/>
<path d="M20.8092 26.0969H19.5405V27.3656H20.8092V26.0969Z" fill="#2D2D2D"/>
<path d="M23.4528 26.0969H22.1841V27.3656H23.4528V26.0969Z" fill="#2D2D2D"/>
<path d="M26.0968 26.0969H24.8281V27.3656H26.0968V26.0969Z" fill="#2D2D2D"/>
<path d="M27.3649 26.0969H26.0962V27.3656H27.3649V26.0969Z" fill="#2D2D2D"/>
<path d="M28.6344 26.0969H27.3657V27.3656H28.6344V26.0969Z" fill="#2D2D2D"/>
<path d="M31.2775 26.0969H30.0088V27.3656H31.2775V26.0969Z" fill="#2D2D2D"/>
<path d="M35.1896 26.0969H33.9209V27.3656H35.1896V26.0969Z" fill="#2D2D2D"/>
<path d="M36.4567 26.0969H35.188V27.3656H36.4567V26.0969Z" fill="#2D2D2D"/>
<path d="M40.3693 26.0969H39.1006V27.3656H40.3693V26.0969Z" fill="#2D2D2D"/>
<path d="M41.6388 26.0969H40.3701V27.3656H41.6388V26.0969Z" fill="#2D2D2D"/>
<path d="M42.9079 26.0969H41.6392V27.3656H42.9079V26.0969Z" fill="#2D2D2D"/>
<path d="M45.5495 26.0969H44.2808V27.3656H45.5495V26.0969Z" fill="#2D2D2D"/>
<path d="M46.8195 26.0969H45.5508V27.3656H46.8195V26.0969Z" fill="#2D2D2D"/>
<path d="M5.26872 27.3657H4V28.6344H5.26872V27.3657Z" fill="#2D2D2D"/>
<path d="M9.17937 27.3657H7.91064V28.6344H9.17937V27.3657Z" fill="#2D2D2D"/>
<path d="M10.4499 27.3657H9.18115V28.6344H10.4499V27.3657Z" fill="#2D2D2D"/>
<path d="M13.0939 27.3657H11.8252V28.6344H13.0939V27.3657Z" fill="#2D2D2D"/>
<path d="M17.0046 27.3657H15.7358V28.6344H17.0046V27.3657Z" fill="#2D2D2D"/>
<path d="M18.2726 27.3657H17.0039V28.6344H18.2726V27.3657Z" fill="#2D2D2D"/>
<path d="M22.1852 27.3657H20.9165V28.6344H22.1852V27.3657Z" fill="#2D2D2D"/>
<path d="M24.7243 27.3657H23.4556V28.6344H24.7243V27.3657Z" fill="#2D2D2D"/>
<path d="M27.3649 27.3657H26.0962V28.6344H27.3649V27.3657Z" fill="#2D2D2D"/>
<path d="M28.6344 27.3657H27.3657V28.6344H28.6344V27.3657Z" fill="#2D2D2D"/>
<path d="M31.2775 27.3657H30.0088V28.6344H31.2775V27.3657Z" fill="#2D2D2D"/>
<path d="M32.547 27.3657H31.2783V28.6344H32.547V27.3657Z" fill="#2D2D2D"/>
<path d="M33.8156 27.3657H32.5469V28.6344H33.8156V27.3657Z" fill="#2D2D2D"/>
<path d="M37.7258 27.3657H36.457V28.6344H37.7258V27.3657Z" fill="#2D2D2D"/>
<path d="M40.3693 27.3657H39.1006V28.6344H40.3693V27.3657Z" fill="#2D2D2D"/>
<path d="M42.9079 27.3657H41.6392V28.6344H42.9079V27.3657Z" fill="#2D2D2D"/>
<path d="M44.2819 27.3657H43.0132V28.6344H44.2819V27.3657Z" fill="#2D2D2D"/>
<path d="M46.8195 27.3657H45.5508V28.6344H46.8195V27.3657Z" fill="#2D2D2D"/>
<path d="M48.0871 27.3657H46.8184V28.6344H48.0871V27.3657Z" fill="#2D2D2D"/>
<path d="M49.464 27.3657H48.1953V28.6344H49.464V27.3657Z" fill="#2D2D2D"/>
<path d="M51.9997 27.3657H50.731V28.6344H51.9997V27.3657Z" fill="#2D2D2D"/>
<path d="M7.91276 28.6343H6.64404V29.903H7.91276V28.6343Z" fill="#2D2D2D"/>
<path d="M9.17937 28.6343H7.91064V29.903H9.17937V28.6343Z" fill="#2D2D2D"/>
<path d="M10.4499 28.6343H9.18115V29.903H10.4499V28.6343Z" fill="#2D2D2D"/>
<path d="M19.5426 28.6343H18.2739V29.903H19.5426V28.6343Z" fill="#2D2D2D"/>
<path d="M28.6344 28.6343H27.3657V29.903H28.6344V28.6343Z" fill="#2D2D2D"/>
<path d="M33.8156 28.6343H32.5469V29.903H33.8156V28.6343Z" fill="#2D2D2D"/>
<path d="M35.1896 28.6343H33.9209V29.903H35.1896V28.6343Z" fill="#2D2D2D"/>
<path d="M36.4567 28.6343H35.188V29.903H36.4567V28.6343Z" fill="#2D2D2D"/>
<path d="M37.7258 28.6343H36.457V29.903H37.7258V28.6343Z" fill="#2D2D2D"/>
<path d="M40.3693 28.6343H39.1006V29.903H40.3693V28.6343Z" fill="#2D2D2D"/>
<path d="M44.2819 28.6343H43.0132V29.903H44.2819V28.6343Z" fill="#2D2D2D"/>
<path d="M45.5495 28.6343H44.2808V29.903H45.5495V28.6343Z" fill="#2D2D2D"/>
<path d="M51.9997 28.6343H50.731V29.903H51.9997V28.6343Z" fill="#2D2D2D"/>
<path d="M6.5363 30.0088H5.26758V31.2775H6.5363V30.0088Z" fill="#2D2D2D"/>
<path d="M9.17937 30.0088H7.91064V31.2775H9.17937V30.0088Z" fill="#2D2D2D"/>
<path d="M10.4499 30.0088H9.18115V31.2775H10.4499V30.0088Z" fill="#2D2D2D"/>
<path d="M11.7175 30.0088H10.4487V31.2775H11.7175V30.0088Z" fill="#2D2D2D"/>
<path d="M13.0939 30.0088H11.8252V31.2775H13.0939V30.0088Z" fill="#2D2D2D"/>
<path d="M14.36 30.0088H13.0913V31.2775H14.36V30.0088Z" fill="#2D2D2D"/>
<path d="M15.631 30.0088H14.3623V31.2775H15.631V30.0088Z" fill="#2D2D2D"/>
<path d="M17.0046 30.0088H15.7358V31.2775H17.0046V30.0088Z" fill="#2D2D2D"/>
<path d="M19.5426 30.0088H18.2739V31.2775H19.5426V30.0088Z" fill="#2D2D2D"/>
<path d="M22.1852 30.0088H20.9165V31.2775H22.1852V30.0088Z" fill="#2D2D2D"/>
<path d="M23.4528 30.0088H22.1841V31.2775H23.4528V30.0088Z" fill="#2D2D2D"/>
<path d="M24.7243 30.0088H23.4556V31.2775H24.7243V30.0088Z" fill="#2D2D2D"/>
<path d="M27.3649 30.0088H26.0962V31.2775H27.3649V30.0088Z" fill="#2D2D2D"/>
<path d="M28.6344 30.0088H27.3657V31.2775H28.6344V30.0088Z" fill="#2D2D2D"/>
<path d="M31.2775 30.0088H30.0088V31.2775H31.2775V30.0088Z" fill="#2D2D2D"/>
<path d="M36.4567 30.0088H35.188V31.2775H36.4567V30.0088Z" fill="#2D2D2D"/>
<path d="M40.3693 30.0088H39.1006V31.2775H40.3693V30.0088Z" fill="#2D2D2D"/>
<path d="M41.6388 30.0088H40.3701V31.2775H41.6388V30.0088Z" fill="#2D2D2D"/>
<path d="M42.9079 30.0088H41.6392V31.2775H42.9079V30.0088Z" fill="#2D2D2D"/>
<path d="M44.2819 30.0088H43.0132V31.2775H44.2819V30.0088Z" fill="#2D2D2D"/>
<path d="M45.5495 30.0088H44.2808V31.2775H45.5495V30.0088Z" fill="#2D2D2D"/>
<path d="M46.8195 30.0088H45.5508V31.2775H46.8195V30.0088Z" fill="#2D2D2D"/>
<path d="M49.464 30.0088H48.1953V31.2775H49.464V30.0088Z" fill="#2D2D2D"/>
<path d="M5.26872 31.2773H4V32.5461H5.26872V31.2773Z" fill="#2D2D2D"/>
<path d="M7.91276 31.2773H6.64404V32.5461H7.91276V31.2773Z" fill="#2D2D2D"/>
<path d="M9.17937 31.2776H7.91064V32.5463H9.17937V31.2776Z" fill="#2D2D2D"/>
<path d="M10.4499 31.2773H9.18115V32.5461H10.4499V31.2773Z" fill="#2D2D2D"/>
<path d="M14.36 31.2773H13.0913V32.5461H14.36V31.2773Z" fill="#2D2D2D"/>
<path d="M15.631 31.2776H14.3623V32.5463H15.631V31.2776Z" fill="#2D2D2D"/>
<path d="M17.0046 31.2776H15.7358V32.5463H17.0046V31.2776Z" fill="#2D2D2D"/>
<path d="M19.5426 31.2773H18.2739V32.5461H19.5426V31.2773Z" fill="#2D2D2D"/>
<path d="M23.4528 31.2776H22.1841V32.5463H23.4528V31.2776Z" fill="#2D2D2D"/>
<path d="M26.0968 31.2773H24.8281V32.5461H26.0968V31.2773Z" fill="#2D2D2D"/>
<path d="M29.903 31.2773H28.6343V32.5461H29.903V31.2773Z" fill="#2D2D2D"/>
<path d="M32.547 31.2776H31.2783V32.5463H32.547V31.2776Z" fill="#2D2D2D"/>
<path d="M35.1896 31.2773H33.9209V32.5461H35.1896V31.2773Z" fill="#2D2D2D"/>
<path d="M36.4567 31.2776H35.188V32.5463H36.4567V31.2776Z" fill="#2D2D2D"/>
<path d="M38.9953 31.2776H37.7266V32.5463H38.9953V31.2776Z" fill="#2D2D2D"/>
<path d="M40.3693 31.2776H39.1006V32.5463H40.3693V31.2776Z" fill="#2D2D2D"/>
<path d="M42.9079 31.2776H41.6392V32.5463H42.9079V31.2776Z" fill="#2D2D2D"/>
<path d="M46.8195 31.2773H45.5508V32.5461H46.8195V31.2773Z" fill="#2D2D2D"/>
<path d="M49.464 31.2776H48.1953V32.5463H49.464V31.2776Z" fill="#2D2D2D"/>
<path d="M51.9997 31.2776H50.731V32.5463H51.9997V31.2776Z" fill="#2D2D2D"/>
<path d="M5.26872 32.5461H4V33.8149H5.26872V32.5461Z" fill="#2D2D2D"/>
<path d="M6.5363 32.5461H5.26758V33.8149H6.5363V32.5461Z" fill="#2D2D2D"/>
<path d="M11.7175 32.5461H10.4487V33.8149H11.7175V32.5461Z" fill="#2D2D2D"/>
<path d="M13.0939 32.5461H11.8252V33.8149H13.0939V32.5461Z" fill="#2D2D2D"/>
<path d="M14.36 32.5461H13.0913V33.8149H14.36V32.5461Z" fill="#2D2D2D"/>
<path d="M17.0046 32.5461H15.7358V33.8149H17.0046V32.5461Z" fill="#2D2D2D"/>
<path d="M18.2726 32.5461H17.0039V33.8149H18.2726V32.5461Z" fill="#2D2D2D"/>
<path d="M19.5426 32.5461H18.2739V33.8149H19.5426V32.5461Z" fill="#2D2D2D"/>
<path d="M24.7243 32.5461H23.4556V33.8149H24.7243V32.5461Z" fill="#2D2D2D"/>
<path d="M26.0968 32.5461H24.8281V33.8149H26.0968V32.5461Z" fill="#2D2D2D"/>
<path d="M27.3649 32.5461H26.0962V33.8149H27.3649V32.5461Z" fill="#2D2D2D"/>
<path d="M28.6344 32.5461H27.3657V33.8149H28.6344V32.5461Z" fill="#2D2D2D"/>
<path d="M31.2775 32.5461H30.0088V33.8149H31.2775V32.5461Z" fill="#2D2D2D"/>
<path d="M33.8156 32.5461H32.5469V33.8149H33.8156V32.5461Z" fill="#2D2D2D"/>
<path d="M35.1896 32.5461H33.9209V33.8149H35.1896V32.5461Z" fill="#2D2D2D"/>
<path d="M38.9953 32.5461H37.7266V33.8149H38.9953V32.5461Z" fill="#2D2D2D"/>
<path d="M40.3693 32.5461H39.1006V33.8149H40.3693V32.5461Z" fill="#2D2D2D"/>
<path d="M42.9079 32.5461H41.6392V33.8149H42.9079V32.5461Z" fill="#2D2D2D"/>
<path d="M44.2819 32.5461H43.0132V33.8149H44.2819V32.5461Z" fill="#2D2D2D"/>
<path d="M45.5495 32.5461H44.2808V33.8149H45.5495V32.5461Z" fill="#2D2D2D"/>
<path d="M48.0871 32.5461H46.8184V33.8149H48.0871V32.5461Z" fill="#2D2D2D"/>
<path d="M51.9997 32.5461H50.731V33.8149H51.9997V32.5461Z" fill="#2D2D2D"/>
<path d="M5.26872 33.9207H4V35.1894H5.26872V33.9207Z" fill="#2D2D2D"/>
<path d="M6.5363 33.9207H5.26758V35.1894H6.5363V33.9207Z" fill="#2D2D2D"/>
<path d="M9.17937 33.9207H7.91064V35.1894H9.17937V33.9207Z" fill="#2D2D2D"/>
<path d="M22.1852 33.9207H20.9165V35.1894H22.1852V33.9207Z" fill="#2D2D2D"/>
<path d="M24.7243 33.9207H23.4556V35.1894H24.7243V33.9207Z" fill="#2D2D2D"/>
<path d="M27.3649 33.9207H26.0962V35.1894H27.3649V33.9207Z" fill="#2D2D2D"/>
<path d="M29.903 33.9207H28.6343V35.1894H29.903V33.9207Z" fill="#2D2D2D"/>
<path d="M31.2775 33.9207H30.0088V35.1894H31.2775V33.9207Z" fill="#2D2D2D"/>
<path d="M32.547 33.9207H31.2783V35.1894H32.547V33.9207Z" fill="#2D2D2D"/>
<path d="M33.8156 33.9207H32.5469V35.1894H33.8156V33.9207Z" fill="#2D2D2D"/>
<path d="M35.1896 33.9207H33.9209V35.1894H35.1896V33.9207Z" fill="#2D2D2D"/>
<path d="M38.9953 33.9207H37.7266V35.1894H38.9953V33.9207Z" fill="#2D2D2D"/>
<path d="M40.3693 33.9207H39.1006V35.1894H40.3693V33.9207Z" fill="#2D2D2D"/>
<path d="M42.9079 33.9207H41.6392V35.1894H42.9079V33.9207Z" fill="#2D2D2D"/>
<path d="M44.2819 33.9207H43.0132V35.1894H44.2819V33.9207Z" fill="#2D2D2D"/>
<path d="M45.5495 33.9207H44.2808V35.1894H45.5495V33.9207Z" fill="#2D2D2D"/>
<path d="M46.8195 33.9207H45.5508V35.1894H46.8195V33.9207Z" fill="#2D2D2D"/>
<path d="M48.0871 33.9207H46.8184V35.1894H48.0871V33.9207Z" fill="#2D2D2D"/>
<path d="M49.464 33.9207H48.1953V35.1894H49.464V33.9207Z" fill="#2D2D2D"/>
<path d="M50.7306 33.9207H49.4619V35.1894H50.7306V33.9207Z" fill="#2D2D2D"/>
<path d="M5.26872 35.1895H4V36.4582H5.26872V35.1895Z" fill="#2D2D2D"/>
<path d="M9.17937 35.1895H7.91064V36.4582H9.17937V35.1895Z" fill="#2D2D2D"/>
<path d="M13.0939 35.1895H11.8252V36.4582H13.0939V35.1895Z" fill="#2D2D2D"/>
<path d="M14.36 35.1895H13.0913V36.4582H14.36V35.1895Z" fill="#2D2D2D"/>
<path d="M15.631 35.1895H14.3623V36.4582H15.631V35.1895Z" fill="#2D2D2D"/>
<path d="M17.0046 35.1895H15.7358V36.4582H17.0046V35.1895Z" fill="#2D2D2D"/>
<path d="M18.2726 35.1895H17.0039V36.4582H18.2726V35.1895Z" fill="#2D2D2D"/>
<path d="M20.8092 35.1895H19.5405V36.4582H20.8092V35.1895Z" fill="#2D2D2D"/>
<path d="M24.7243 35.1895H23.4556V36.4582H24.7243V35.1895Z" fill="#2D2D2D"/>
<path d="M26.0968 35.1895H24.8281V36.4582H26.0968V35.1895Z" fill="#2D2D2D"/>
<path d="M27.3649 35.1895H26.0962V36.4582H27.3649V35.1895Z" fill="#2D2D2D"/>
<path d="M28.6344 35.1895H27.3657V36.4582H28.6344V35.1895Z" fill="#2D2D2D"/>
<path d="M31.2775 35.1895H30.0088V36.4582H31.2775V35.1895Z" fill="#2D2D2D"/>
<path d="M33.8156 35.1895H32.5469V36.4582H33.8156V35.1895Z" fill="#2D2D2D"/>
<path d="M36.4567 35.1895H35.188V36.4582H36.4567V35.1895Z" fill="#2D2D2D"/>
<path d="M37.7258 35.1895H36.457V36.4582H37.7258V35.1895Z" fill="#2D2D2D"/>
<path d="M42.9079 35.1895H41.6392V36.4582H42.9079V35.1895Z" fill="#2D2D2D"/>
<path d="M46.8195 35.1895H45.5508V36.4582H46.8195V35.1895Z" fill="#2D2D2D"/>
<path d="M5.26872 36.458H4V37.7267H5.26872V36.458Z" fill="#2D2D2D"/>
<path d="M9.17937 36.458H7.91064V37.7267H9.17937V36.458Z" fill="#2D2D2D"/>
<path d="M10.4499 36.458H9.18115V37.7267H10.4499V36.458Z" fill="#2D2D2D"/>
<path d="M14.36 36.458H13.0913V37.7267H14.36V36.458Z" fill="#2D2D2D"/>
<path d="M15.631 36.458H14.3623V37.7267H15.631V36.458Z" fill="#2D2D2D"/>
<path d="M17.0046 36.458H15.7358V37.7267H17.0046V36.458Z" fill="#2D2D2D"/>
<path d="M18.2726 36.458H17.0039V37.7267H18.2726V36.458Z" fill="#2D2D2D"/>
<path d="M20.8092 36.458H19.5405V37.7267H20.8092V36.458Z" fill="#2D2D2D"/>
<path d="M22.1852 36.458H20.9165V37.7267H22.1852V36.458Z" fill="#2D2D2D"/>
<path d="M26.0968 36.458H24.8281V37.7267H26.0968V36.458Z" fill="#2D2D2D"/>
<path d="M29.903 36.458H28.6343V37.7267H29.903V36.458Z" fill="#2D2D2D"/>
<path d="M31.2775 36.458H30.0088V37.7267H31.2775V36.458Z" fill="#2D2D2D"/>
<path d="M33.8156 36.458H32.5469V37.7267H33.8156V36.458Z" fill="#2D2D2D"/>
<path d="M36.4567 36.458H35.188V37.7267H36.4567V36.458Z" fill="#2D2D2D"/>
<path d="M38.9953 36.458H37.7266V37.7267H38.9953V36.458Z" fill="#2D2D2D"/>
<path d="M40.3693 36.458H39.1006V37.7267H40.3693V36.458Z" fill="#2D2D2D"/>
<path d="M41.6388 36.458H40.3701V37.7267H41.6388V36.458Z" fill="#2D2D2D"/>
<path d="M45.5495 36.458H44.2808V37.7267H45.5495V36.458Z" fill="#2D2D2D"/>
<path d="M5.26872 37.7268H4V38.9955H5.26872V37.7268Z" fill="#2D2D2D"/>
<path d="M6.5363 37.7268H5.26758V38.9955H6.5363V37.7268Z" fill="#2D2D2D"/>
<path d="M10.4499 37.7268H9.18115V38.9955H10.4499V37.7268Z" fill="#2D2D2D"/>
<path d="M13.0939 37.7268H11.8252V38.9955H13.0939V37.7268Z" fill="#2D2D2D"/>
<path d="M15.631 37.7268H14.3623V38.9955H15.631V37.7268Z" fill="#2D2D2D"/>
<path d="M17.0046 37.7268H15.7358V38.9955H17.0046V37.7268Z" fill="#2D2D2D"/>
<path d="M18.2726 37.7268H17.0039V38.9955H18.2726V37.7268Z" fill="#2D2D2D"/>
<path d="M22.1852 37.7268H20.9165V38.9955H22.1852V37.7268Z" fill="#2D2D2D"/>
<path d="M23.4528 37.7268H22.1841V38.9955H23.4528V37.7268Z" fill="#2D2D2D"/>
<path d="M26.0968 37.7268H24.8281V38.9955H26.0968V37.7268Z" fill="#2D2D2D"/>
<path d="M27.3649 37.7268H26.0962V38.9955H27.3649V37.7268Z" fill="#2D2D2D"/>
<path d="M29.903 37.7268H28.6343V38.9955H29.903V37.7268Z" fill="#2D2D2D"/>
<path d="M32.547 37.7268H31.2783V38.9955H32.547V37.7268Z" fill="#2D2D2D"/>
<path d="M33.8156 37.7268H32.5469V38.9955H33.8156V37.7268Z" fill="#2D2D2D"/>
<path d="M35.1896 37.7268H33.9209V38.9955H35.1896V37.7268Z" fill="#2D2D2D"/>
<path d="M36.4567 37.7268H35.188V38.9955H36.4567V37.7268Z" fill="#2D2D2D"/>
<path d="M38.9953 37.7268H37.7266V38.9955H38.9953V37.7268Z" fill="#2D2D2D"/>
<path d="M40.3693 37.7268H39.1006V38.9955H40.3693V37.7268Z" fill="#2D2D2D"/>
<path d="M44.2819 37.7268H43.0132V38.9955H44.2819V37.7268Z" fill="#2D2D2D"/>
<path d="M45.5495 37.7268H44.2808V38.9955H45.5495V37.7268Z" fill="#2D2D2D"/>
<path d="M46.8195 37.7268H45.5508V38.9955H46.8195V37.7268Z" fill="#2D2D2D"/>
<path d="M50.7306 37.7268H49.4619V38.9955H50.7306V37.7268Z" fill="#2D2D2D"/>
<path d="M51.9997 37.7268H50.731V38.9955H51.9997V37.7268Z" fill="#2D2D2D"/>
<path d="M5.26872 39.1013H4V40.37H5.26872V39.1013Z" fill="#2D2D2D"/>
<path d="M11.7175 39.1013H10.4487V40.37H11.7175V39.1013Z" fill="#2D2D2D"/>
<path d="M14.36 39.1013H13.0913V40.37H14.36V39.1013Z" fill="#2D2D2D"/>
<path d="M20.8092 39.1013H19.5405V40.37H20.8092V39.1013Z" fill="#2D2D2D"/>
<path d="M24.7243 39.1013H23.4556V40.37H24.7243V39.1013Z" fill="#2D2D2D"/>
<path d="M27.3649 39.1013H26.0962V40.37H27.3649V39.1013Z" fill="#2D2D2D"/>
<path d="M28.6344 39.1013H27.3657V40.37H28.6344V39.1013Z" fill="#2D2D2D"/>
<path d="M31.2775 39.1013H30.0088V40.37H31.2775V39.1013Z" fill="#2D2D2D"/>
<path d="M33.8156 39.1013H32.5469V40.37H33.8156V39.1013Z" fill="#2D2D2D"/>
<path d="M35.1896 39.1013H33.9209V40.37H35.1896V39.1013Z" fill="#2D2D2D"/>
<path d="M38.9953 39.1013H37.7266V40.37H38.9953V39.1013Z" fill="#2D2D2D"/>
<path d="M40.3693 39.1013H39.1006V40.37H40.3693V39.1013Z" fill="#2D2D2D"/>
<path d="M41.6388 39.1013H40.3701V40.37H41.6388V39.1013Z" fill="#2D2D2D"/>
<path d="M44.2819 39.1013H43.0132V40.37H44.2819V39.1013Z" fill="#2D2D2D"/>
<path d="M46.8195 39.1013H45.5508V40.37H46.8195V39.1013Z" fill="#2D2D2D"/>
<path d="M50.7306 39.1013H49.4619V40.37H50.7306V39.1013Z" fill="#2D2D2D"/>
<path d="M5.26872 40.3699H4V41.6386H5.26872V40.3699Z" fill="#2D2D2D"/>
<path d="M7.91276 40.3699H6.64404V41.6386H7.91276V40.3699Z" fill="#2D2D2D"/>
<path d="M9.17937 40.3701H7.91064V41.6388H9.17937V40.3701Z" fill="#2D2D2D"/>
<path d="M13.0939 40.3699H11.8252V41.6386H13.0939V40.3699Z" fill="#2D2D2D"/>
<path d="M18.2726 40.3699H17.0039V41.6386H18.2726V40.3699Z" fill="#2D2D2D"/>
<path d="M19.5426 40.3699H18.2739V41.6386H19.5426V40.3699Z" fill="#2D2D2D"/>
<path d="M22.1852 40.3699H20.9165V41.6386H22.1852V40.3699Z" fill="#2D2D2D"/>
<path d="M28.6344 40.3701H27.3657V41.6388H28.6344V40.3701Z" fill="#2D2D2D"/>
<path d="M31.2775 40.3701H30.0088V41.6388H31.2775V40.3701Z" fill="#2D2D2D"/>
<path d="M33.8156 40.3699H32.5469V41.6386H33.8156V40.3699Z" fill="#2D2D2D"/>
<path d="M36.4567 40.3701H35.188V41.6388H36.4567V40.3701Z" fill="#2D2D2D"/>
<path d="M37.7258 40.3701H36.457V41.6388H37.7258V40.3701Z" fill="#2D2D2D"/>
<path d="M41.6388 40.3701H40.3701V41.6388H41.6388V40.3701Z" fill="#2D2D2D"/>
<path d="M42.9079 40.3701H41.6392V41.6388H42.9079V40.3701Z" fill="#2D2D2D"/>
<path d="M44.2819 40.3701H43.0132V41.6388H44.2819V40.3701Z" fill="#2D2D2D"/>
<path d="M45.5495 40.3699H44.2808V41.6386H45.5495V40.3699Z" fill="#2D2D2D"/>
<path d="M46.8195 40.3699H45.5508V41.6386H46.8195V40.3699Z" fill="#2D2D2D"/>
<path d="M48.0871 40.3701H46.8184V41.6388H48.0871V40.3701Z" fill="#2D2D2D"/>
<path d="M49.464 40.3701H48.1953V41.6388H49.464V40.3701Z" fill="#2D2D2D"/>
<path d="M50.7306 40.3699H49.4619V41.6386H50.7306V40.3699Z" fill="#2D2D2D"/>
<path d="M51.9997 40.3701H50.731V41.6388H51.9997V40.3701Z" fill="#2D2D2D"/>
<path d="M15.631 41.6387H14.3623V42.9074H15.631V41.6387Z" fill="#2D2D2D"/>
<path d="M17.0046 41.6387H15.7358V42.9074H17.0046V41.6387Z" fill="#2D2D2D"/>
<path d="M19.5426 41.6387H18.2739V42.9074H19.5426V41.6387Z" fill="#2D2D2D"/>
<path d="M22.1852 41.6387H20.9165V42.9074H22.1852V41.6387Z" fill="#2D2D2D"/>
<path d="M24.7243 41.6387H23.4556V42.9074H24.7243V41.6387Z" fill="#2D2D2D"/>
<path d="M26.0968 41.6387H24.8281V42.9074H26.0968V41.6387Z" fill="#2D2D2D"/>
<path d="M29.903 41.6387H28.6343V42.9074H29.903V41.6387Z" fill="#2D2D2D"/>
<path d="M31.2775 41.6387H30.0088V42.9074H31.2775V41.6387Z" fill="#2D2D2D"/>
<path d="M32.547 41.6387H31.2783V42.9074H32.547V41.6387Z" fill="#2D2D2D"/>
<path d="M41.6388 41.6387H40.3701V42.9074H41.6388V41.6387Z" fill="#2D2D2D"/>
<path d="M46.8195 41.6387H45.5508V42.9074H46.8195V41.6387Z" fill="#2D2D2D"/>
<path d="M49.464 41.6387H48.1953V42.9074H49.464V41.6387Z" fill="#2D2D2D"/>
<path d="M51.9997 41.6387H50.731V42.9074H51.9997V41.6387Z" fill="#2D2D2D"/>
<path d="M5.26872 43.0132H4V44.2819H5.26872V43.0132Z" fill="#2D2D2D"/>
<path d="M6.5363 43.0132H5.26758V44.2819H6.5363V43.0132Z" fill="#2D2D2D"/>
<path d="M7.91276 43.0132H6.64404V44.2819H7.91276V43.0132Z" fill="#2D2D2D"/>
<path d="M9.17937 43.0132H7.91064V44.2819H9.17937V43.0132Z" fill="#2D2D2D"/>
<path d="M10.4499 43.0132H9.18115V44.2819H10.4499V43.0132Z" fill="#2D2D2D"/>
<path d="M11.7175 43.0132H10.4487V44.2819H11.7175V43.0132Z" fill="#2D2D2D"/>
<path d="M13.0939 43.0132H11.8252V44.2819H13.0939V43.0132Z" fill="#2D2D2D"/>
<path d="M15.631 43.0132H14.3623V44.2819H15.631V43.0132Z" fill="#2D2D2D"/>
<path d="M18.2726 43.0132H17.0039V44.2819H18.2726V43.0132Z" fill="#2D2D2D"/>
<path d="M19.5426 43.0132H18.2739V44.2819H19.5426V43.0132Z" fill="#2D2D2D"/>
<path d="M23.4528 43.0132H22.1841V44.2819H23.4528V43.0132Z" fill="#2D2D2D"/>
<path d="M29.903 43.0132H28.6343V44.2819H29.903V43.0132Z" fill="#2D2D2D"/>
<path d="M33.8156 43.0132H32.5469V44.2819H33.8156V43.0132Z" fill="#2D2D2D"/>
<path d="M35.1896 43.0132H33.9209V44.2819H35.1896V43.0132Z" fill="#2D2D2D"/>
<path d="M37.7258 43.0132H36.457V44.2819H37.7258V43.0132Z" fill="#2D2D2D"/>
<path d="M41.6388 43.0132H40.3701V44.2819H41.6388V43.0132Z" fill="#2D2D2D"/>
<path d="M44.2819 43.0132H43.0132V44.2819H44.2819V43.0132Z" fill="#2D2D2D"/>
<path d="M46.8195 43.0132H45.5508V44.2819H46.8195V43.0132Z" fill="#2D2D2D"/>
<path d="M5.26872 44.282H4V45.5507H5.26872V44.282Z" fill="#2D2D2D"/>
<path d="M13.0939 44.282H11.8252V45.5507H13.0939V44.282Z" fill="#2D2D2D"/>
<path d="M15.631 44.282H14.3623V45.5507H15.631V44.282Z" fill="#2D2D2D"/>
<path d="M19.5426 44.282H18.2739V45.5507H19.5426V44.282Z" fill="#2D2D2D"/>
<path d="M20.8092 44.282H19.5405V45.5507H20.8092V44.282Z" fill="#2D2D2D"/>
<path d="M22.1852 44.282H20.9165V45.5507H22.1852V44.282Z" fill="#2D2D2D"/>
<path d="M23.4528 44.282H22.1841V45.5507H23.4528V44.282Z" fill="#2D2D2D"/>
<path d="M26.0968 44.282H24.8281V45.5507H26.0968V44.282Z" fill="#2D2D2D"/>
<path d="M27.3649 44.282H26.0962V45.5507H27.3649V44.282Z" fill="#2D2D2D"/>
<path d="M28.6344 44.282H27.3657V45.5507H28.6344V44.282Z" fill="#2D2D2D"/>
<path d="M33.8156 44.282H32.5469V45.5507H33.8156V44.282Z" fill="#2D2D2D"/>
<path d="M35.1896 44.282H33.9209V45.5507H35.1896V44.282Z" fill="#2D2D2D"/>
<path d="M38.9953 44.282H37.7266V45.5507H38.9953V44.282Z" fill="#2D2D2D"/>
<path d="M41.6388 44.282H40.3701V45.5507H41.6388V44.282Z" fill="#2D2D2D"/>
<path d="M46.8195 44.282H45.5508V45.5507H46.8195V44.282Z" fill="#2D2D2D"/>
<path d="M51.9997 44.282H50.731V45.5507H51.9997V44.282Z" fill="#2D2D2D"/>
<path d="M5.26872 45.5505H4V46.8193H5.26872V45.5505Z" fill="#2D2D2D"/>
<path d="M7.91276 45.5505H6.64404V46.8193H7.91276V45.5505Z" fill="#2D2D2D"/>
<path d="M9.17937 45.5505H7.91064V46.8193H9.17937V45.5505Z" fill="#2D2D2D"/>
<path d="M10.4499 45.5505H9.18115V46.8193H10.4499V45.5505Z" fill="#2D2D2D"/>
<path d="M13.0939 45.5505H11.8252V46.8193H13.0939V45.5505Z" fill="#2D2D2D"/>
<path d="M15.631 45.5505H14.3623V46.8193H15.631V45.5505Z" fill="#2D2D2D"/>
<path d="M18.2726 45.5505H17.0039V46.8193H18.2726V45.5505Z" fill="#2D2D2D"/>
<path d="M22.1852 45.5505H20.9165V46.8193H22.1852V45.5505Z" fill="#2D2D2D"/>
<path d="M23.4528 45.5505H22.1841V46.8193H23.4528V45.5505Z" fill="#2D2D2D"/>
<path d="M24.7243 45.5505H23.4556V46.8193H24.7243V45.5505Z" fill="#2D2D2D"/>
<path d="M33.8156 45.5505H32.5469V46.8193H33.8156V45.5505Z" fill="#2D2D2D"/>
<path d="M35.1896 45.5505H33.9209V46.8193H35.1896V45.5505Z" fill="#2D2D2D"/>
<path d="M38.9953 45.5505H37.7266V46.8193H38.9953V45.5505Z" fill="#2D2D2D"/>
<path d="M40.3693 45.5505H39.1006V46.8193H40.3693V45.5505Z" fill="#2D2D2D"/>
<path d="M41.6388 45.5505H40.3701V46.8193H41.6388V45.5505Z" fill="#2D2D2D"/>
<path d="M42.9079 45.5505H41.6392V46.8193H42.9079V45.5505Z" fill="#2D2D2D"/>
<path d="M44.2819 45.5505H43.0132V46.8193H44.2819V45.5505Z" fill="#2D2D2D"/>
<path d="M45.5495 45.5505H44.2808V46.8193H45.5495V45.5505Z" fill="#2D2D2D"/>
<path d="M46.8195 45.5505H45.5508V46.8193H46.8195V45.5505Z" fill="#2D2D2D"/>
<path d="M51.9997 45.5505H50.731V46.8193H51.9997V45.5505Z" fill="#2D2D2D"/>
<path d="M5.26872 46.8193H4V48.0881H5.26872V46.8193Z" fill="#2D2D2D"/>
<path d="M7.91276 46.8193H6.64404V48.0881H7.91276V46.8193Z" fill="#2D2D2D"/>
<path d="M9.17937 46.8193H7.91064V48.0881H9.17937V46.8193Z" fill="#2D2D2D"/>
<path d="M10.4499 46.8193H9.18115V48.0881H10.4499V46.8193Z" fill="#2D2D2D"/>
<path d="M13.0939 46.8193H11.8252V48.0881H13.0939V46.8193Z" fill="#2D2D2D"/>
<path d="M15.631 46.8193H14.3623V48.0881H15.631V46.8193Z" fill="#2D2D2D"/>
<path d="M19.5426 46.8193H18.2739V48.0881H19.5426V46.8193Z" fill="#2D2D2D"/>
<path d="M20.8092 46.8193H19.5405V48.0881H20.8092V46.8193Z" fill="#2D2D2D"/>
<path d="M26.0968 46.8193H24.8281V48.0881H26.0968V46.8193Z" fill="#2D2D2D"/>
<path d="M27.3649 46.8193H26.0962V48.0881H27.3649V46.8193Z" fill="#2D2D2D"/>
<path d="M28.6344 46.8193H27.3657V48.0881H28.6344V46.8193Z" fill="#2D2D2D"/>
<path d="M31.2775 46.8193H30.0088V48.0881H31.2775V46.8193Z" fill="#2D2D2D"/>
<path d="M35.1896 46.8193H33.9209V48.0881H35.1896V46.8193Z" fill="#2D2D2D"/>
<path d="M38.9953 46.8193H37.7266V48.0881H38.9953V46.8193Z" fill="#2D2D2D"/>
<path d="M40.3693 46.8193H39.1006V48.0881H40.3693V46.8193Z" fill="#2D2D2D"/>
<path d="M42.9079 46.8193H41.6392V48.0881H42.9079V46.8193Z" fill="#2D2D2D"/>
<path d="M44.2819 46.8193H43.0132V48.0881H44.2819V46.8193Z" fill="#2D2D2D"/>
<path d="M48.0871 46.8193H46.8184V48.0881H48.0871V46.8193Z" fill="#2D2D2D"/>
<path d="M5.26872 48.1936H4V49.4623H5.26872V48.1936Z" fill="#2D2D2D"/>
<path d="M7.91276 48.1936H6.64404V49.4623H7.91276V48.1936Z" fill="#2D2D2D"/>
<path d="M9.17937 48.1936H7.91064V49.4623H9.17937V48.1936Z" fill="#2D2D2D"/>
<path d="M10.4499 48.1936H9.18115V49.4623H10.4499V48.1936Z" fill="#2D2D2D"/>
<path d="M13.0939 48.1936H11.8252V49.4623H13.0939V48.1936Z" fill="#2D2D2D"/>
<path d="M17.0046 48.1936H15.7358V49.4623H17.0046V48.1936Z" fill="#2D2D2D"/>
<path d="M18.2726 48.1936H17.0039V49.4623H18.2726V48.1936Z" fill="#2D2D2D"/>
<path d="M20.8092 48.1936H19.5405V49.4623H20.8092V48.1936Z" fill="#2D2D2D"/>
<path d="M24.7243 48.1936H23.4556V49.4623H24.7243V48.1936Z" fill="#2D2D2D"/>
<path d="M26.0968 48.1936H24.8281V49.4623H26.0968V48.1936Z" fill="#2D2D2D"/>
<path d="M28.6344 48.1936H27.3657V49.4623H28.6344V48.1936Z" fill="#2D2D2D"/>
<path d="M29.903 48.1936H28.6343V49.4623H29.903V48.1936Z" fill="#2D2D2D"/>
<path d="M31.2775 48.1936H30.0088V49.4623H31.2775V48.1936Z" fill="#2D2D2D"/>
<path d="M32.547 48.1936H31.2783V49.4623H32.547V48.1936Z" fill="#2D2D2D"/>
<path d="M35.1896 48.1936H33.9209V49.4623H35.1896V48.1936Z" fill="#2D2D2D"/>
<path d="M36.4567 48.1936H35.188V49.4623H36.4567V48.1936Z" fill="#2D2D2D"/>
<path d="M37.7258 48.1936H36.457V49.4623H37.7258V48.1936Z" fill="#2D2D2D"/>
<path d="M38.9953 48.1936H37.7266V49.4623H38.9953V48.1936Z" fill="#2D2D2D"/>
<path d="M40.3693 48.1936H39.1006V49.4623H40.3693V48.1936Z" fill="#2D2D2D"/>
<path d="M46.8195 48.1936H45.5508V49.4623H46.8195V48.1936Z" fill="#2D2D2D"/>
<path d="M49.464 48.1936H48.1953V49.4623H49.464V48.1936Z" fill="#2D2D2D"/>
<path d="M50.7306 48.1936H49.4619V49.4623H50.7306V48.1936Z" fill="#2D2D2D"/>
<path d="M51.9997 48.1936H50.731V49.4623H51.9997V48.1936Z" fill="#2D2D2D"/>
<path d="M5.26872 49.4624H4V50.7311H5.26872V49.4624Z" fill="#2D2D2D"/>
<path d="M13.0939 49.4624H11.8252V50.7311H13.0939V49.4624Z" fill="#2D2D2D"/>
<path d="M17.0046 49.4626H15.7358V50.7314H17.0046V49.4626Z" fill="#2D2D2D"/>
<path d="M18.2726 49.4624H17.0039V50.7311H18.2726V49.4624Z" fill="#2D2D2D"/>
<path d="M19.5426 49.4624H18.2739V50.7311H19.5426V49.4624Z" fill="#2D2D2D"/>
<path d="M23.4528 49.4626H22.1841V50.7314H23.4528V49.4626Z" fill="#2D2D2D"/>
<path d="M26.0968 49.4624H24.8281V50.7311H26.0968V49.4624Z" fill="#2D2D2D"/>
<path d="M27.3649 49.4626H26.0962V50.7314H27.3649V49.4626Z" fill="#2D2D2D"/>
<path d="M28.6344 49.4626H27.3657V50.7314H28.6344V49.4626Z" fill="#2D2D2D"/>
<path d="M31.2775 49.4626H30.0088V50.7314H31.2775V49.4626Z" fill="#2D2D2D"/>
<path d="M33.8156 49.4624H32.5469V50.7311H33.8156V49.4624Z" fill="#2D2D2D"/>
<path d="M36.4567 49.4626H35.188V50.7314H36.4567V49.4626Z" fill="#2D2D2D"/>
<path d="M38.9953 49.4626H37.7266V50.7314H38.9953V49.4626Z" fill="#2D2D2D"/>
<path d="M42.9079 49.4626H41.6392V50.7314H42.9079V49.4626Z" fill="#2D2D2D"/>
<path d="M44.2819 49.4626H43.0132V50.7314H44.2819V49.4626Z" fill="#2D2D2D"/>
<path d="M46.8195 49.4624H45.5508V50.7311H46.8195V49.4624Z" fill="#2D2D2D"/>
<path d="M49.464 49.4626H48.1953V50.7314H49.464V49.4626Z" fill="#2D2D2D"/>
<path d="M50.7306 49.4624H49.4619V50.7311H50.7306V49.4624Z" fill="#2D2D2D"/>
<path d="M51.9997 49.4626H50.731V50.7314H51.9997V49.4626Z" fill="#2D2D2D"/>
<path d="M5.26872 50.7312H4V51.9999H5.26872V50.7312Z" fill="#2D2D2D"/>
<path d="M6.5363 50.7312H5.26758V51.9999H6.5363V50.7312Z" fill="#2D2D2D"/>
<path d="M7.91276 50.7312H6.64404V51.9999H7.91276V50.7312Z" fill="#2D2D2D"/>
<path d="M9.17937 50.7312H7.91064V51.9999H9.17937V50.7312Z" fill="#2D2D2D"/>
<path d="M10.4499 50.7312H9.18115V51.9999H10.4499V50.7312Z" fill="#2D2D2D"/>
<path d="M11.7175 50.7312H10.4487V51.9999H11.7175V50.7312Z" fill="#2D2D2D"/>
<path d="M13.0939 50.7312H11.8252V51.9999H13.0939V50.7312Z" fill="#2D2D2D"/>
<path d="M15.631 50.7312H14.3623V51.9999H15.631V50.7312Z" fill="#2D2D2D"/>
<path d="M19.5426 50.7312H18.2739V51.9999H19.5426V50.7312Z" fill="#2D2D2D"/>
<path d="M22.1852 50.7312H20.9165V51.9999H22.1852V50.7312Z" fill="#2D2D2D"/>
<path d="M24.7243 50.7312H23.4556V51.9999H24.7243V50.7312Z" fill="#2D2D2D"/>
<path d="M27.3649 50.7312H26.0962V51.9999H27.3649V50.7312Z" fill="#2D2D2D"/>
<path d="M28.6344 50.7312H27.3657V51.9999H28.6344V50.7312Z" fill="#2D2D2D"/>
<path d="M29.903 50.7312H28.6343V51.9999H29.903V50.7312Z" fill="#2D2D2D"/>
<path d="M31.2775 50.7312H30.0088V51.9999H31.2775V50.7312Z" fill="#2D2D2D"/>
<path d="M33.8156 50.7312H32.5469V51.9999H33.8156V50.7312Z" fill="#2D2D2D"/>
<path d="M35.1896 50.7312H33.9209V51.9999H35.1896V50.7312Z" fill="#2D2D2D"/>
<path d="M36.4567 50.7312H35.188V51.9999H36.4567V50.7312Z" fill="#2D2D2D"/>
<path d="M40.3693 50.7312H39.1006V51.9999H40.3693V50.7312Z" fill="#2D2D2D"/>
<path d="M41.6388 50.7312H40.3701V51.9999H41.6388V50.7312Z" fill="#2D2D2D"/>
<path d="M42.9079 50.7312H41.6392V51.9999H42.9079V50.7312Z" fill="#2D2D2D"/>
<path d="M44.2819 50.7312H43.0132V51.9999H44.2819V50.7312Z" fill="#2D2D2D"/>
<path d="M45.5495 50.7312H44.2808V51.9999H45.5495V50.7312Z" fill="#2D2D2D"/>
<path d="M48.0871 50.7312H46.8184V51.9999H48.0871V50.7312Z" fill="#2D2D2D"/>
<path d="M49.464 50.7312H48.1953V51.9999H49.464V50.7312Z" fill="#2D2D2D"/>
<path d="M51.9997 50.7312H50.731V51.9999H51.9997V50.7312Z" fill="#2D2D2D"/>
<path d="M63.949 3.55297V11.6865H62.8876V3.55297H63.949ZM66.5633 3.55297V4.4356H60.2788V3.55297H66.5633ZM70.5407 10.6531V7.54154C70.5407 7.30319 70.4923 7.0965 70.3955 6.92147C70.3024 6.74271 70.1609 6.60492 69.9709 6.50809C69.781 6.41126 69.5464 6.36285 69.2671 6.36285C69.0064 6.36285 68.7773 6.40754 68.58 6.49692C68.3863 6.5863 68.2336 6.70361 68.1219 6.84885C68.0139 6.99409 67.9599 7.1505 67.9599 7.31809H66.9264C66.9264 7.10209 66.9823 6.88795 67.094 6.67567C67.2057 6.4634 67.3659 6.2716 67.5744 6.10029C67.7867 5.92526 68.04 5.78746 68.3342 5.68691C68.6321 5.58264 68.9635 5.5305 69.3285 5.5305C69.768 5.5305 70.1553 5.60498 70.4905 5.75395C70.8294 5.90291 71.0938 6.12822 71.2837 6.42988C71.4774 6.72781 71.5742 7.10209 71.5742 7.55271V10.3682C71.5742 10.5693 71.5909 10.7834 71.6245 11.0106C71.6617 11.2378 71.7157 11.4333 71.7865 11.5971V11.6865H70.7083C70.6562 11.5674 70.6152 11.4091 70.5854 11.2117C70.5556 11.0106 70.5407 10.8244 70.5407 10.6531ZM70.7195 8.02196L70.7307 8.74817H69.686C69.3918 8.74817 69.1293 8.77237 68.8984 8.82079C68.6675 8.86548 68.4738 8.93437 68.3174 9.02748C68.161 9.12058 68.0418 9.23789 67.9599 9.37941C67.878 9.5172 67.837 9.6792 67.837 9.86541C67.837 10.0553 67.8798 10.2285 67.9655 10.3849C68.0511 10.5413 68.1796 10.6661 68.3509 10.7592C68.526 10.8486 68.7401 10.8933 68.9933 10.8933C69.3099 10.8933 69.5892 10.8262 69.8313 10.6922C70.0733 10.5581 70.2651 10.3942 70.4067 10.2006C70.5519 10.0069 70.6301 9.81886 70.6413 9.63638L71.0826 10.1336C71.0565 10.29 70.9858 10.4631 70.8703 10.6531C70.7549 10.843 70.6003 11.0255 70.4067 11.2005C70.2167 11.3718 69.9896 11.5152 69.7251 11.6307C69.4644 11.7424 69.1702 11.7982 68.8425 11.7982C68.4329 11.7982 68.0735 11.7182 67.7644 11.558C67.459 11.3979 67.2206 11.1838 67.0493 10.9156C66.8817 10.6438 66.798 10.3402 66.798 10.0051C66.798 9.68107 66.8613 9.39617 66.9879 9.15037C67.1145 8.90086 67.297 8.69417 67.5353 8.5303C67.7737 8.36272 68.0604 8.2361 68.3956 8.15044C68.7308 8.06478 69.1051 8.02196 69.5184 8.02196H70.7195ZM69.8313 4.65905H69.0883L69.0827 3.80994C69.2727 3.79877 69.4272 3.78015 69.5464 3.75408C69.6656 3.72428 69.7531 3.68146 69.8089 3.62559C69.8648 3.56601 69.8927 3.4878 69.8927 3.39097C69.8927 3.31276 69.8685 3.24759 69.8201 3.19545C69.7717 3.13959 69.7047 3.0949 69.619 3.06138C69.5333 3.02414 69.4347 2.99807 69.3229 2.98318C69.2112 2.96828 69.092 2.96083 68.9654 2.96083L69.0045 2.36869C69.2801 2.36869 69.5222 2.3929 69.7307 2.44131C69.943 2.48973 70.1199 2.56049 70.2614 2.65359C70.4067 2.74669 70.5147 2.85842 70.5854 2.98876C70.6599 3.11538 70.6971 3.2569 70.6971 3.41332C70.6971 3.69635 70.6078 3.90304 70.429 4.03339C70.2502 4.16001 70.0529 4.23822 69.8369 4.26801L69.8313 4.65905ZM74.3226 5.64222V11.6865H73.2836V5.64222H74.3226ZM73.2054 4.03897C73.2054 3.87139 73.2556 3.72987 73.3562 3.61442C73.4605 3.49897 73.6132 3.44125 73.8143 3.44125C74.0116 3.44125 74.1625 3.49897 74.2667 3.61442C74.3747 3.72987 74.4287 3.87139 74.4287 4.03897C74.4287 4.19911 74.3747 4.33691 74.2667 4.45236C74.1625 4.56408 74.0116 4.61994 73.8143 4.61994C73.6132 4.61994 73.4605 4.56408 73.3562 4.45236C73.2556 4.33691 73.2054 4.19911 73.2054 4.03897ZM84.4784 5.15622H85.2716C85.2716 5.56215 85.2176 5.90291 85.1096 6.1785C85.0053 6.45409 84.821 6.66078 84.5566 6.79857C84.2922 6.93637 83.9198 7.00526 83.4393 7.00526V6.36843C83.7745 6.36843 84.0147 6.32747 84.16 6.24554C84.3052 6.15988 84.3946 6.02767 84.4281 5.84891C84.4616 5.67015 84.4784 5.43926 84.4784 5.15622ZM82.5176 10.29V5.64222H83.5566V11.6865H82.5679L82.5176 10.29ZM82.7131 9.01631L83.1433 9.00513C83.1433 9.40734 83.1004 9.77976 83.0148 10.1224C82.9329 10.4613 82.7988 10.7555 82.6126 11.005C82.4264 11.2545 82.1824 11.45 81.8808 11.5916C81.5791 11.7294 81.2123 11.7982 80.7803 11.7982C80.4861 11.7982 80.2161 11.7554 79.9703 11.6698C79.7282 11.5841 79.5197 11.4519 79.3446 11.2731C79.1696 11.0944 79.0337 10.8616 78.9368 10.5749C78.8437 10.2881 78.7972 9.94362 78.7972 9.54141V5.64222H79.8306V9.55258C79.8306 9.82445 79.8604 10.0498 79.92 10.2285C79.9833 10.4036 80.0671 10.5432 80.1714 10.6475C80.2794 10.748 80.3986 10.8188 80.5289 10.8598C80.663 10.9007 80.8008 10.9212 80.9423 10.9212C81.3817 10.9212 81.7299 10.8374 81.9869 10.6698C82.2439 10.4985 82.4282 10.2695 82.54 9.98272C82.6554 9.69224 82.7131 9.3701 82.7131 9.01631ZM80.7021 4.86574L81.7858 3.22338H83.0315L81.5344 4.86574H80.7021ZM86.9363 6.93264V11.6865H85.9029V5.64222H86.8805L86.9363 6.93264ZM86.6905 8.43534L86.2604 8.41858C86.2641 8.0052 86.3256 7.62347 86.4447 7.2734C86.5639 6.91961 86.7315 6.61236 86.9475 6.35167C87.1635 6.09098 87.4205 5.88988 87.7184 5.74836C88.02 5.60312 88.3534 5.5305 88.7183 5.5305C89.0163 5.5305 89.2844 5.57146 89.5227 5.65339C89.7611 5.7316 89.9641 5.85822 90.1316 6.03326C90.3029 6.20829 90.4333 6.43547 90.5227 6.71478C90.6121 6.99037 90.6567 7.3274 90.6567 7.72589V11.6865H89.6177V7.71471C89.6177 7.39816 89.5712 7.14492 89.478 6.95499C89.3849 6.76133 89.249 6.62167 89.0703 6.53602C88.8915 6.44664 88.6718 6.40195 88.4111 6.40195C88.1541 6.40195 87.9195 6.45595 87.7072 6.56395C87.4987 6.67195 87.318 6.82092 87.1654 7.01085C87.0164 7.20078 86.8991 7.41864 86.8134 7.66444C86.7315 7.90651 86.6905 8.16347 86.6905 8.43534ZM96.1424 5.64222H97.0809V11.558C97.0809 12.0906 96.9729 12.5449 96.7569 12.9211C96.5409 13.2972 96.2392 13.5821 95.8519 13.7758C95.4684 13.9732 95.0252 14.0718 94.5224 14.0718C94.3139 14.0718 94.0681 14.0383 93.785 13.9713C93.5057 13.908 93.2301 13.7981 92.9583 13.6417C92.6901 13.489 92.4648 13.2823 92.2823 13.0216L92.8242 12.4071C93.0774 12.7125 93.3419 12.9248 93.6174 13.044C93.8968 13.1632 94.1723 13.2227 94.4442 13.2227C94.7719 13.2227 95.055 13.1613 95.2933 13.0384C95.5317 12.9155 95.716 12.733 95.8464 12.4909C95.9804 12.2526 96.0475 11.9584 96.0475 11.6083V6.97175L96.1424 5.64222ZM91.9807 8.73141V8.6141C91.9807 8.1523 92.0347 7.73333 92.1427 7.3572C92.2544 6.97733 92.4127 6.65147 92.6175 6.3796C92.8261 6.10774 93.0774 5.89919 93.3717 5.75395C93.6659 5.60498 93.9973 5.5305 94.366 5.5305C94.7459 5.5305 95.0773 5.59753 95.3603 5.7316C95.6471 5.86195 95.8892 6.05374 96.0866 6.30698C96.2877 6.5565 96.4459 6.85816 96.5614 7.21195C96.6768 7.56575 96.7569 7.96609 96.8016 8.41299V8.92693C96.7606 9.3701 96.6806 9.76858 96.5614 10.1224C96.4459 10.4762 96.2877 10.7778 96.0866 11.0273C95.8892 11.2769 95.6471 11.4687 95.3603 11.6027C95.0736 11.7331 94.7384 11.7982 94.3548 11.7982C93.9936 11.7982 93.6659 11.7219 93.3717 11.5692C93.0812 11.4165 92.8316 11.2024 92.6231 10.9268C92.4145 10.6512 92.2544 10.3272 92.1427 9.95479C92.0347 9.57865 91.9807 9.17086 91.9807 8.73141ZM93.0141 8.6141V8.73141C93.0141 9.03306 93.0439 9.3161 93.1035 9.58051C93.1668 9.84493 93.2618 10.0777 93.3884 10.2788C93.5188 10.4799 93.6845 10.6382 93.8856 10.7536C94.0867 10.8653 94.3269 10.9212 94.6062 10.9212C94.9488 10.9212 95.2319 10.8486 95.4553 10.7033C95.6788 10.5581 95.8557 10.3663 95.986 10.128C96.1201 9.88962 96.2244 9.63079 96.2988 9.35148V8.0052C96.2579 7.80037 96.1946 7.60299 96.1089 7.41306C96.027 7.2194 95.919 7.04809 95.7849 6.89912C95.6546 6.74643 95.4926 6.6254 95.2989 6.53602C95.1052 6.44664 94.8781 6.40195 94.6174 6.40195C94.3343 6.40195 94.0904 6.46154 93.8856 6.58071C93.6845 6.69616 93.5188 6.8563 93.3884 7.06112C93.2618 7.26223 93.1668 7.49685 93.1035 7.76499C93.0439 8.0294 93.0141 8.31244 93.0141 8.6141ZM105.298 10.5134V3.10607H106.337V11.6865H105.388L105.298 10.5134ZM101.231 8.73141V8.6141C101.231 8.1523 101.287 7.73333 101.399 7.3572C101.515 6.97733 101.677 6.65147 101.885 6.3796C102.097 6.10774 102.349 5.89919 102.639 5.75395C102.933 5.60498 103.261 5.5305 103.622 5.5305C104.002 5.5305 104.334 5.59753 104.617 5.7316C104.903 5.86195 105.146 6.05374 105.343 6.30698C105.544 6.5565 105.702 6.85816 105.818 7.21195C105.933 7.56575 106.013 7.96609 106.058 8.41299V8.92693C106.017 9.3701 105.937 9.76858 105.818 10.1224C105.702 10.4762 105.544 10.7778 105.343 11.0273C105.146 11.2769 104.903 11.4687 104.617 11.6027C104.33 11.7331 103.995 11.7982 103.611 11.7982C103.257 11.7982 102.933 11.7219 102.639 11.5692C102.349 11.4165 102.097 11.2024 101.885 10.9268C101.677 10.6512 101.515 10.3272 101.399 9.95479C101.287 9.57865 101.231 9.17086 101.231 8.73141ZM102.271 8.6141V8.73141C102.271 9.03306 102.3 9.3161 102.36 9.58051C102.423 9.84493 102.52 10.0777 102.65 10.2788C102.781 10.4799 102.946 10.6382 103.148 10.7536C103.349 10.8653 103.589 10.9212 103.868 10.9212C104.211 10.9212 104.492 10.8486 104.712 10.7033C104.935 10.5581 105.114 10.3663 105.248 10.128C105.382 9.88962 105.486 9.63079 105.561 9.35148V8.0052C105.516 7.80037 105.451 7.60299 105.365 7.41306C105.283 7.2194 105.175 7.04809 105.041 6.89912C104.911 6.74643 104.749 6.6254 104.555 6.53602C104.365 6.44664 104.14 6.40195 103.879 6.40195C103.596 6.40195 103.352 6.46154 103.148 6.58071C102.946 6.69616 102.781 6.8563 102.65 7.06112C102.52 7.26223 102.423 7.49685 102.36 7.76499C102.3 8.0294 102.271 8.31244 102.271 8.6141ZM111.644 10.29V5.64222H112.683V11.6865H111.694L111.644 10.29ZM111.84 9.01631L112.27 9.00513C112.27 9.40734 112.227 9.77976 112.141 10.1224C112.059 10.4613 111.925 10.7555 111.739 11.005C111.553 11.2545 111.309 11.45 111.007 11.5916C110.706 11.7294 110.339 11.7982 109.907 11.7982C109.613 11.7982 109.343 11.7554 109.097 11.6698C108.855 11.5841 108.646 11.4519 108.471 11.2731C108.296 11.0944 108.16 10.8616 108.063 10.5749C107.97 10.2881 107.924 9.94362 107.924 9.54141V5.64222H108.957V9.55258C108.957 9.82445 108.987 10.0498 109.047 10.2285C109.11 10.4036 109.194 10.5432 109.298 10.6475C109.406 10.748 109.525 10.8188 109.656 10.8598C109.79 10.9007 109.927 10.9212 110.069 10.9212C110.508 10.9212 110.857 10.8374 111.114 10.6698C111.37 10.4985 111.555 10.2695 111.667 9.98272C111.782 9.69224 111.84 9.3701 111.84 9.01631ZM109.359 13.0607C109.359 12.8931 109.41 12.7516 109.51 12.6362C109.615 12.5207 109.767 12.463 109.968 12.463C110.166 12.463 110.317 12.5207 110.421 12.6362C110.529 12.7516 110.583 12.8931 110.583 13.0607C110.583 13.2209 110.529 13.3568 110.421 13.4685C110.317 13.584 110.166 13.6417 109.968 13.6417C109.767 13.6417 109.615 13.584 109.51 13.4685C109.41 13.3568 109.359 13.2209 109.359 13.0607ZM115.292 6.93264V11.6865H114.259V5.64222H115.236L115.292 6.93264ZM115.046 8.43534L114.616 8.41858C114.62 8.0052 114.681 7.62347 114.8 7.2734C114.92 6.91961 115.087 6.61236 115.303 6.35167C115.519 6.09098 115.776 5.88988 116.074 5.74836C116.376 5.60312 116.709 5.5305 117.074 5.5305C117.372 5.5305 117.64 5.57146 117.878 5.65339C118.117 5.7316 118.32 5.85822 118.487 6.03326C118.659 6.20829 118.789 6.43547 118.878 6.71478C118.968 6.99037 119.012 7.3274 119.012 7.72589V11.6865H117.973V7.71471C117.973 7.39816 117.927 7.14492 117.834 6.95499C117.741 6.76133 117.605 6.62167 117.426 6.53602C117.247 6.44664 117.027 6.40195 116.767 6.40195C116.51 6.40195 116.275 6.45595 116.063 6.56395C115.854 6.67195 115.674 6.82092 115.521 7.01085C115.372 7.20078 115.255 7.41864 115.169 7.66444C115.087 7.90651 115.046 8.16347 115.046 8.43534ZM124.498 5.64222H125.437V11.558C125.437 12.0906 125.329 12.5449 125.113 12.9211C124.897 13.2972 124.595 13.5821 124.208 13.7758C123.824 13.9732 123.381 14.0718 122.878 14.0718C122.67 14.0718 122.424 14.0383 122.141 13.9713C121.861 13.908 121.586 13.7981 121.314 13.6417C121.046 13.489 120.821 13.2823 120.638 13.0216L121.18 12.4071C121.433 12.7125 121.698 12.9248 121.973 13.044C122.252 13.1632 122.528 13.2227 122.8 13.2227C123.128 13.2227 123.411 13.1613 123.649 13.0384C123.887 12.9155 124.072 12.733 124.202 12.4909C124.336 12.2526 124.403 11.9584 124.403 11.6083V6.97175L124.498 5.64222ZM120.336 8.73141V8.6141C120.336 8.1523 120.39 7.73333 120.498 7.3572C120.61 6.97733 120.768 6.65147 120.973 6.3796C121.182 6.10774 121.433 5.89919 121.727 5.75395C122.022 5.60498 122.353 5.5305 122.722 5.5305C123.102 5.5305 123.433 5.59753 123.716 5.7316C124.003 5.86195 124.245 6.05374 124.442 6.30698C124.643 6.5565 124.802 6.85816 124.917 7.21195C125.033 7.56575 125.113 7.96609 125.157 8.41299V8.92693C125.116 9.3701 125.036 9.76858 124.917 10.1224C124.802 10.4762 124.643 10.7778 124.442 11.0273C124.245 11.2769 124.003 11.4687 123.716 11.6027C123.429 11.7331 123.094 11.7982 122.711 11.7982C122.349 11.7982 122.022 11.7219 121.727 11.5692C121.437 11.4165 121.187 11.2024 120.979 10.9268C120.77 10.6512 120.61 10.3272 120.498 9.95479C120.39 9.57865 120.336 9.17086 120.336 8.73141ZM121.37 8.6141V8.73141C121.37 9.03306 121.4 9.3161 121.459 9.58051C121.523 9.84493 121.617 10.0777 121.744 10.2788C121.874 10.4799 122.04 10.6382 122.241 10.7536C122.442 10.8653 122.683 10.9212 122.962 10.9212C123.305 10.9212 123.588 10.8486 123.811 10.7033C124.034 10.5581 124.211 10.3663 124.342 10.128C124.476 9.88962 124.58 9.63079 124.655 9.35148V8.0052C124.614 7.80037 124.55 7.60299 124.465 7.41306C124.383 7.2194 124.275 7.04809 124.141 6.89912C124.01 6.74643 123.848 6.6254 123.655 6.53602C123.461 6.44664 123.234 6.40195 122.973 6.40195C122.69 6.40195 122.446 6.46154 122.241 6.58071C122.04 6.69616 121.874 6.8563 121.744 7.06112C121.617 7.26223 121.523 7.49685 121.459 7.76499C121.4 8.0294 121.37 8.31244 121.37 8.6141ZM131.157 3.55297V11.6865H130.079V3.55297H131.157ZM139.38 7.36278V7.87671C139.38 8.48748 139.303 9.03493 139.151 9.51907C138.998 10.0032 138.778 10.4147 138.492 10.7536C138.205 11.0925 137.86 11.3513 137.458 11.5301C137.06 11.7089 136.613 11.7982 136.117 11.7982C135.637 11.7982 135.196 11.7089 134.794 11.5301C134.395 11.3513 134.049 11.0925 133.755 10.7536C133.464 10.4147 133.239 10.0032 133.079 9.51907C132.918 9.03493 132.838 8.48748 132.838 7.87671V7.36278C132.838 6.75202 132.917 6.20643 133.073 5.72602C133.233 5.24188 133.458 4.83036 133.749 4.49146C134.039 4.14884 134.384 3.88815 134.782 3.70939C135.185 3.53063 135.626 3.44125 136.106 3.44125C136.602 3.44125 137.049 3.53063 137.447 3.70939C137.849 3.88815 138.194 4.14884 138.48 4.49146C138.771 4.83036 138.993 5.24188 139.145 5.72602C139.302 6.20643 139.38 6.75202 139.38 7.36278ZM138.313 7.87671V7.35161C138.313 6.86747 138.263 6.43919 138.162 6.06678C138.065 5.69436 137.922 5.38153 137.732 5.12829C137.542 4.87505 137.309 4.68325 137.034 4.55291C136.762 4.42256 136.453 4.35739 136.106 4.35739C135.771 4.35739 135.468 4.42256 135.196 4.55291C134.928 4.68325 134.697 4.87505 134.503 5.12829C134.313 5.38153 134.166 5.69436 134.062 6.06678C133.957 6.43919 133.905 6.86747 133.905 7.35161V7.87671C133.905 8.36458 133.957 8.79658 134.062 9.17272C134.166 9.54514 134.315 9.85983 134.509 10.1168C134.706 10.37 134.939 10.5618 135.207 10.6922C135.479 10.8225 135.782 10.8877 136.117 10.8877C136.468 10.8877 136.779 10.8225 137.05 10.6922C137.322 10.5618 137.551 10.37 137.737 10.1168C137.927 9.85983 138.071 9.54514 138.168 9.17272C138.264 8.79658 138.313 8.36458 138.313 7.87671ZM145.329 9.63079C145.329 9.44086 145.299 9.27327 145.24 9.12803C145.184 8.97906 145.083 8.84499 144.938 8.72582C144.797 8.60665 144.599 8.49306 144.346 8.38506C144.096 8.27706 143.78 8.1672 143.396 8.05547C142.994 7.9363 142.631 7.80409 142.307 7.65885C141.983 7.50989 141.706 7.34044 141.475 7.1505C141.244 6.96057 141.067 6.74271 140.944 6.49692C140.821 6.25112 140.76 5.96995 140.76 5.65339C140.76 5.33684 140.825 5.0445 140.955 4.77636C141.086 4.50822 141.272 4.27546 141.514 4.07808C141.76 3.87697 142.052 3.72056 142.391 3.60883C142.73 3.49711 143.108 3.44125 143.525 3.44125C144.136 3.44125 144.653 3.55856 145.078 3.79318C145.506 4.02408 145.832 4.3276 146.055 4.70374C146.279 5.07615 146.391 5.47464 146.391 5.89919H145.318C145.318 5.59381 145.253 5.32381 145.122 5.08919C144.992 4.85084 144.795 4.66463 144.53 4.53056C144.266 4.39277 143.931 4.32387 143.525 4.32387C143.141 4.32387 142.825 4.3816 142.575 4.49705C142.326 4.61249 142.139 4.76891 142.017 4.96629C141.897 5.16367 141.838 5.38898 141.838 5.64222C141.838 5.81353 141.873 5.96995 141.944 6.11147C142.018 6.24926 142.132 6.37774 142.285 6.49692C142.441 6.61609 142.638 6.72595 142.877 6.8265C143.119 6.92706 143.408 7.02388 143.743 7.11699C144.204 7.24733 144.603 7.39257 144.938 7.55271C145.273 7.71285 145.549 7.89347 145.765 8.09458C145.985 8.29196 146.147 8.51727 146.251 8.77051C146.359 9.02003 146.413 9.30307 146.413 9.61962C146.413 9.95107 146.346 10.2509 146.212 10.519C146.078 10.7871 145.886 11.0162 145.636 11.2061C145.387 11.396 145.087 11.5431 144.737 11.6474C144.391 11.748 144.003 11.7982 143.575 11.7982C143.199 11.7982 142.828 11.7461 142.463 11.6418C142.102 11.5376 141.773 11.3811 141.475 11.1726C141.18 10.964 140.944 10.7071 140.765 10.4017C140.59 10.0926 140.503 9.73507 140.503 9.32913H141.575C141.575 9.60845 141.629 9.84865 141.737 10.0498C141.845 10.2471 141.992 10.411 142.179 10.5413C142.368 10.6717 142.583 10.7685 142.821 10.8318C143.063 10.8914 143.314 10.9212 143.575 10.9212C143.951 10.9212 144.27 10.8691 144.53 10.7648C144.791 10.6605 144.988 10.5116 145.122 10.3179C145.26 10.1242 145.329 9.89521 145.329 9.63079ZM147.586 11.1391C147.586 10.964 147.64 10.8169 147.748 10.6978C147.86 10.5749 148.02 10.5134 148.228 10.5134C148.437 10.5134 148.595 10.5749 148.703 10.6978C148.815 10.8169 148.871 10.964 148.871 11.1391C148.871 11.3104 148.815 11.4556 148.703 11.5748C148.595 11.694 148.437 11.7536 148.228 11.7536C148.02 11.7536 147.86 11.694 147.748 11.5748C147.64 11.4556 147.586 11.3104 147.586 11.1391ZM147.592 6.20643C147.592 6.0314 147.646 5.88429 147.754 5.76512C147.865 5.64222 148.025 5.58077 148.234 5.58077C148.443 5.58077 148.601 5.64222 148.709 5.76512C148.821 5.88429 148.876 6.0314 148.876 6.20643C148.876 6.37774 148.821 6.52298 148.709 6.64216C148.601 6.76133 148.443 6.82092 148.234 6.82092C148.025 6.82092 147.865 6.76133 147.754 6.64216C147.646 6.52298 147.592 6.37774 147.592 6.20643Z" fill="black"/>
<path d="M152.483 21.2991H69.2218C68.8997 21.2991 68.5776 21.2991 68.2555 21.2991C67.9334 21.2991 67.7724 21.2991 67.4503 21.2991C66.9672 21.2991 66.323 21.2991 65.8399 21.4601C65.3567 21.6212 64.7125 21.7822 64.2294 21.9433C63.7463 22.2653 63.2631 22.5874 62.941 22.9095C62.6189 23.2316 62.1358 23.7148 61.9747 24.1979C61.6527 24.681 61.4916 25.1642 61.4916 25.8084C61.3306 26.2915 61.3306 26.9357 61.3306 27.4188C61.3306 27.7409 61.3306 27.902 61.3306 28.224V47.3885C61.3306 47.7106 61.3306 47.8717 61.3306 48.1937C61.3306 48.6769 61.3306 49.3211 61.4916 49.8042C61.6527 50.2873 61.8137 50.9315 61.9747 51.4147C62.2968 51.8978 62.6189 52.3809 62.941 52.703C63.2631 53.0251 63.7463 53.5083 64.2294 53.6693C64.7125 53.9914 65.1957 54.1524 65.8399 54.1524C66.323 54.3135 66.9672 54.3135 67.4503 54.3135C67.7724 54.3135 67.9334 54.3135 68.2555 54.3135C68.5776 54.3135 68.8997 54.3135 69.2218 54.3135H152.483C152.805 54.3135 153.127 54.3135 153.449 54.3135C153.771 54.3135 153.932 54.3135 154.254 54.3135C154.737 54.3135 155.381 54.3135 155.865 54.1524C156.348 53.9914 156.992 53.8303 157.475 53.6693C157.958 53.3472 158.441 53.0251 158.763 52.703C159.085 52.3809 159.408 51.8978 159.73 51.4147C160.052 50.9315 160.213 50.4484 160.213 49.8042C160.374 49.3211 160.374 48.6769 160.374 48.1937C160.374 47.8717 160.374 47.7106 160.374 47.3885C160.374 47.0664 160.374 46.7443 160.374 46.4222V29.1903C160.374 28.8682 160.374 28.5461 160.374 28.224C160.374 27.902 160.374 27.7409 160.374 27.4188C160.374 26.9357 160.374 26.2915 160.213 25.8084C160.052 25.3252 159.891 24.681 159.73 24.1979C159.247 23.2316 158.441 22.4264 157.475 21.9433C156.992 21.6212 156.509 21.4601 155.865 21.4601C155.381 21.2991 154.737 21.2991 154.254 21.2991C153.932 21.2991 153.771 21.2991 153.449 21.2991C153.127 21.2991 152.805 21.2991 152.483 21.2991Z" fill="black"/>
<path d="M68.2568 53.6694C67.9347 53.6694 67.7736 53.6694 67.4516 53.6694C66.9684 53.6694 66.4853 53.6694 65.8411 53.5084C65.358 53.3473 64.8748 53.3473 64.3917 53.0252C63.9085 52.8642 63.5864 52.5421 63.2644 52.22C62.9423 51.8979 62.6202 51.4148 62.4591 51.0927C62.2981 50.6095 62.137 50.1264 61.976 49.6433C61.8149 49.1601 61.8149 48.677 61.8149 48.0328C61.8149 47.8718 61.8149 47.2276 61.8149 47.2276V28.2242C61.8149 28.2242 61.8149 27.58 61.8149 27.4189C61.8149 26.9358 61.8149 26.4526 61.976 25.8085C61.976 25.3253 62.137 24.8422 62.4591 24.359C62.7812 24.198 63.1033 23.7149 63.4254 23.3928C63.7475 23.0707 64.2306 22.7486 64.5527 22.5875C65.0359 22.4265 65.519 22.2655 66.0021 22.1044C66.4853 21.9434 66.9684 21.9434 67.6126 21.9434H68.4178H153.611H154.416C154.9 21.9434 155.383 21.9434 156.027 22.1044C156.51 22.2655 156.993 22.2655 157.476 22.5875C158.281 23.0707 159.087 23.7149 159.409 24.5201C159.57 25.0032 159.731 25.4864 159.892 25.8085C160.053 26.2916 160.053 26.7747 160.053 27.4189C160.053 27.58 160.053 27.9021 160.053 28.2242C160.053 28.5462 160.053 28.8683 160.053 29.1904V46.5834C160.053 46.9055 160.053 47.2276 160.053 47.5497C160.053 47.8718 160.053 48.0328 160.053 48.3549C160.053 48.838 160.053 49.3212 159.892 49.9654C159.892 50.4485 159.731 50.9316 159.409 51.4148C159.248 51.8979 158.926 52.22 158.604 52.5421C158.281 52.8642 157.798 53.1863 157.476 53.3473C156.993 53.5084 156.51 53.6694 156.027 53.8305C155.544 53.9915 155.061 53.9915 154.416 53.9915C154.094 53.9915 153.933 53.9915 153.611 53.9915H152.645L68.2568 53.6694Z" fill="white"/>
<path d="M81.9449 37.7261C81.9449 36.2767 82.7501 34.9883 84.0385 34.1831C83.2332 33.0558 81.9449 32.2505 80.6565 32.2505C79.2071 32.0895 77.7577 33.0558 77.1135 33.0558C76.3083 33.0558 75.1809 32.2505 73.8926 32.2505C72.2821 32.2505 70.8327 33.2168 70.0275 34.6662C68.417 37.565 69.5443 41.7522 71.1548 44.1679C71.96 45.2952 72.9263 46.5836 74.0536 46.5836C75.1809 46.5836 75.6641 45.7784 77.1135 45.7784C78.5629 45.7784 78.885 46.5836 80.1734 46.5836C81.4617 46.5836 82.267 45.4563 83.0722 44.329C83.7164 43.5237 84.0385 42.5575 84.3606 41.5912C83.0722 40.786 81.9449 39.3365 81.9449 37.7261Z" fill="black"/>
<path d="M79.6904 30.8008C80.3346 29.9956 80.6566 28.8683 80.6566 27.741C79.5293 27.902 78.5631 28.3852 77.9189 29.1904C77.2747 29.9956 76.7916 30.9619 76.9526 32.0892C77.9189 32.0892 79.0462 31.6061 79.6904 30.8008Z" fill="black"/>
<path d="M96.2763 43.6849H92.4112L91.4449 46.4227H89.8345L93.5385 36.1157H95.31L99.0141 46.4227H97.4036L96.2763 43.6849ZM92.8943 42.3965H95.9542L94.3438 37.8872L92.8943 42.3965Z" fill="black"/>
<path d="M107.067 42.7183C107.067 44.973 105.779 46.5834 104.007 46.5834C103.041 46.5834 102.075 46.1003 101.591 45.2951V48.9991H99.981V39.0143H101.43V40.3026C101.914 39.4974 102.88 39.0143 103.846 39.0143C105.779 38.8532 107.067 40.4637 107.067 42.7183ZM105.457 42.7183C105.457 41.2689 104.651 40.1416 103.524 40.1416C102.397 40.1416 101.591 41.1079 101.591 42.7183C101.591 44.1677 102.397 45.2951 103.524 45.2951C104.651 45.2951 105.457 44.3288 105.457 42.7183Z" fill="black"/>
<path d="M115.282 42.7183C115.282 44.973 113.994 46.5834 112.222 46.5834C111.256 46.5834 110.29 46.1003 109.807 45.2951V48.9991H108.196V39.0143H109.646V40.3026C110.129 39.4974 111.095 39.0143 112.061 39.0143C113.994 38.8532 115.282 40.4637 115.282 42.7183ZM113.672 42.7183C113.672 41.2689 112.867 40.1416 111.739 40.1416C110.612 40.1416 109.807 41.1079 109.807 42.7183C109.807 44.1677 110.612 45.2951 111.739 45.2951C112.867 45.2951 113.672 44.3288 113.672 42.7183Z" fill="black"/>
<path d="M120.755 43.6848C120.916 44.6511 121.882 45.2953 123.17 45.2953C124.459 45.2953 125.425 44.6511 125.425 43.6848C125.425 42.8796 124.942 42.3964 123.492 42.0743L122.204 41.7522C120.271 41.2691 119.466 40.4639 119.466 39.0145C119.466 37.243 121.077 35.9546 123.17 35.9546C125.425 35.9546 126.874 37.243 126.874 39.0145H125.264C125.103 38.0482 124.298 37.404 123.009 37.404C121.721 37.404 120.916 38.0482 120.916 39.0145C120.916 39.8197 121.399 40.1418 122.848 40.4639L123.975 40.786C126.069 41.2691 127.035 42.0743 127.035 43.6848C127.035 45.6173 125.425 46.7447 123.009 46.7447C120.755 46.7447 119.144 45.6173 119.144 43.6848H120.755Z" fill="black"/>
<path d="M130.257 37.2429V39.0144H131.706V40.3028H130.257V44.49C130.257 45.1342 130.579 45.4563 131.223 45.4563C131.384 45.4563 131.545 45.4563 131.706 45.4563V46.7446C131.384 46.7446 131.062 46.7446 130.901 46.7446C129.452 46.7446 128.807 46.1004 128.807 44.651V40.3028H127.68V39.0144H128.807V37.2429H130.257Z" fill="black"/>
<path d="M132.511 42.7186C132.511 40.3029 133.96 38.8535 136.054 38.8535C138.308 38.8535 139.597 40.3029 139.597 42.7186C139.597 45.1343 138.147 46.5837 136.054 46.5837C133.96 46.5837 132.511 45.1343 132.511 42.7186ZM138.147 42.7186C138.147 41.1082 137.342 40.1419 136.215 40.1419C135.087 40.1419 134.282 41.1082 134.282 42.7186C134.282 44.3291 135.087 45.2954 136.215 45.2954C137.342 45.2954 138.147 44.3291 138.147 42.7186Z" fill="black"/>
<path d="M141.046 39.0143H142.495V40.3027C142.656 39.4975 143.461 38.8533 144.267 39.0143C144.428 39.0143 144.589 39.0143 144.75 39.0143V40.4638C144.589 40.4638 144.267 40.3027 144.106 40.3027C143.3 40.3027 142.495 40.9469 142.495 41.7521V41.9132V46.4225H140.885L141.046 39.0143Z" fill="black"/>
<path d="M151.84 44.3291C151.679 45.6174 150.23 46.5837 148.619 46.5837C146.365 46.5837 145.076 45.1343 145.076 42.7186C145.076 40.3029 146.365 38.8535 148.619 38.8535C150.713 38.8535 152.001 40.3029 152.001 42.5576V43.0407H146.687V43.2018C146.526 44.3291 147.331 45.2954 148.458 45.2954C148.619 45.2954 148.619 45.2954 148.78 45.2954C149.585 45.2954 150.23 44.9733 150.552 44.168L151.84 44.3291ZM146.687 42.0744H150.391C150.391 41.1082 149.747 40.3029 148.619 40.1419H148.458C147.492 40.1419 146.687 40.9471 146.687 42.0744Z" fill="black"/>
<path d="M92.09 33.3772V29.19H90.4795V28.3848H94.3446V29.0289H92.7341V33.2161L92.09 33.3772Z" fill="black"/>
<path d="M94.6636 32.4109C94.6636 31.7667 95.1467 31.2836 96.113 31.2836H97.0793V30.8004C97.0793 30.4783 96.7572 30.1563 96.274 30.1563C95.7909 30.1563 95.6298 30.3173 95.4688 30.6394H94.8246C94.8246 29.9952 95.4688 29.5121 96.274 29.5121C97.2403 29.5121 97.7234 29.9952 97.7234 30.8004V33.3772H97.0793V32.894C96.9182 33.2161 96.4351 33.5382 95.9519 33.5382C95.3078 33.5382 94.6636 33.0551 94.6636 32.4109ZM97.0793 32.0888V31.7667H96.113C95.6299 31.7667 95.3078 31.9278 95.3078 32.2499C95.3078 32.5719 95.6298 32.733 95.9519 32.733C96.5961 32.894 97.0793 32.5719 97.0793 32.0888ZM95.7909 27.9016C95.9519 27.9016 96.113 27.9016 96.274 27.9016C96.7572 27.9016 97.0793 28.2237 97.0793 28.5458C97.0793 28.8679 96.7572 29.19 96.4351 29.351L96.113 29.0289C96.274 29.0289 96.4351 28.8679 96.4351 28.7068C96.4351 28.5458 96.274 28.3847 96.113 28.3847C95.9519 28.3847 95.7909 28.3847 95.7909 28.3847V27.9016Z" fill="black"/>
<path d="M98.8516 28.5456C98.8516 28.2235 99.0126 28.0625 99.3347 28.0625C99.6568 28.0625 99.8178 28.2235 99.8178 28.5456C99.8178 28.8677 99.6568 29.0288 99.3347 29.0288C99.0126 29.0288 98.8516 28.8677 98.8516 28.5456ZM99.0126 29.673H99.8178V33.377H99.0126V29.673Z" fill="black"/>
<path d="M104.652 33.3772H103.847L102.559 29.6731H103.364L104.33 32.5719L105.296 29.6731H106.102L104.652 33.3772Z" fill="black"/>
<path d="M109.965 32.4111C109.804 33.0553 108.999 33.5384 108.355 33.5384C107.388 33.5384 106.583 32.8942 106.583 31.928C106.583 31.7669 106.583 31.7669 106.583 31.6059C106.422 30.6396 107.066 29.8344 108.033 29.6733C108.194 29.6733 108.194 29.6733 108.355 29.6733C109.321 29.6733 109.965 30.3175 109.965 31.6059V31.928H107.388C107.388 32.4111 107.711 32.8942 108.355 33.0553C108.355 33.0553 108.355 33.0553 108.516 33.0553C108.838 33.0553 109.16 32.8942 109.482 32.5722L109.965 32.4111ZM109.643 29.1902H108.838L108.194 28.546L107.55 29.1902H106.905L107.872 28.0629H108.677L109.643 29.1902ZM107.388 31.1227H109.321C109.321 30.6396 108.999 30.1565 108.516 30.1565C108.516 30.1565 108.516 30.1565 108.355 30.1565C107.711 30.1565 107.388 30.6396 107.388 31.1227ZM109.16 27.9018L108.516 26.9355H109.321L109.965 28.0629L109.16 27.9018Z" fill="black"/>
<path d="M113.995 28.7073V29.6736H114.8V30.3177H113.995V32.2503C113.995 32.5724 114.156 32.7334 114.478 32.7334C114.639 32.7334 114.639 32.7334 114.8 32.7334V33.3776C114.639 33.3776 114.478 33.3776 114.478 33.3776C113.673 33.3776 113.351 33.0555 113.351 32.4113V30.3177H112.707V29.6736H113.351V28.7073H113.995Z" fill="black"/>
<path d="M115.763 29.6731H116.408V30.3173C116.569 29.8341 117.052 29.6731 117.374 29.6731C117.535 29.6731 117.535 29.6731 117.696 29.6731V30.4783C117.535 30.4783 117.374 30.4783 117.213 30.4783C116.73 30.4783 116.247 30.8004 116.247 31.2836C116.247 31.2836 116.247 31.2836 116.247 31.4446V33.6992H115.441V29.6731H115.763Z" fill="black"/>
<path d="M121.723 32.411C121.562 33.0552 120.757 33.5383 120.113 33.5383C119.146 33.5383 118.341 32.8941 118.341 31.9278C118.341 31.7668 118.341 31.7668 118.341 31.6058C118.18 30.6395 118.985 29.6732 119.79 29.6732C119.952 29.6732 119.951 29.6732 120.113 29.6732C121.079 29.6732 121.723 30.3174 121.723 31.6058V31.9278H119.146C119.146 32.411 119.468 32.8941 120.113 33.0552C120.113 33.0552 120.113 33.0552 120.274 33.0552C120.596 33.0552 120.918 32.8941 121.24 32.572L121.723 32.411ZM121.401 29.1901H120.596L119.952 28.3848L119.307 29.1901H118.502L119.468 28.0627H120.274L121.401 29.1901ZM119.146 31.1226H121.079C121.079 30.6395 120.757 30.1563 120.274 30.1563C120.274 30.1563 120.274 30.1563 120.113 30.1563C119.629 30.1563 119.146 30.6395 119.146 31.1226Z" fill="black"/>
<path d="M122.69 29.6731H123.334V30.3173C123.495 29.8341 123.979 29.6731 124.462 29.6731C125.106 29.6731 125.75 30.1562 125.75 30.8004C125.75 30.9615 125.75 30.9615 125.75 31.1225V33.5382H124.945V31.1225C124.945 30.4783 124.623 30.1562 124.14 30.1562C123.657 30.1562 123.334 30.4783 123.173 30.9615V31.1225V33.3772H122.368V29.6731H122.69Z" fill="black"/>
</svg>
