<svg width="30" height="30" viewBox="0 0 30 30" fill="none" xmlns="http://www.w3.org/2000/svg">
<g clip-path="url(#clip0_46_17561)">
<path d="M15.9644 24.3512C15.9644 25.0348 16.5205 25.591 17.2042 25.591C17.8879 25.591 18.444 25.0348 18.444 24.3512C18.444 23.6676 17.8879 23.1114 17.2042 23.1114C16.5205 23.1114 15.9644 23.6676 15.9644 24.3512ZM17.5633 24.3512C17.5633 24.5493 17.4022 24.7104 17.2041 24.7104C17.006 24.7104 16.845 24.5493 16.845 24.3512C16.845 24.1531 17.0061 23.9921 17.2041 23.9921C17.4022 23.9921 17.5633 24.1531 17.5633 24.3512Z" fill="#6F6F6F"/>
<path d="M18.8918 2.27751C19.1351 2.27751 19.3322 2.08041 19.3322 1.83718C19.3322 1.59396 19.1351 1.39685 18.8918 1.39685H17.1112C16.868 1.39685 16.6709 1.59396 16.6709 1.83718C16.6709 2.08041 16.868 2.27751 17.1112 2.27751H18.8918Z" fill="#6F6F6F"/>
<path d="M16.0596 1.84046C16.0596 1.59548 15.861 1.39685 15.616 1.39685C15.371 1.39685 15.1724 1.59548 15.1724 1.84046C15.1724 2.0855 15.371 2.28408 15.616 2.28408C15.861 2.28414 16.0596 2.0855 16.0596 1.84046Z" fill="#6F6F6F"/>
<path d="M25.1232 0H9.28466C7.99642 0 6.94829 1.04813 6.94829 2.33637V7.33857C6.94829 7.5818 7.1454 7.77891 7.38863 7.77891C7.63185 7.77891 7.82896 7.5818 7.82896 7.33857V2.33637C7.82896 1.53363 8.48199 0.880664 9.28466 0.880664H25.1232C25.9259 0.880664 26.5788 1.53369 26.5788 2.33637V24.4377C26.5788 25.2404 25.9258 25.8934 25.1232 25.8934H10.4807C10.9202 24.9899 11.1205 24.0156 11.0755 22.9939H25.4636C25.7068 22.9939 25.904 22.7968 25.904 22.5536V17.8001C25.904 17.5569 25.7068 17.3597 25.4636 17.3597C25.2204 17.3597 25.0233 17.5569 25.0233 17.8001V22.1133H10.9781C10.942 21.9092 10.8968 21.7037 10.842 21.4967C10.4937 20.1824 9.8645 19.1842 9.59333 18.7944C9.73531 18.2043 10.1601 16.4073 10.4599 14.8195C10.661 13.7544 10.2996 13.0559 9.96107 12.6574C9.80585 12.4747 9.60546 12.3425 9.38456 12.2701V3.69029H25.0233V16.0388C25.0233 16.282 25.2204 16.4791 25.4636 16.4791C25.7068 16.4791 25.904 16.282 25.904 16.0388V3.25002C25.904 3.0068 25.7068 2.80969 25.4636 2.80969H8.94417C8.70095 2.80969 8.50384 3.0068 8.50384 3.25002V12.3008C8.22622 12.4133 7.99314 12.6204 7.85017 12.8925L7.82884 12.9331V9.09984C7.82884 8.85662 7.63173 8.65951 7.38851 8.65951C7.14529 8.65951 6.94818 8.85662 6.94818 9.09984V14.6094L4.70562 18.8783C4.28292 19.6829 4.13451 20.6194 4.28779 21.5153L4.55527 23.079C4.76017 24.2765 4.56593 25.5305 4.00841 26.6099L2.58915 29.3576C2.51867 29.4941 2.52435 29.6575 2.60427 29.7887C2.68413 29.9199 2.82669 30 2.98033 30H13.2613C13.4066 30 13.5427 29.9283 13.6248 29.8083L14.4301 28.6308C15.0253 28.4861 16.9495 27.945 18.0972 26.774H25.1233C26.4115 26.774 27.4596 25.7259 27.4596 24.4376V2.33637C27.4595 1.04813 26.4114 0 25.1232 0ZM14.0749 27.8089C13.9632 27.8319 13.8648 27.8974 13.8004 27.9915L13.029 29.1194H3.70337L4.79087 27.0141C5.43564 25.7657 5.66029 24.3154 5.42333 22.9305L5.15585 21.3668C5.03503 20.6605 5.15199 19.9222 5.48527 19.2879L8.62988 13.302C8.74976 13.0545 9.11878 13.0117 9.28999 13.2275C9.60177 13.5945 9.70431 14.0751 9.59456 14.656C9.23609 16.5548 8.69538 18.7613 8.68999 18.7833C8.65788 18.9141 8.68771 19.0528 8.77033 19.1591C8.77865 19.1698 9.60611 20.246 9.99798 21.7496C10.5089 23.7104 10.0709 25.4565 8.69609 26.9396C8.53074 27.1179 8.54128 27.3965 8.71964 27.5618C8.89794 27.7271 9.17656 27.7167 9.34185 27.5382C9.5706 27.2914 9.77638 27.0363 9.96048 26.7739H16.6865C15.5274 27.5 14.0932 27.8051 14.0749 27.8089Z" fill="#6F6F6F"/>
<path d="M23.3847 13.8108V7.09992C23.3847 6.53373 22.9241 6.07307 22.3578 6.07307H21.3927C20.5717 5.57754 19.3728 5.10323 18.1311 5.47371C17.724 5.5953 17.415 5.77705 17.2043 5.93174C16.9937 5.77705 16.6847 5.5953 16.2776 5.47371C15.0357 5.10293 13.837 5.57748 13.0159 6.07307H12.0508C11.4846 6.07307 11.0239 6.53367 11.0239 7.09992V13.8107C11.0239 14.3769 11.4845 14.8375 12.0508 14.8375H22.3578C22.9241 14.8376 23.3847 14.377 23.3847 13.8108ZM13.5808 6.76201C15.3424 5.7501 16.4262 6.42293 16.764 6.70324V12.1646C16.6211 12.0939 16.4595 12.0274 16.2776 11.973C15.2971 11.6802 14.3431 11.9146 13.5809 12.2701L13.5808 6.76201ZM11.9046 13.8108V7.09992C11.9046 7.0193 11.9702 6.95373 12.0508 6.95373H12.7002V13.0127C12.6896 13.3487 13.0969 13.5732 13.3754 13.385C15.261 12.1955 16.4165 12.9134 16.7639 13.202V13.9569H12.0508C11.9702 13.957 11.9046 13.8913 11.9046 13.8108ZM17.6446 13.2025C17.9953 12.9114 19.1502 12.1971 21.0333 13.3851C21.3116 13.5735 21.7192 13.3487 21.7085 13.0127V10.6489C21.7085 10.4057 21.5114 10.2086 21.2682 10.2086C21.0249 10.2086 20.8278 10.4057 20.8278 10.6489V12.2701C20.0655 11.9146 19.1115 11.6803 18.1311 11.973C17.9491 12.0274 17.7875 12.094 17.6446 12.1646V6.70324C17.9822 6.42293 19.066 5.74992 20.8278 6.76201V8.88768C20.8278 9.1309 21.0249 9.32801 21.2682 9.32801C21.5114 9.32801 21.7085 9.1309 21.7085 8.88768V6.95373H22.3578C22.4385 6.95373 22.504 7.0193 22.504 7.09992V13.8107C22.504 13.8914 22.4385 13.9569 22.3578 13.9569H17.6446V13.2025Z" fill="#6F6F6F"/>
<path d="M21.7486 16.5302H12.6601C12.4168 16.5302 12.2197 16.7273 12.2197 16.9705C12.2197 17.2138 12.4168 17.4109 12.6601 17.4109H21.7486C21.9918 17.4109 22.1889 17.2138 22.1889 16.9705C22.1889 16.7273 21.9918 16.5302 21.7486 16.5302Z" fill="#6F6F6F"/>
<path d="M21.7486 18.7892H12.6601C12.4168 18.7892 12.2197 18.9864 12.2197 19.2296C12.2197 19.4728 12.4168 19.6699 12.6601 19.6699H21.7486C21.9918 19.6699 22.1889 19.4728 22.1889 19.2296C22.1889 18.9864 21.9918 18.7892 21.7486 18.7892Z" fill="#6F6F6F"/>
</g>
<defs>
<clipPath id="clip0_46_17561">
<rect width="30" height="30" fill="white"/>
</clipPath>
</defs>
</svg>
