<svg width="56" height="56" viewBox="0 0 56 56" fill="none" xmlns="http://www.w3.org/2000/svg">
<g clip-path="url(#clip0_24_4924)">
<path d="M28 0C12.229 0 0 11.557 0 27.16C0 35.322 3.346 42.378 8.792 47.25C9.247 47.656 9.527 48.23 9.541 48.846L9.695 53.83C9.70621 54.1967 9.80733 54.5551 9.98947 54.8735C10.1716 55.192 10.4292 55.4609 10.7396 55.6565C11.0499 55.8522 11.4036 55.9686 11.7695 55.9955C12.1354 56.0224 12.5023 55.9591 12.838 55.811L18.396 53.361C18.865 53.151 19.397 53.116 19.894 53.249C22.449 53.949 25.165 54.327 28 54.327C43.771 54.327 56 42.77 56 27.167C56 11.564 43.771 0 28 0Z" fill="#2F69FD"/>
<path d="M11.1861 35.1049L19.4111 22.0569C19.7206 21.5656 20.1285 21.1439 20.6091 20.8182C21.0897 20.4926 21.6327 20.2701 22.2036 20.1648C22.7746 20.0596 23.3611 20.0739 23.9263 20.2068C24.4914 20.3396 25.0229 20.5883 25.4872 20.9369L32.0322 25.8439C32.3243 26.0626 32.6798 26.1803 33.0448 26.179C33.4098 26.1778 33.7645 26.0577 34.0552 25.8369L42.8892 19.1309C44.0652 18.2349 45.6052 19.6489 44.8212 20.9019L36.5892 33.9429C36.2797 34.4341 35.8718 34.8559 35.3912 35.1816C34.9106 35.5072 34.3676 35.7297 33.7967 35.8349C33.2257 35.9402 32.6392 35.9259 32.074 35.793C31.5089 35.6601 30.9774 35.4115 30.5131 35.0629L23.9682 30.1559C23.676 29.9371 23.3205 29.8195 22.9555 29.8208C22.5905 29.822 22.2358 29.9421 21.9452 30.1629L13.1111 36.8689C11.9351 37.7649 10.3951 36.3579 11.1861 35.1049Z" fill="white"/>
</g>
<defs>
<clipPath id="clip0_24_4924">
<rect width="56" height="56" fill="white"/>
</clipPath>
</defs>
</svg>
