<svg width="118" height="32" viewBox="0 0 118 32" fill="none" xmlns="http://www.w3.org/2000/svg">
<path d="M17.1666 4H104.667C111.57 4 117.167 9.59644 117.167 16.5C117.167 23.4036 111.57 29 104.667 29H17.1666V4Z" fill="url(#paint0_linear_69_12840)"/>
<path d="M41.8434 15.415V17.4717H35.1637V15.415H41.8434ZM35.9459 10.2031V23H33.3092V10.2031H35.9459ZM43.7242 10.2031V23H41.0963V10.2031H43.7242ZM56.3299 16.3027V16.9092C56.3299 17.8818 56.1981 18.7549 55.9344 19.5283C55.6707 20.3018 55.2987 20.9609 54.8182 21.5059C54.3377 22.0449 53.7635 22.458 53.0955 22.7451C52.4334 23.0322 51.6981 23.1758 50.8895 23.1758C50.0867 23.1758 49.3514 23.0322 48.6834 22.7451C48.0213 22.458 47.4471 22.0449 46.9608 21.5059C46.4744 20.9609 46.0965 20.3018 45.827 19.5283C45.5633 18.7549 45.4315 17.8818 45.4315 16.9092V16.3027C45.4315 15.3242 45.5633 14.4512 45.827 13.6836C46.0906 12.9102 46.4627 12.251 46.9432 11.7061C47.4295 11.1611 48.0037 10.7451 48.6658 10.458C49.3338 10.1709 50.0692 10.0273 50.8719 10.0273C51.6805 10.0273 52.4158 10.1709 53.078 10.458C53.7459 10.7451 54.3201 11.1611 54.8006 11.7061C55.2869 12.251 55.6619 12.9102 55.9256 13.6836C56.1951 14.4512 56.3299 15.3242 56.3299 16.3027ZM53.6668 16.9092V16.2852C53.6668 15.6055 53.6053 15.0078 53.4823 14.4922C53.3592 13.9766 53.1776 13.543 52.9373 13.1914C52.6971 12.8398 52.4041 12.5762 52.0584 12.4004C51.7127 12.2188 51.3172 12.1279 50.8719 12.1279C50.4266 12.1279 50.0311 12.2188 49.6854 12.4004C49.3455 12.5762 49.0555 12.8398 48.8153 13.1914C48.5809 13.543 48.4022 13.9766 48.2791 14.4922C48.1561 15.0078 48.0946 15.6055 48.0946 16.2852V16.9092C48.0946 17.583 48.1561 18.1807 48.2791 18.7021C48.4022 19.2178 48.5838 19.6543 48.824 20.0117C49.0643 20.3633 49.3573 20.6299 49.703 20.8115C50.0487 20.9932 50.4442 21.084 50.8895 21.084C51.3348 21.084 51.7303 20.9932 52.076 20.8115C52.4217 20.6299 52.7117 20.3633 52.9461 20.0117C53.1805 19.6543 53.3592 19.2178 53.4823 18.7021C53.6053 18.1807 53.6668 17.583 53.6668 16.9092ZM51.6014 6.7666L54.2557 9.20996V9.31543H52.243L50.8631 8.03223L49.5008 9.31543H47.5233V9.18359L50.1336 6.7666H51.6014ZM49.492 25.0654C49.492 24.7256 49.6209 24.4414 49.8787 24.2129C50.1365 23.9902 50.4823 23.8789 50.9158 23.8789C51.3436 23.8789 51.6864 23.9902 51.9442 24.2129C52.2078 24.4414 52.3397 24.7256 52.3397 25.0654C52.3397 25.3994 52.2078 25.6807 51.9442 25.9092C51.6864 26.1377 51.3436 26.252 50.9158 26.252C50.4823 26.252 50.1365 26.1377 49.8787 25.9092C49.6209 25.6807 49.492 25.3994 49.492 25.0654ZM60.8321 10.2031V23H58.2041V10.2031H60.8321ZM71.9985 20.3281L75.0131 10.2031H77.9487L73.4926 23H71.559L71.9985 20.3281ZM69.2211 10.2031L72.227 20.3281L72.684 23H70.7328L66.3032 10.2031H69.2211ZM81.7477 10.2031V23H79.1198V10.2031H81.7477ZM92.6043 20.9434V23H85.7928V20.9434H92.6043ZM86.6541 10.2031V23H84.0174V10.2031H86.6541ZM91.7166 15.415V17.4189H85.7928V15.415H91.7166ZM92.5955 10.2031V12.2686H85.7928V10.2031H92.5955ZM89.1942 6.74023L91.8485 9.18359V9.28906H89.8358L88.4559 8.00586L87.0936 9.28906H85.116V9.15723L87.7264 6.74023H89.1942ZM104.357 10.2031V23H101.721L96.5791 14.4219V23H93.9424V10.2031H96.5791L101.73 18.79V10.2031H104.357Z" fill="white"/>
<path d="M15.1656 1.41699C15.586 1.41699 16.0016 1.50282 16.3864 1.66895L16.5494 1.74512L17.276 2.11133L17.278 2.1123C17.3017 2.12438 17.3272 2.13256 17.3531 2.13672H17.4362L18.2379 2.01465C18.7127 1.94199 19.1981 1.98161 19.6549 2.12988C20.1117 2.27815 20.5272 2.53152 20.8688 2.86914H20.8698L21.4479 3.44336H21.4489C21.4873 3.48159 21.5369 3.50698 21.5905 3.51562L22.3942 3.64648H22.3951C23.3645 3.80594 24.2452 4.41262 24.6871 5.27051V5.27148L25.0592 5.99512V5.99609C25.0835 6.04347 25.1224 6.08167 25.1696 6.10645C25.1988 6.12115 25.2249 6.13576 25.2477 6.14941H25.2467L25.9283 6.54883L26.0826 6.63672C26.4367 6.85138 26.7446 7.13547 26.9869 7.47266C27.2638 7.85795 27.4472 8.30233 27.524 8.77051L27.525 8.77148L27.6549 9.5752V9.57617C27.6636 9.62949 27.689 9.67849 27.7272 9.7168V9.71777L28.3014 10.2959C28.6393 10.6374 28.8933 11.0538 29.0416 11.5107C29.1714 11.9104 29.2176 12.3319 29.1783 12.749L29.1559 12.9277L29.0319 13.7324L29.0309 13.7363C29.0226 13.7883 29.0311 13.8415 29.0543 13.8887L29.4215 14.6152V14.6162C29.6373 15.0452 29.7496 15.5189 29.7496 15.999C29.7496 16.4793 29.6374 16.9537 29.4215 17.3828L29.4205 17.3818L29.0563 18.1104C29.0442 18.1342 29.036 18.1595 29.0319 18.1855V18.2686L29.1559 19.0752L29.1774 19.252C29.2161 19.6652 29.1716 20.0831 29.0446 20.4795C28.9014 20.9261 28.6564 21.3327 28.3317 21.6709L28.3326 21.6719L28.3307 21.6738C28.3297 21.675 28.3285 21.6768 28.3268 21.6787C28.3226 21.6834 28.3161 21.6905 28.3082 21.6992C28.2924 21.7167 28.269 21.7415 28.2418 21.7715C28.1874 21.8314 28.1146 21.9119 28.0416 21.9922C27.9097 22.1374 27.747 22.3147 27.7252 22.3369L27.7262 22.3379C27.7071 22.3571 27.6915 22.3794 27.6793 22.4033L27.6539 22.4795L27.524 23.2832V23.2842C27.4464 23.7578 27.2584 24.2064 26.9762 24.5947C26.7292 24.9346 26.4158 25.2201 26.0553 25.4336L25.8981 25.5205L25.1744 25.8936L25.1725 25.8945C25.1249 25.9188 25.0864 25.9574 25.0621 26.0049C25.0484 26.0321 25.033 26.0556 25.0201 26.0771L25.0211 26.0781L24.6051 26.7832C24.3837 27.1924 24.073 27.5467 23.6949 27.8184C23.3095 28.0953 22.8645 28.2798 22.3961 28.3564H22.3951L21.5924 28.4863H21.5914C21.5381 28.495 21.4891 28.5205 21.4508 28.5586L21.4498 28.5596L20.8717 29.1328L20.8707 29.1338C20.5292 29.4712 20.1135 29.7238 19.6569 29.8721C19.2 30.0203 18.7146 30.0599 18.2399 29.9873H18.2389L17.4342 29.8633H17.3541L17.278 29.8877L16.5514 30.2549H16.5504C16.1214 30.4706 15.6478 30.5829 15.1676 30.583C14.6873 30.583 14.2129 30.4707 13.7838 30.2549H13.7828L13.0573 29.8877H13.0563C13.0322 29.8755 13.0065 29.8674 12.9801 29.8633H12.8981L12.0934 29.9873H12.0924C11.6179 30.0598 11.133 30.0202 10.6764 29.8721C10.2196 29.7238 9.80316 29.4704 9.46155 29.1328L9.46057 29.1318L8.88342 28.5586H8.88245C8.84415 28.5205 8.79513 28.4949 8.74182 28.4863H8.73987L7.93713 28.3555C6.96565 28.1982 6.08554 27.5879 5.64417 26.7305L5.64319 26.7295L5.27209 26.0059L5.27112 26.0049C5.24638 25.9569 5.20691 25.9182 5.15881 25.8936V25.8926L4.43518 25.5215L4.4342 25.5205C3.63003 25.1067 3.04307 24.3072 2.84338 23.4082L2.80823 23.2275L2.67834 22.4248V22.4238C2.66965 22.3705 2.64422 22.3215 2.60608 22.2832V22.2822L2.03186 21.7041L2.03088 21.7031C1.6933 21.3617 1.43989 20.9459 1.29163 20.4893C1.14336 20.0325 1.10459 19.547 1.17737 19.0723L1.30139 18.2676V18.2646C1.3098 18.2122 1.30231 18.158 1.27893 18.1104L0.911743 17.3848V17.3838C0.695939 16.9548 0.583685 16.4812 0.583618 16.001C0.583618 15.5207 0.695875 15.0463 0.911743 14.6172L1.276 13.8916L1.27698 13.8887C1.28903 13.8648 1.29729 13.8395 1.30139 13.8135V13.7314L1.17932 12.9287C1.10659 12.4542 1.14635 11.9693 1.29456 11.5127C1.44289 11.0558 1.69595 10.6393 2.03381 10.2979L2.60706 9.71973L2.60901 9.71777C2.64671 9.67988 2.67185 9.63088 2.6803 9.57812V9.57715L2.81116 8.77344V8.77246C2.9707 7.80305 3.57836 6.92217 4.43713 6.48047L5.16077 6.1084C5.20941 6.08319 5.24897 6.04379 5.27405 5.99512L5.64612 5.27148L5.73401 5.11328C6.19831 4.33873 7.02897 3.79608 7.93713 3.64648H7.93909L8.7428 3.51562C8.79632 3.50698 8.846 3.48159 8.8844 3.44336L9.46057 2.86914L9.46252 2.86621C9.80398 2.5286 10.2196 2.2752 10.6764 2.12695C11.1332 1.97868 11.6186 1.93992 12.0934 2.0127H12.0944L12.899 2.13672H12.9791C13.0051 2.13258 13.0306 2.12437 13.0543 2.1123L13.0563 2.11133L13.7819 1.74512H13.7828C14.2118 1.52936 14.6854 1.41706 15.1656 1.41699Z" fill="url(#paint1_linear_69_12840)" stroke="white" stroke-width="1.16667"/>
<path d="M15.1666 5.5C9.40149 5.5 4.66663 10.236 4.66663 16C4.66663 21.764 9.40323 26.5 15.1666 26.5C20.93 26.5 25.6666 21.7634 25.6666 16C25.6666 10.2366 20.9306 5.5 15.1666 5.5Z" fill="white"/>
<path d="M12.6547 10.8182L15.1157 18.554H15.2101L17.676 10.8182H20.0624L16.5525 21H13.7783L10.2634 10.8182H12.6547Z" fill="url(#paint2_linear_69_12840)"/>
<defs>
<linearGradient id="paint0_linear_69_12840" x1="67.1627" y1="28.9978" x2="67.1627" y2="4.00466" gradientUnits="userSpaceOnUse">
<stop stop-color="#FD5900"/>
</linearGradient>
<linearGradient id="paint1_linear_69_12840" x1="15.1655" y1="29.9975" x2="15.1655" y2="2.00522" gradientUnits="userSpaceOnUse">
<stop stop-color="#FD5900"/>
<stop offset="1" stop-color="#FFDE00"/>
</linearGradient>
<linearGradient id="paint2_linear_69_12840" x1="15.1661" y1="22.9988" x2="15.1661" y2="9.00261" gradientUnits="userSpaceOnUse">
<stop stop-color="#FD5900"/>
<stop offset="1" stop-color="#FFDE00"/>
</linearGradient>
</defs>
</svg>
