<svg width="60" height="60" viewBox="0 0 60 60" fill="none" xmlns="http://www.w3.org/2000/svg">
<g clip-path="url(#clip0_44_20600)">
<path d="M59.4298 32.4007C59.8047 31.6556 60 30.833 60 29.9988C60 29.1647 59.8047 28.3421 59.4298 27.5969L58.6435 26.0398C58.4748 25.7031 58.4162 25.3219 58.476 24.9501L58.742 23.2266C58.8686 22.402 58.8003 21.5592 58.5427 20.7658C58.2851 19.9723 57.8453 19.2501 57.2584 18.6571L56.0291 17.4186C55.7625 17.1509 55.5867 16.8063 55.5264 16.4333L55.2475 14.7109C55.114 13.8977 54.7942 13.1263 54.3133 12.457C53.8323 11.7877 53.2032 11.2386 52.4749 10.8526L50.9585 9.9645C50.9292 9.94692 50.8999 9.93052 50.8695 9.91529C50.533 9.74283 50.2592 9.46906 50.0867 9.13261L49.2898 7.58132C48.5375 6.12026 47.0035 5.04349 45.2868 4.76112L43.5653 4.48226C43.1923 4.42201 42.8476 4.2462 42.5798 3.97962L41.3412 2.75054C40.7478 2.16409 40.0255 1.72452 39.232 1.46696C38.4384 1.20941 37.5957 1.141 36.771 1.26721L35.0507 1.52849C34.6771 1.58744 34.2944 1.52675 33.9573 1.35508L32.4011 0.570067C31.6558 0.195229 30.8331 0 29.9988 0C29.1645 0 28.3418 0.195229 27.5965 0.570067L26.0403 1.35508C25.704 1.52633 25.3222 1.58702 24.9493 1.52849L23.2255 1.26252C22.4008 1.13603 21.558 1.20431 20.7644 1.46188C19.9708 1.71945 19.2485 2.15917 18.6553 2.74585L17.4202 3.97962C17.1524 4.2462 16.8077 4.42201 16.4347 4.48226L14.712 4.76112C12.9965 5.04349 11.4625 6.12025 10.7102 7.5825L9.91332 9.13378C9.7402 9.46976 9.46655 9.74336 9.13052 9.91646L7.57899 10.7132C6.11652 11.4654 5.03959 12.9991 4.75718 14.7156L4.4771 16.4368C4.41738 16.8099 4.24146 17.1548 3.97438 17.4222L2.74628 18.6606C2.15951 19.2537 1.71972 19.9759 1.46211 20.7693C1.20449 21.5628 1.13621 22.4055 1.26272 23.2301L1.52404 24.9501C1.58287 25.3232 1.52259 25.7053 1.35178 26.0421L0.570156 27.5993C0.195259 28.3444 0 29.167 0 30.0012C0 30.8353 0.195259 31.6579 0.570156 32.4031L1.35647 33.9591C1.52513 34.2962 1.58374 34.6777 1.52404 35.0499L1.25803 36.7734C1.13162 37.598 1.19995 38.4407 1.45755 39.2342C1.71516 40.0276 2.1549 40.7498 2.74159 41.3429L3.97087 42.5814C4.23749 42.8491 4.41333 43.1938 4.47359 43.5667L4.75249 45.2879C5.03022 47.0044 6.11184 48.5381 7.5743 49.2903L9.12584 50.0871C9.46233 50.2595 9.73615 50.5333 9.90863 50.8697L10.7055 52.421C11.4578 53.8833 12.9918 54.9647 14.7085 55.2424L16.43 55.5224C16.8029 55.5823 17.1476 55.7577 17.4155 56.0239L18.6541 57.253C19.2475 57.8394 19.9698 58.2789 20.7634 58.5364C21.5569 58.794 22.3997 58.8624 23.2244 58.7363L24.9493 58.4715C25.3228 58.4128 25.7053 58.473 26.0427 58.6437L27.5989 59.4299C28.3442 59.8048 29.1669 60 30.0012 60C30.8355 60 31.6582 59.8048 32.4035 59.4299L33.9597 58.6437C34.2963 58.4735 34.6779 58.4133 35.0507 58.4715L36.7745 58.7375C37.5992 58.8636 38.4419 58.7952 39.2355 58.5376C40.029 58.28 40.7513 57.8405 41.3447 57.2542L42.5833 56.0251C42.8511 55.7585 43.1958 55.5827 43.5689 55.5224L45.2903 55.2436C46.1038 55.1104 46.8754 54.7909 47.5449 54.3099C48.2143 53.829 48.7634 53.1998 49.1492 52.4714L50.041 50.96C50.0586 50.9307 50.075 50.9014 50.0902 50.8709C50.262 50.5339 50.536 50.26 50.873 50.0882L52.4234 49.2903C53.1644 48.908 53.8056 48.3577 54.2958 47.6832C54.786 47.0088 55.1115 46.229 55.2463 45.4063L55.5252 43.6851C55.5855 43.3121 55.7613 42.9674 56.028 42.6997C56.0467 42.681 57.2877 41.3136 57.2877 41.3136C57.8638 40.7212 58.2949 40.0034 58.547 39.2165C58.7991 38.4296 58.8654 37.595 58.7408 36.7781L58.476 35.0499C58.4172 34.6765 58.4775 34.294 58.6482 33.9567L59.4298 32.4007Z" fill="url(#paint0_linear_44_20600)"/>
<path d="M30 7.5C17.6461 7.5 7.5 17.6486 7.5 30C7.5 42.3514 17.6499 52.5 30 52.5C42.3501 52.5 52.5 42.3501 52.5 30C52.5 17.6499 42.3514 7.5 30 7.5Z" fill="url(#paint1_linear_44_20600)"/>
<path d="M24.6174 19.1818L29.8908 35.7585H30.0932L35.3773 19.1818H40.4909L32.9696 41H27.025L19.4931 19.1818H24.6174Z" fill="url(#paint2_linear_44_20600)"/>
</g>
<defs>
<linearGradient id="paint0_linear_44_20600" x1="29.9977" y1="59.9947" x2="29.9977" y2="0.0111835" gradientUnits="userSpaceOnUse">
<stop stop-color="#FD5900"/>
<stop offset="1" stop-color="#FFDE00"/>
</linearGradient>
<linearGradient id="paint1_linear_44_20600" x1="29.9975" y1="52.5037" x2="29.9975" y2="7.50373" gradientUnits="userSpaceOnUse">
<stop stop-color="#FFE59A"/>
<stop offset="1" stop-color="#FFFFD5"/>
</linearGradient>
<linearGradient id="paint2_linear_44_20600" x1="29.9988" y1="44.9973" x2="29.9988" y2="15.0056" gradientUnits="userSpaceOnUse">
<stop stop-color="#FD5900"/>
<stop offset="1" stop-color="#FFDE00"/>
</linearGradient>
<clipPath id="clip0_44_20600">
<rect width="60" height="60" fill="white"/>
</clipPath>
</defs>
</svg>
