<svg width="56" height="56" viewBox="0 0 56 56" fill="none" xmlns="http://www.w3.org/2000/svg">
<path d="M28 0C43.464 5.15408e-07 56 12.536 56 28C56 43.464 43.464 56 28 56C12.536 56 5.1544e-07 43.464 0 28C0 12.536 12.536 0 28 0Z" fill="#2F69FD"/>
<path fill-rule="evenodd" clip-rule="evenodd" d="M30.2189 25.1272V24.3798H32.471V34.8903H31.1825C30.6522 34.8903 30.2218 34.4644 30.2189 33.938C30.2186 33.9383 30.2183 33.9383 30.2179 33.9386C29.3109 34.598 28.1897 34.9898 26.9787 34.9898C23.9456 34.9898 21.4863 32.5463 21.4863 29.5326C21.4863 26.5189 23.9456 24.0757 26.9787 24.0757C28.1897 24.0757 29.3109 24.4671 30.2179 25.1265C30.2183 25.1269 30.2186 25.1269 30.2189 25.1272ZM20.9028 21V21.3406C20.9028 21.9763 20.8173 22.495 20.402 23.1039L20.3519 23.1608C20.2612 23.2631 20.0482 23.5033 19.9469 23.6335L12.7177 32.655H20.9028V33.9322C20.9028 34.4615 20.4709 34.8903 19.9385 34.8903H9.33301V34.2882C9.33301 33.5504 9.51731 33.2217 9.75018 32.8788L17.4571 23.3949H9.65433V21H20.9028ZM35.2024 34.8903C34.7595 34.8903 34.3993 34.5325 34.3993 34.0928V21H36.8097V34.8903H35.2024ZM43.937 24.0098C46.991 24.0098 49.4663 26.4716 49.4663 29.5035C49.4663 32.5383 46.991 35 43.937 35C40.8827 35 38.4076 32.5383 38.4076 29.5035C38.4076 26.4716 40.8827 24.0098 43.937 24.0098ZM26.9787 32.7433C28.7635 32.7433 30.2099 31.3061 30.2099 29.5326C30.2099 27.7619 28.7635 26.3245 26.9787 26.3245C25.1939 26.3245 23.7471 27.7619 23.7471 29.5326C23.7471 31.3061 25.1939 32.7433 26.9787 32.7433ZM43.937 32.7378C45.7324 32.7378 47.1894 31.2901 47.1894 29.5035C47.1894 27.7197 45.7324 26.272 43.937 26.272C42.1387 26.272 40.6842 27.7197 40.6842 29.5035C40.6842 31.2901 42.1387 32.7378 43.937 32.7378Z" fill="white"/>
</svg>
